<mxfile host="app.diagrams.net" modified="2022-01-20T08:42:05.952Z" agent="5.0 (Windows NT 10.0; Win64; x64) AppleWebKit/537.36 (KHTML, like Gecko) Chrome/97.0.4692.71 Safari/537.36" etag="HMRu-_dHWumYJFCppowh" version="16.4.2" type="github">
  <diagram id="S6h30Df84OZ0OpIPssgu" name="Page-1">
    <mxGraphModel dx="1278" dy="589" grid="1" gridSize="10" guides="1" tooltips="1" connect="1" arrows="1" fold="1" page="1" pageScale="1" pageWidth="850" pageHeight="1100" math="0" shadow="0">
      <root>
        <mxCell id="0" />
        <mxCell id="1" parent="0" />
        <mxCell id="HzsrkBzken3djIKcfrYe-1" value="" style="shape=image;verticalLabelPosition=bottom;labelBackgroundColor=default;verticalAlign=top;aspect=fixed;imageAspect=0;image=data:image/jpeg,/9j/4AAQSkZJRgABAQAAAQABAAD/2wBDAAMCAgICAgMCAgIDAwMDBAYEBAQEBAgGBgUGCQgKCgkICQkKDA8MCgsOCwkJDRENDg8QEBEQCgwSExIQEw8QEBD/2wBDAQMDAwQDBAgEBAgQCwkLEBAQEBAQEBAQEBAQEBAQEBAQEBAQEBAQEBAQEBAQEBAQEBAQEBAQEBAQEBAQEBAQEBD/wAARCAIwAw8DASIAAhEBAxEB/8QAHgAAAQQDAQEBAAAAAAAAAAAAAAEFBgcECAkCAwr/xABuEAABAgQDAwUHDAoJEQYFBAMBAgMABAURBgchCBIxExRBUWEXInGTlNHSFRYYMlJXgZGVobKzIzU2N0JVVnN1sSQlM1NicoKSwQkZJ0NERUZHVGNldIOEorThJjRko8LTOGZ2hZakw+Lw8Sjy/8QAHAEBAAEFAQEAAAAAAAAAAAAAAAECAwQFBwYI/8QASxEAAQIDBAQJCQUGBgIDAQEAAQACAwQRBQYSITFRU9EHExdBYXGRkqEUFRYiMlKBscE0QlRyoiMzYsLh8DZDRIKy0iTxJWNzNZP/2gAMAwEAAhEDEQA/AOqcEIo7qSrqF40yn9vPE0pPTEonL6lqSy6tsEzjmtiRf2vZG9sS7lo3hL22ewOwUrmBprTSRqWitq8dn3fDDPvLcdaUBOildA6VudBGlfs/MT+95S/LXPRg9n3ib3vKX5Y56Mb/AJNbx7Ed9u9aHlJu7tj3HblupBGlfs/MTe93SvLXPRhPZ94n97uleWuejDk1vHsR32705Sbu7Y9x25bqwRpV7PvE/veUryxz0YX2fmJ/e8pflrnow5Nbx7Ed9u9OUm7u1PcduW6kEaV+z7xN73lK8sc9GD2fmJve7pXlrnow5Nbx7Ed9u9OUm7u2PcduW6kEaVez7xP73lK8tc9GD2feJ/e8pXlrnow5Nbx7Ed9u9OUm7u2PcduW6sEaV+z8xP73lL8tc9GD2feJve8pXljnow5Nbx7Ed9u9OUm7u2PcduW6kEaV+z8xN73dK8tc9GE9n3if3vKV5a56MOTW8exHfbvTlJu7tj3HblurBGlXs+8T+95S/LXPRhfZ+Yn97yl+WuejDk1vHsR32705Sbu7Y9x25bqQRpYNvzE5/wAXdL8tc9GE9n1if3vKZ5a56MOTW8exHfZvUcpN3dse47ct1II0rG33ici4y8pflrnowez7xOeOXVL8tc9GHJrePYjvs3qeUm7u2PcduW6kEaV+z8xP73lLH++OejB7PvE9vve0vy1z0Ycmt49iO+3enKTd3bHuO3LdSCNK/Z94oGnc7pflrnmhfZ94n97yl+WuejDk2vHsR3271HKTd3bHuO3LdOCNLPZ94n97yl+WuejCHb7xP73tL8tc9GHJrePYjvt3pyk3d2x7jty3UgjSsbfeJ/e9pflrnowvs+8T+95S/LXPRhya3j2I77d6nlJu7tj3HblunBGlfs+8T+95Sx/vrnowez7xN73dL8tc9GHJrePYjvt3pyk3d2x7jty3UgjSs7feJ+jLyl+WuejANvvE/veUvy1z0Ycmt49iO+3enKTd3bHuO3LdSCNKzt94n97yl+WuejANvzE/veUvy1z0Ycmt49iO+3enKTd3bHuO3LdSCNK/Z94nP+Lyl+WOejC+z7xOP8XlL8tc9GHJtePYjvt3qOUm7u2PcduW6cEaV+z8xOeGXlL8sc9GA7fmJxwy8pZ/31z0Ycmt49iO+3enKTd3bHuO3LdSCNKvZ+4o97ul+WuejB7P3FHvd0vy1z0Ycmt49iO+zep5SLu7Y9x25bqwRpV7P3FHvd0vy1z0YPZ+4o97ul+WuejDk1vHsR32b05SLu7Y9x25bqwRpV7P3FHvd0vy1z0YX2fmJ/e8pfljnow5Nbx7Ed9u9OUm7u2PcduW6kEaV+z7xP73lL8tc9GF9n3if3vKX5a56MRybXj2I77d6jlJu7tj3HblunBGlfs/MT+93S/LXPRg9n3ib3vKV5Y56MTya3j2I77d6nlJu7tj3HblupBGlfs/MT+93S/LXPRg9n7if3u6X5a56MOTW8exHfbvTlJu7tj3HblupBGlfs/MTnTueUvy1z0YPZ+Yovbud0vyxz0Ycmt49iO+3enKTd3bHuO3LdSCNK/Z94p97yleWuejB7PzFHvd0ry1z0Ycmt49iO+zenKTd3bHuO3LdSCNKjt+Yn97ul+WuejC+z7xP73dK8tc9GHJrePYjvt3pyk3d2x7jty3UgjSsbfeJ/e7pflrnowez6xPbXLyleWOejDk2vHsR3271HKTd3bHuO3LdSCNKvZ+Yo97ul+WuejB7PzFHvd0vy1z0Ycmt49iO+3ep5Sbu7Y9x25bqwRpV7PzE/vd0vy1z0YX2feJ/e8pflrnow5Nbx7Ed9u9OUm7u2PcduW6kEaV+z7xR73lL8tc9GF9n3if3u6X5Y56MRybXj2I77d6jlJu7tj3HblunBGlfs+8TD/F5S/LHPRg9n3ie9hl5Sz/AL456MTya3j2I77d6cpN3dse47ct1II0r9n3ifj3O6X5a55oX2feJ/e7pflrnoxHJtePYjvt3qeUm7u2PcduW6cEaV+z7xOP8XlM8tc9GD2feJ7fe9pnlrnoxPJtePYjvt3pyk3d2x7jty3UgjSv2fmJx/i8pflrnowDb8xP73dL8sc9GHJrePYjvt3pyk3d2x7jty3UgjSz2feJ+Pc8pflrnowez7xPw7nlL8tc9GHJrePYjvt3qOUm7u2PcduW6cEaV+z7xP73lL8sc9GD2fmJ/e7pflrnow5Nbx7Ed9u9Tyk3d2x7jty3UgjSv2fmJve7pflrnowez9xN73dM8tc9GHJrePYjvs3pyk3d2x7jty3UgjSv2fuJve7pnlrnowez9xN73dM8tc9GHJrePYjvs3pyk3d2x7jty3UgjSv2fuJve7pnlrnowez9xN73dM8tc9GHJrePYjvs3pyk3d2x7jty3UgjSv2fuJve7pnlrnowez9xN73dM8tc9GHJrePYjvs3pyk3d2x7jty3UgjSv2fuJve7pnlrnowez9xN73dM8tc9GHJrePYjvs3pyk3d2x7jty3UgjSv2fuJve7pnlrnowez9xN73dM8tc9GHJrePYjvs3pyk3d2x7jty3UgjSv2fuJve7pnlrnowez9xN73dM8tc9GHJrePYjvs3pyk3d2x7jty3UgjSv2fuJve7pnlrnowez9xN73dM8tc9GHJrePYjvs3pyk3d2x7jty3UgjSv2fmJj/i7pflrnoxt9hSsuYiwxSK+6wlldSkWJtTaTcILjYUUg9Nrxo7auvad3msfaDA0PqBmDo06CVu7FvRZl4HvZIPLi2hNQRp6wE7QQhNoCdL2jz69AvLv7mv+KY5GVZRVVZ1R4mYcP8AxGOubv7kv+KY5F1T7Zzf59z6Rjs/A/8AvZvqZ/MuM8LvsSvW/wDlWNBBBHcVxJEEEEERBBBBEQQQQREEEEERBBBBEQQQQREKEk6AE30FoAItrZbwnT8Y500WSqjCHpaQQ7UFNL4LU2O8v4FqSq38GMC1J9tlyUWceKhjSadSzLOkn2jOQ5SGaF7gO1WBlDsXVjFdOl8QZh1OYosrMpDjMjLpHOlJPArKgQ3cWNrE662Ii7EbGWRrcmZZdLqS3CP3c1BwL8PG3zReqUBKQnqjQfanzUzHbzZq+GpfElTpdLphZRKy0o+tgLSptKitRSQV3JOp4WsOBjgdl2teK+1pGDBmjCyLsiQABzADM6edd3tSybv3Ks1saNK8aSQKnMk/HQFbs3sH5eOTyJiQxbXWZbfCnJdZaXdF9UhW6CL8Lm8VDtY5G0TK6p0qu4Ok1S1FqaTLuS++pYZmEC9wVEmyk62vxSeuI/lttTZp4Cn2vVCuTOIaVvAOydQdLq924vuOq75JtwuSOyL2z6zHy8zg2c57ENFqTPOJWZlXW5V9aUzDEwHEpUgpvx3Fr1FwQbi8eihNvRd62pY2jFMWA52GoqR62WY1jTnqyK85Fddi37GmfN8IQo7RiodPq6jq6uxax5TZNYxzjq0zTsLplmmJFKVzU3MrKW2t6+6NASSbGwA6De0bK4e2CsMNJbVijHNTm3BZS0STLbCD2XVvm3R0Rq7ltmpjXKuqqqWD6pyAmCgTMu4gLZmEpvYLSeq51FjrxjqJSZgzdNlZxSd0vsNukdRKQbRVwjW3b9jTLWwIwZBf7OH2sqVqSK8+VCp4O7DsK2ZdxmIRfGZ7WL2c60oB41VMyWx9kPTGN2bw9NTYTqXZmovA/DuqSPmj4NbN2zFPOrk5WjyDj40KWqy8pYPg5UxGNurElZpOEKDRabPvS0tVZx3nYaWUl1LaBZBI4puq5HYI0iSpTag4hakqSbhQNiD1xhXZu9bV5JEWjEtF7MRIAq46Ms/WHOsq8tu2LdyfNnw7PY/CASaAac8sit28W7C2BKgy4/g7EtUpMwUncbfImWb9twF/8UavZo5J49yknEtYppoVJOK3WKhLHfl3Ta9geKT2KAPVeLx2VNpCter0plrj2qrnZWfUGabOzK95xp38FlSzqpKuCb6gkDgRbbrEmG6Ji6iTWH8QU9mdkJxstvMupuCOvsIOoI1BGkWHXovBcm0BJ2q7jofTpLdbXaa9Bqshl17BvpZ5nLKbxMTUNAdqI0U6QuS50GkbgYF2RclMf0KWrFAzMrdRC20F8yr8tZtwjVJSWipJ7DrGvudmV03lHj2cwu4pbskoCZp76hYuy6ibX61JIKT2i/Axa+wk86Mz6zLpdWGnKKpakA96oh5sAkcCRc2PaeuPc3unI81YYtiyplzA0YsvvA0FDqIXhrqSkCXtzzTakuHlxw5/dI5x1qzjsFZa/ljijxsv/wCzFP7QGQ2U+UdBvRcwKjN4iU82lumTTzDilNk98opbQlSQBrc6dHTG/So5d54rU7nFjJxxRUr1Zmk3JvoFkAfNHibg2lbFv2lhmJt+CGMRGnFmBQ9C9vf6zLHsCzgZaUbjiHCDn6uVajpUHIsISFJvCR3hcOCNeuLTyd2d8cZwL57T0pplFbVuuVKZQSlRBsUtJ4uEfAntvpDXkdlfMZtZhSOGLrRII/ZVRdQbFEuki4B90olKR1b1+iOmFIo9Lw9SJai0eSalJGRZSyyy0kJQhCRYAAdgjmV/L8PsAiRkacc4VJOeEc2Ws+C6Rca5TLfrOztRBaaAe8evUFr5RNhzKqny969Wa7UXbXU4ZhDCAewJToPCT4YKnsQ5P1JFqNXK3IOJ1JbnEPA9hC0n5rRSe09n7XsZ4tqGDcPVV6Vw5SXVSqky7m7zx5Jstayk6pChZI4aX6dKWoOLcUYXqKKph3EFQp00jg5LvqST2HWxHYbiNXZl3L1WhKNnoloOY9wqGmtKHRWmQ6qGi2NpXgutITTpKFZ7XsaaF2g5aac57VuhV9ifL1jAc9TaK9Ov4jDSnJWpTL5F3QLpQUJ7wIJFjpex4xo2+y7LPOS76FIdaWULSRqFA2I+ON3MgdrWnYqSzhTMyZlqdVkp3WaishqXm7Dgu+jblh2JPRY2EatZ4eoKs28VOYZm2JmnPVBbzTrCgptSlgKXukaHvyoaRsbjzFtytozNmWyXONA4E5jTTI6KGujoWuvpBsSZkJe0bGwtBJaWjI6K5jTUKCwQHSCOoLm6IBx1ggBsbwRTbLnJvMDNSYWnB1EU/LNOBt6deUGpdlWmilHiQDeyQT2RfGH9gqvPJS5ifH0nLdbUlKKdP89ZTb+bEM2Xs9sRYFxBTMukU+UnKNXaq22reBS8w48Uo30qBsRwJBHgIjoCE7oEcSvxey8Viz5loZbDhnNpABJGsk1oeigXZ7j3TsC25HyiKHRIjcnAkgA9FNI+K1fl9gnAaW/2bjfES19bQYbT8RQr9cfKf2C8EOS6hSMd15l+x3VTKGXUA9oShH64YttTNbGdDxVTsBYfrEzS5FdOTPzC5R1TTj6luLQEqUnXdAb4A67xvewisshNofF2AsWyMhiCvzdQw7OvJYm2px8uCWCjYOoUokp3SbkDQi/TYxakZW+E9ZQtiDOkkguDOcgfClehTPTN0JK1TZEWToAQ0v1E/GvxWLmjsuZk5ZyztXDDVcpDIKnJuSSd5lI6XGzqkW6RvAdJEU8BvXO9YW4x123G5lrUBSFp4cQQY0G2ucmaflxiqWxLhuUEvRq8pZUwgWRLzQ1UlI6EqHfAdBCraWjb3Jv/ABrYjizbSA4w+y4ZVpzEa9VFq76XChWPA85WcSYY9ppzpXnB5x1qwMD7ImSuPKJL1jD+ZtbqKVtoLxlX5azayLlKkFoqQexWsSM7BOWyRcYxxT42W/8AZit9g5xwZkV5gOKCF0bfUkHQkPIAJHZvH4zG8ak6Xjxd6rZtywLUiSLJ17gKEHRpFafBezunY1iW/ZbJ2JJsa41BGZ0GlfitAtoHIjKfKKhb1Dx/UJzEan20opc08wtRaPtlFKEJKbCxBJ14dMV7kxhDAmOMY+oOYGK3aBIuSylMTDbjbZcfCkhLe+4kpFwVHXjaGrNR9+YzPxe7MPLdcNdnk7y1XNg+sAeAAADsiL3BvfhHZrJs6dfYogxZpxixGg48qtqAcugLjdqT0o21zFgyzRDY6mDOjqGmfWt4Gtg7LJ9CXW8aYpUhQ3kkOyxBHZ9hj5TuwvlXT5ZycncdYkl2GUlTjrr8qlCAOJJLVhFubO7rj2SmDlvOFajSmhdRubAWHzRFNslbjeRVVDbikhU3KJUEm1xyydPmEcMlbevBHtVtm+WPFX4K/GlaLuEzYFgQLJdafkbTRmOnwrSq0azKoOEcNY1qNEwNiFyt0eVKEszqyklxW6N8byQEqsq4uBaIweq8GghDaPpWVgul4DIT3l5aAC46T0nrXzjMRGxozojGhoJJAGgdA6lJstcETeY2OKRgyTeLKqk/uOOhO9yTSQVLXbsSD8MblT2w5lQ/SOayNSrktOpQAJrnIXdQ6Sgp3dekC3ZaK52EMGc7xBXsePouiQZTTpfq5Rwhaz4QlKP50bpWJGhjhfCBe6fl7Y8kkIxY2EBWh0uOZrrpkF2+4F0pCbsnyufhB7ohNK8zRllqrmuTGK8OT2EMS1PC9TIM1SppyVcUkWCik23gOoixHYYao2O23MCqoWYsnjCXZSmVxBLbrih/lLNkm/hQUfEY1xItHYLuWoLZsuDO1zc3PrGR8VyO37NNj2lGkuZpNOrSPBAi6ckNmPFObbKa9OzPqNh4L3RNKb3nZm3HkkmwsDpvE26r6xVeFqMMS4mpOHlOlpNTnmJRSx+CHHAkn546t0WkSNCpMnRqYwhiUkmES7LSBZKEJAAA+AR5DhDvZM3fhQ5aSyiRKnFqA1dJXreD+6kC8MZ8xOZw4dMtZOvoVIUfYsyVp0qGZ6WqtTd3bKemZ5SCT1gN7oHxQzVzYWyyn1Fyh4grtLPQjlG30fEpO9/xQzba2Y+OsKzNAw9hurTtJkJ9l5+YmJVam1urCgA2HE2IAFyQCL70a6YQz+zdwXOtzdMxrUZppCt5crPvqmWVj3JCySB/FIPbHlLDsm9dryAtSWnyC6tGlxzp2gdi9RbdqXVsmfNlzEiCG0q4Ac/YT2q78/8AZZwrgPKZnEODW5p2oUIpVUX3FlSpxlZAW4pPBJSbHSw3b8dI1twBSMNV3GNKo2L64ukUabe3JudRYFkbpsbqBAuqwuRYXvG7+Cc/cB55Zd1ugVyaYolUXTH2p+UmXAEhCkFJdbUfbI18I6egnQC1juhW8Og9fbHq7kR7VmZWbsy03ObGYfaOkYgcwTkaEVHNmvKX0gWVLzMtaFlhroLx7I0eqRkRpFRkedbs03Ybymq0o1UKbj3Ec1LPJ32nmZmVWhaesEM2MZCtgvLXoxlinxst/wCzDpsOTExMZOzKHXlrSxWplttKjcITybSrDqFyT8MWtnFOzlLyrxbUqdMuS01LUabdZebUUrQoNKIII4EHpjl0/b1vydqPs0Trzhfhr8aVounyFg2BN2Sy0nSbRVmKnwrRUarYXypCt1WPcRpI0IMxK/8AtR9kbBuWSwC3jXFCgekPSx//AGo0lVOTbii45NPKUo3Ki4SSesxMsvM5Mwssqiifw1X5gs713ZGZcU5LPde8gnQ6DvhY9sdJmbq3phwi6XtMudqIpX41K5zLXnuw+KGzFmhrNYNSPhks3PTKCcybxmqgKmnZynTTQmafNOJAU43wUlVtN5J0NusHS9oZMuctsV5o4hbw5hWR5V0jfffWSGpZu9t9augdQGp6BE/2gc/KXnXS8OJYw09TZ+lh4za3HApJUsJG62RqU97fUC2nbGzWxlhCm0LJ+VxAwgGdxA+7MzLhGtkLU2hAPUAm/hUYv2jea07Au0yYnmUmicGevP1jToFelY9m3bs68F4ny0i//wAYDFlqy9UV6TRMGD9hvL2msNvYwrNTrU0UjfS04JdgK6d0JBV8avih4rWxRkxVGyimisUly1guWnd+3wOBQiw89cT1/BuVOIsR4ZSfVKUlrsrDe+W95QSXLfwQSrXTTXSOd7ObuakvUDVGsxcQiZKiorNQdIPhSTukdlrR4u7cG897GxJ2FPFmE0oSaE6dAyA+C9peOLdq6b4clEkQ/EK1y0aNJzJW3tG2IMt6XT6qxUqrUatMTjBbk3nrNmTVY2WkIIClXt7bSwtbUxpFXaLO4crdRw9Ukbk3TZp2UeH8NCik/BpG3GRG2KalMsYVzadZaedUGpesoSEIUrgA+kaJJP4QAT1gcYpfauapCc76zN0eeYmWp1mWmXCysKSh0thKkkjpskK/lR6q6ExbsjbUazrac52JuIE5t9XLI6KEHPRnpzXlb2wLBnLHg2hYoDcLsLm6HZ55jTkQqggggjqq5kiCCCCIggggiIIIIIiCCCCIggggiIIIIIiCCCCIvHVjK9RVlphRXSaLJH/yURynjqvlabZZYT/Qkl9QiOOcMH2aV/M75Bdf4I/tU1+VvzKlBHZB0QXEFwY4Uu6Ly7+5L/imORdU+2c3+fc+kY66O/uS/wCKY5F1T7Zzf59z6Rjs/A/+9m+pn8y4zwu+xK9b/wCVY0EEEdxXEkQQQQREEEEERBBBBEQQQQREEEEERBBBBEoIEWJs/wCPpPLbNajYlqZKZAqVJzax+A06N0qPYk7qj2CK6hQeiMO0JKHaMrElIvsvBB+IWVIzcSQmYc1C9phBHwXXeVnJWdl2pmWeQ8y8gLbcQd5KkkXBB6QYrfOfIPCGclO/bRHMqvLtlMpUmUjlG+JCVD8NF/wT22IMajZEbUlfytSxhrEiHavhlJshF7zEmCeLZPtkj3B+Ajgd5cEZgYTzEozdcwlWGJ+WUAFbh79pVr7q08Uq7CI+Y7XsC17mTgjtJAB9WI3R8dR1g+K+lbIt+yb5yZgRQC4j1mO09Y1jUQuc+a2RmO8opy2IJHnNMcUUsVOWSVML6gr97VrwVbsvFd2SVbxSLjptHXGqUqn1qReptVkWJuUmUFt1l5sLQtJ4gg6GNEtpbZqOVyzjDB6HXsMvuBLzClFa5BZNgCo6lsk2BOoJAN7iOpXO4RGWs9shaYDYpya7mcdR1HwPQuYXw4Pn2Qx09ZxLoQ0jnaPqPFa+I9sPCI63Yd+0FN/1Rn6AjkkjUpPaI63Ye+0FN/1Rn6AjVcMGiU/3/wAq2/BD7U1/t+q1b2+/tNhH/W5n6CI00VG5e339p8I/63M/QRGmiuuPW8Gn+HYXW7/kV5HhH/xDF6m/8QvpKTcxITTE9KOFt+WdQ80sGxStJBSfjAjq3gSvjFeC6HiUWT6q09ibsBaxWgKOnwxygA0vHTLZudceyQwgt0kkU5CQT1AkD5hHm+F6Wa6VlpjnDiPgRX6L0nBJMObOTEvzFoPxBp9VU+3fhSXm8GULFyEWmabPmTUR0tPIJN/5TafjPXFbbCX31av+hHPrmovfbSSk5GT6ja6Z6TI8cB54ojYT++tV/wBCOfXtRq7Ijui3BmWOOTSQOqrT9VsbYgNg39lntHtBpPXQj6LexUcss5FqczaxmtZ19Xp5PwB9QHzCOpquMcsc4fvr4z/T9Q/5hcWeCIf/ACEx+Qf8gsjhcP8A4UsP4j8lD4UQkKmO+LhJW7OwhhZqUwdXcXOtJ5epT4k0LtryLKQbfzlq+IRsDmLXfWzgPENfCt006mzMyk26Utkj54rPY3QhORdKKUgFU1NlRHSeWUP6BEu2gt/uK4z5Pj6jzPxbhv8ANePla8DzP3oiiLzxcPwDgPkF9QWAxsjdaGYWVIRd8SCfmuYilFVytRUom5JNyT1mPIOt4CLGCPqhoDQAF8wE4jUr1cQl9B2QkESooiCCCCIggggil+T332MG/p2R+uTHU8gbscsMnvvs4N/Tsj9cmOp59rHA+F3/APoS/wCQ/wDJd34I/sUx+YfJaFbc334pC/5Py/178a7XNjGxO3PrnFTxxJoEvYf7d+Ksy3yjxpmZXpSj0SiziZV9aQ/PLYUGGGr98srOhNr2F7k6R0S6c7LSN2JeNMPDWhhJqekrnV6ZOPO3kmIUuwucX0yHQF0ly6m3p/AOG52ZUS6/SZR1ZPEqU0km8Udt2BruWUgqtygrjW5fq5F28bDUiQYo1Kk6VLAhiTYRLtj+ChISPmEaa7cuYUnVq7SMvqdMIdFICp2e3VAhDy07qEHtCCo+BYjidy5Z8/eSC6CMmuLj0AZ/0Xar6TLJG7URkY5loaOkmn/tYOwd982u3/Eavr243lWqyTbWNGtg4f2Tq720RX17cbzKSACYyeEz/EUXqb/xCxuDP/DzPzO+a5r5n5O5rKzGxRMMZd4gmWJmrzcyy9LSDjzbjbjqlIUFIBBuFA8dOBsYi/cezavu9zDFdz/oeY9CNv8AFG23gfDOI6nhz1pVuaXS5t2TceSWkpUttZSqwKr2uDaGo7fOCje+Ba6NP3xn0o95I3ivgyVhthWeC0NFDnmKZH2l4Kcu/dJ8zEdEtAhxcaimg1zHsq68jaNU8P5S4WotZknJSdlKc22+w4LKbVbge2IRtmfeLqX+uSn1qYtTBGK5DHOFKZi2lsvNSlVl0TLSHQAtIPQoC4uPCYqrbM+8XUv9clPrUxy6xHxIt44L4oo4xRUajizHauqW0yHDu1GZCNWiEQDrGHIrnoYIDEjy6wo5jnHdCwk2FFNTnW2Hd3iGr3cPwICj8EfVMzMMlYD48TQ0EnqAqvluXgPmYrIMPS4gDrJot6cjpKRyZ2cpfEVaaDSkyTtcntO+UVjfQn+Nucmm3WLRYOUmPWczMvqRjJtDbTs8z+yG0G6W3kkpcSL62Ckm1+i0UntrYzYwzlzTMv6c6Gna28lLjaNLSrFiR2Aq5MdoBER7YNxoopxDl/MLHeFNUlgT0GyHAPhDZ+Ex82zVhRbTsOPeOJ7bohP+2tD4nwX0VJ27Dsy25e7kP2Gww3/fSo8PmrU2t8CnGeT1RmZWX5SdoK01Ri3HdRo7/wCWVm3YI52EdIjrrPSkvUJF+Qmm0uMzDamnEKFwpKhYgjwGOV2Y+EX8B46rmEHkrApk4tpor4qavdtXbdBSY9pwSWrjgxrMec2+s3qOR8adq8fwsWVxcxBtJgycMJ6xmPD5JootWmKDWJCuSVuXp001NN9RU2oKH6o6n4ExnRcfYVp+KaDOJflZ5lK9Dq2u3fIV1KBuCOyOUY4RYmTueOL8mqquZoi0zdMmlAztNeUQ29b8JJ/AXbTeHZcGPSX9ujEvJLsjSp/aw60B+8DpHQdS83cS9jLtzLoUyKwolKnnBGg710PzBy5wpmZQXcOYspqJqWX37axo4w5awW2rilQufjsdDGjmcuyrjfLITFZom/X8PtHeLzCDziXTf+2tjUgaXWnTiSExuPlRnjgTNyQS7h6oBqoto3pinTBCZhnrO7+Em59sLjwRYS0JcSQtIIULEEcY4xY147XuZMmXIIaD60N2j4aj0jxXY7Yu5ZF8pYTLCC4j1Xt0/HX1FchilKjcgadcIBY2jc3aW2WJOdlZzMDLenpYnmwXp6lsp7yYSBdS2kj2qxqSkaK8PHTM8dI+iLuXjk7ySvlEsaEe006Wn+9BXz7eC783d2aMtMjI+yRoI/vSFvlsK/efqB/07MfVMxcmZ1CnsU5d4kw3SwkzlTpczKsBSt1JcW0pKbnoFyIprYVB7kE+P9PTH1TMXri3EEphLDVUxRUG3HJakyjs48lsAqUltJUQO0gR833kdEZeOYdCFXcaaddcl9F3cbDfdqA2MaNMPPqpmufTOyNn06Sk4PaRu+7qEuL/APHECxzl3jHLWrIomM6M5ITLrfKtXUlaHEXtdK0kg66EXuI2rl9vnDJUvneXtVQgH7GW5ppZI7QbW+eKG2gs8U52V+nz0pQ1U2RpTK2mEuuBbrhWQVKVbQe1AAF+nXXTtt3rUvZNT7YdqSzWQaGpGVMsvvHnXFLwWZdaWkTEsuZc+LUUB8fuhVSTYxvRsU5lU2sYCVgCZfQ3UqA4tTbRV3zss4sqCx12UopI6O9vxjRfvb3hyw9iKtYTrMriDDtRdkahJrDjLzZ1HWD0EEaEHQjQxvL23ebeWzjKA0eDVp6Rr6DoWlureB127RbN4atIo4dB3LrLMy7M5LuSsw0hxp1JQtCxdKkkWIIPEWjUvOvYvRMuTGJMpVtMqUS47RnlbqCT+8rOienvDp1EDSJVkjtfYcxmljD+YK2KJW7BCZgqCZWaNuIJ/c1H3J06j0RsclbbiQpJBB4dsfPEKPbdx54jNjucHNrh8iOnSvoKLBsS/UkDk8cxGTmn5j5LkfVaRVaFUHqTWqdMSM7LqKHWH2yhaD2gxiABIskAAdAjpfnRkThLOGkqRUGUSdYYQeaVJpI5RtXQF+7R1pPwWOsc7Ma4Mr+X+JZzCeJJQsTskrdJGqHEH2riD0pI1HnEd5ulfOVvPDwEYIzRm3o1tPOPkuF3sufNXZiYq44Ljk76Hp+aYoIII9qvHIggggiIIIIIiCCCCIggggiIIIIIiCCCCIggggiI6r5W/eywn+hJL6lEcqI6r5W/eywn+hJL6lEcb4YPs0r+Z3yC7BwRfapr8rfmVKIWCE+GOFrua8u/uS/4pjkXVPtnN/n3PpGOujv7kv8AimORdU+2c3+fc+kY7PwP/vZvqZ/MuM8LvsSvW/8AlWNBBBHcVxJEEEEERBBBBEQQQQREEEEERBBBBEQQQQREHReCLS2aMN4ZxZnDR6FiymN1CRfbmFCXdPeKcS0pSd4dI04ddowbSnmWZJxJx4JDASQNJosyQk3WhNQ5RhALyACdGaq4Xtxh9wdjjFWAKy3XcJVqYp0237Ytm6XB7laD3qh2ERee0BspV3CdRmMU5cUx6o0GYUp1yRZSVPSJOpCU8Vt9VrkcDoLxrgttxpamnUKbWg2UlQsQeog8I19m2tZt55PHCIe1wzaaVHQR/fQs60bLtG7c5gjAse05OFaHpBXR7Z4z2lc6MPPqnJVEnXKWUonpdB7xQUDuuo6d1VjodQQRroTZtdolOxDSJyiVaVTMSc8wuXfbULhSFCxHzxplsIUasLxxW8QolHU0tumGUW+RZCnlOoUlAPSQEknquOuN3VKSkEk2EfN977Ol7FtqJLyJ9VtCM/ZJFafAr6MudPzFtWJDjT4q41BrzgGlfiFygxxhleDMaVnCbjhc9SZ92VCzxWlKu9Ue0ixjqlh77QU3/VGfoCOaWcUy9jHO/EqqKyZxc5WVy0shgFRdKSGxu2433Y6YUdhyVpElLOiy2WG0KHUQkAx7HhKjvjyNnOjH1ywk68w1eP4NYDYM9aDYQ9QOoNWRctWNvv7T4R/1uZ+giNNDqY3S2+JOadw1heoNS61y7E6+h1wJulBUgbtz0X3T8UaWXB1uI97waOb6PQxXQXfNeD4R2kXgikjSG/IL13yjuISVKVokDiT0R1Oyjw87hHLLDWHZlstvyNMl230n8FzcBX/xExpvst7PtVxpiSUxxiqluy+HaY4mYYDySkzzyTdISOJQkgEngdAL623krNZpWHaTMVitTrMnJSbZdeedVZKEDiTHguFG3YNpTEKzJQ4sBJNM/WOQHWPqvd8GFixbOl4tqTYwh4AFcshmT1H6LXnbrxRLSGXlKwql4c6q1RS9uDiWWUkqP85TcVXsJn+ytV/0Gv69qK0z6zYmM3sfTNea30UuVTzSmtKOoZST35HQVnvj2WHRFlbCWmatXv8AiNz69qPQPsWJYdxY0CNk9wxEaiSMvgKfFefZbLLcvxBmIRqwOwt6QAc/iare1XGOWOcI/ssYz/T9Q/5hcdTlcY5ZZxJU3m1jNC0kH1enjY9r6zGg4IiPOEx+Qf8AIL0PC4P/AApc/wAR+Sh0KNIQ2va4i1ckdn3FWcc8ZlouUygy5IfqTjd0qUP7W2DbfV1ngOnWwPbrRtKVsqAZmceGsHOfoOc9AXFZCz5m1I4lpRhc48w/vJbJbCuIkT+XNVw645d2lVNSwm+vJupCgf5wX8UXrmNRDiPAWIKClG+Z+mTMulPWVNqAHxxofkpj6WyHzuqFOmKmJqguTj1GnpoaJLaHSluYt/BIueNgpVo6GMTDE5LJfZdS406kKQpJBCgekHpj5wvzIvs62jPwx+zi0iNPXQkdYPzX0Rcafh2nYnm+If2kIFjh2gHqouQ9lcFAhQ0IIsQYIvnagyHrWAcWz+L6JTXJjDdWeXMhbLdxJuqN1NrA9qkqJKTw1txGtDpAUQE6lXADiY+h7HtiVtiSZNwHAgjPoPOD1L5+taypmyJt8pHaQQcukcxHWkgi8soNlHHWY62qrX0O4doSiDyz6P2S+n/NNnh/GVYaggGG3aWylwnlBi2mUPClSmphE3Ic4mGpl1K1tLC90G4A0VYm3YYw4V6bMmLSFlQImOIQTlmBTWdFVlxbt2lL2cbTjQ8MOoGeRNdQ00VPwQHjBHoloUQQQWgil+T332MG/p2R+uTHVD8GOV+TwPdYwb+nZH65MdT76aRwLheP/wAhL/kP/Iru/BH9imPzj5LVbOXMbDGV21BTcQ4soqp+UVhdphK220rcllqmHjyiUq4mwI43sTbqMyVtkZEty4dTW6gpXuBTHt6/823zxQO3Of7MUhr/AHgl/r3413uemN7YdxbNvDZErNzLnh2CmRFMieYgrQWzfa0bv2tNSsqGFuMnMZ5gc4IW2+ZW3IJuRdpuWFDmJd51Kk+qNQCQWu1DQJBPTdR09yY1Pn6hO1WcfqVTm3ZqbmnFOvPOqKluLUbkkmMcwWPVHQrDu1Z13mFkiyhOlxzces/QZLwdtXitC33h88+oGgDIDqC2Y2DfvmVz9CK+vbjedXtTGi+wbpmZXb/iRX17cbzq9rrHA+EvO8UXqb/xC7vwaf4eZ+Z3zXKfNAWzMxf+nqh/zC4jI4GJNmhrmZi/9PVD/mFxGugx9F2V9ggfkb8gvnm0/tsb8zvmV022dR/YRwb+i24im2b94yp/67KfWpiV7Oh/sJYOv+K24im2bYZFVM9U5J/XJj5ls7/FTP8A9/519LT/APhR4/8Ap/lXPQC8bM7DWC/VXHNVxtMJuxQ5QSzJKf7e90g9iEqH8sRrMNOPCOgmz9h/uRbPa8QVOWDU0/KTFdmknRVijeQk34Hk0o+G8dq4R7SMnY5lYZ9eMQwdXPu+K4tweWd5Za4mHj1IILz1jR45/BV/WKDgzaL2i8R0TFtecYkMKSrclIysu8ltUytKjy5ude9WSDbX2uukW3l5s95WZVYkTibDUxON1Asrlxy89vpKFW3hu6X4COdM3UZqeqD9VeeUZmYeW+pwGx31KKib+Ex83JmbfWHXZl5a08FqcJI8B6I1s1cS0JiXZKwJ0w4OANLKZVpnzitTUlZ0nfiSlph81Hk2xI2MuD655nLm5hkuuqSFC6bW6I0n26sDCm4ro+PpVopaq7BkpkhPeh5rVBJ61IJH8iNjdm/GZxxk9h+qPTBempZjmE0pRuous94Se0gBX8oR89pbAL2YWUlXpUiyXahJpE/JJSLqU41326B1qTvJ/lRye7c2+7N4mCMaBrix3UTQ711m8soy813XOgipc0Pb1jP+i5p264XhqDeHKgS8k7iKnSlaacEoueZam27lCuTLgCxfik2v4I23z+2R5SoyTWKMoKUxLTLDIRMUls7qZhIGi2ydA51gkBXG9+P0Lat6JGxpuBKzZoIoNHfdFKaeuulfPtmXbnbXlY0zKiphUq37xrqHQtPqbU6hR59mqUmfmJKcl1BbT7DhQ4gjpBGsbsbMG03UMfTqMAY7U2qtBoqkp5KQkTgSLqSpI0CwkXuNCL6C2ulNTpVSoc65Ta1T5mRm2VFLjEy0W1pI6wYsLZuolbrec+GDRGHVcxnEzUy6hJ3WmEg75UegEd74TGuvlZNnWxZMSYjUqxpc1+XMKjPnB1LY3Qta0bHtWFAgVo5wDma6mhy1jWul5SFJIIvfsjnNtV5fyeAc3J1FLZSzIVppNTZaTwQpalBwDs30kjq3rdEdGRoixOsaJbclblKlmlTaTLOIUul0pKXrcUrcWpW6f5O6fhjkXBdHjQ7dEOGfVc12L4ZjxXW+FGBBfYnGv9prm4fjp8Fcmwt96CoX/Hsx9UzFp55D+w7jT9Bzv1KoqzYXsMn5/wDT0x9UzFp55a5PY0A4+oU6f/JXGntz/FMU/wD3fzBbWxf8Jw//AMf5SuXPVBANQLdUKBra0fVNaCq+X+hJbS8FtbdMXZR9l/EjmVNZzPxZUvUFuRknJySknmSXH0JTvAr1uje4JFidb26DZ+T+z7gDNfZ3lJlmURJ4kmHpgmqDv3G3kOqCUqF/abu7dItob8dY8hP33sqRhmMHF7WvDHFoyaSCa15wKc1V6qRudak7FEHCGOcwvaHaSAafAnpWo1hbWLwyK2n8WZZzsrQ8Qzb1WwwpSW1tPKKnZNJPtmlHUpHuDp1Wiu8wcq8c5Y1Nym4toj8ukLKWppCSuXfAPtkOAW142Nj1gRE2W3H3EsstqdWshKUJBJUTwAA1MbOdlbLvLIlsXDEhkZGoy6QeYrXSU1aV3Z0OhYmRGnMZivQRzrrlTp6UqkgxUZF5L0tNNpeZdSbpWhQukg9oMa27cGXsrU8ESmYMvLpTPUR9DD7g4rlnVBNj12cKLdQKoufJWlVWh5U4VpNdC0T0rS2G3kLFlIO6LIN+lIsD4Igu2JXZWlZH1WTdUkvVSYlpRhJ6VcqlZ+JCFH4I+bLtviSN4oDZV1aRA2o5xWh7Qvo68jYc/duM+abSsPFnzOpUfEFc8VcYSA6QR9YL5YRBBBBEQQQQREEEEERBBBBEQQQQREEEEERBBBBER1Xyt+9lhP8AQkl9SiOVEdV8rfvZYT/Qkl9SiON8MH2aV/M75Bdg4IvtU1+VvzKlMEIb9EGvSY4Wu5ry7+5L/imORdU+2c3+fc+kY66O/uS/4pjkXVPtnN/n3PpGOz8D/wC9m+pn8y4zwu+xK9b/AOVY0EEEdxXEkQQQQREEEEERBBBBEQQQQREEEEERBBBBERI8usWv4GxzQ8WsrUPUydbec3Rclq9nE/CgqHwxHIIszMuyagvgRBVrgQeoiivQIz5aK2ND9ppBHWM102xdn5lXgqm06p17FLJaqrYclUSyFPrWggHe3UAkCxGp67RHmMa7LeaTiZyfmcG1KYTcftrKtNvAdOj6Qoj5o51DdHBIHghSLjgPhjlkLgolIML9nMvbE1igFOrT4rpkThSnI0T9rLsczUak111/ouoKsysnMI01DTWMsM0+RYT3jUvNspSkDoSlB/UI1+zw2yaXN0mZwxlQX3XppBadq7iC2lpBBB5JKgFFX8IgW6Lxp9uga7ogjMsrgvs2RjiYmojopBrQ0Ar0jMntWLanCZaU9LmWlmNhNIpUZmnQebsVhZG5oSmUWN28Vz+H26u1yC5dadA80FEXW0ToFaWPWCRcRuphva5yRr6GUvYlVSn3Rq1UJdbW4e1YBR/xRzpgjcXhuLZt4o3lMYua+lKg8w0ZGo7KLUXfvtaN3YRgQA1zCa0I5+sZrqPM5h5P4mprspOYxwvUJGZQUONOzrDjbiTxBSokEHqiKM0PZXoTyaqzK5fS7rKuUS6FSpKD1jXQ+COclr62EIUpHQI8xC4KmwKthTr2tPMBT5Feki8KD5ijosmxzhznP6LoPjLa/wAnMIsLYotQcxDNN94himtnk726XVWRbtBMak5w7QeOM4pgytTdTT6K0veZpkso8mSDopxXFxQ67ADoAiroI9PYNwrJsKII7GmJEH3nZ06hoHXpXm7cvxa1uQzAiODIfutyr1nSUp67XjejItGzVlHIeqdMzOoszV6hLNpmpubqLSVgaKKEouOTTvcQddBc6RotCWA4RsbyXdN44AlnR3Q2c4bSjtVepa+7tvej0czLYLYj+Yur6vVTWuoJz5yY6c0MM/KLXniE1+d2QMU1R2t1+qYDnJ+YO88+ubZC3DYC6iFC5sBqeqOesEeMgcFMtLOxwZuI06xQfJexmOFGZm24I8rDcNRqfmt+00zYqQQrlsAG3QqcaI+EFWsLmrtE5YYIy4m5HLrE1Hm6mqXVJ0uVpS0OJl1FO6FlKe9SlI1142tGgcEZTODOXfGZEmpqJEa01o41B+axH8I0wyC+HKysOGXClWihC9KUpwqW4srUskqUTckk6mL7yK2rq9ljKtYaxTKO1ugNd6xurHOZRPuUFWi0D3JIt0G2kUFBHuLWsWStuW8lnGYm83MR0g8y8XZVsTljTHlUm/C7wPQRzrpDRNpzIvFMvdzGslJ7yQVs1JJlym/QS4Ak9tiYx5vNXZgw2s1xqvYQEwDflJFpp58k9NmgVRzmt4ILdojn/JRIMeeLmIgaebL50+i95ypT72jjYENzhz0K3GzH25pBlp6m5YUBb7pulNRqA3G0/wAJDQO8rs3inwRqZiHEVaxZWpvEOIqi9PVGdXyj77p1UeAGmgAAAAGgAAENnAwu6Y9pYd17Mu80+Rs9Y6XHNx+P0FF4627y2lb7h5bEq0aGjJo+H1KQ8YIII9CtCiFTxtCQQRbK7MFByEpsvJ4+x5jmny+IpGbWqXkJ2bQw3LlJ7xe6qxWfwgq9gTwuI2rGfOTB/wAZ+GvlJrzxy/gjnFt8HcK3Zt03MzTyToFBRo1DoC6DYnCBGsGUbKy0syg0nOrjrPSt589Ts0Zr0x2sVHMiiM1unyjiZSbk6i0XVABSktqRryid4myeOpsRcxoyO+FzcEwkEeju1d30cgGWbHdEZzB1PV6uteevFbxvDMCZfBbDfzltfW60GPQtbU27Y82gj0hzXn1vZka5s05R00VGkZm0Z+q1KWbTNzM5UmkuWsCUBFxyYv0WvoLk2i1u71kwRbuoYZ+UmvPHLyFjlk9wXQLRjumZmbe57tJIBK6bIcJkzZsu2WlpZjWt5hVbJ7TuH8gpqSmsc5eYzp0xiCenkqmJCRnEPNv75JccKE3KDfviQbEk6XN4q3JHDWXOKMZmRzPxIij0dqVW+FrfSwHnQpIDZWr2twVHTU20ivoI9hJWDFkrLdZrZl5OgPyxNGodS8hO21DnbSFoOl2AVqWCuFx1nrXTKhZu5CYao8nQKJmLheVkJBlLEuympNEIQkWAuVXPhMN+OMw9nfMPDU3hXE+YuG5inzgG+lNVbQpJSQpKkkK0IIBHz6RzdgjxLOCiVhxRHbNPDwa1oK1111r2r+FKbiQjAdLMLCKUzpTUtoMs8vNmmjZh1iq1rM+lVGlUibbTSpaem20NvHk0rLilXAeSlSikWAF0G9+EbKVPOLIirUuZo1QzFwvMSU2yqXfZVUmt1bahZSfbdRjmXBGxtPg7Frxmx5uciOc0ACoGVP7qtdZd/wB1jwXQJWUhtDiSdOdfpzKfZ1Yby6wxjRUhljiQVmjuS6Xt9LweDLhJu2HBooAAHrF7GGvLGjYPr+OaZSMeV00ihvqWJqbCwjdsglIKjokEgC5HT0cYisANo9rDkIsOQ8i45xdhw48sXXqqF4x84x875WITQ3FXBnh6updI8EZhbOmXuHZfDOFsf4Yk5CXuoJFTbUpajxWpRVdSj0kw/HPnJc/40MNfKLXnjl9BHOIvBNKRnmJEmnlxzJIFSV0aFwqzsCGIUOWYGjIAVoAtstqGnbPWLKDO42wnjOiDFLZT9ip0yhwzxKgDvtpPEDXf04a3i7MEZ+4GdyepWPsS1+WlEtSzcvOt7+84maT3qkBCbqJJBIFr2IMc4RpC7qb726L9fTGymuDmDNyUGSjTL3CG6oJoSGkCrRqGVRppqWsleEGPJT0WdgS7GmI2hAqBiGhx6fmuiDedWzNmlu0+tVTD84dChqtyQbsb6WLyQL9gN4llGxLkdguQW1h6u4Po8rffWmUmZdlJPSSEkXMcw7jqgKQegRro/BTLv/Zwpp4Z7pod3yWwgcKMyw8ZFlWF/vDI/X5rfPNLbIy+wzITElgh8YjqxCkNKaBEq0q2ilOG2+AehF78LjjGntBmJPMnM2WmsysUKkZatThXUamtQBbBBIAJ71A0SkEiyRboEQ23Xwgj1dh3Mkbvy8SHJuIiPFC80xDq5hTT815e273T14I7Ik4AWMNQwVw/HnNdC6M5dY22c8sMMsYVwtmRhxqTZUpxSnKo0px1xXtlrVfUmw+AADQRIZ3OzIyoyr0jPZj4Wfl32y2625UGlJWlQsUkE2II0tHMUCFt2CPKReCiVjxDGiTTy4mpNBWutephcKc3AhCBDlmBoFAM6U1LflVN2KVqKi/gAX6EzbSR8ACrRlUwbG1DqEvVqZP4CZm5ZQcZd520ooWOChdRFx0GOffwQfBGW7g2xDC6fi06/wCqxG8IeF2JshBr1LbPa5z/AMO4joMvl3gKtS9SlppaZipTco7vtbidUMhQ0VdVlGx03QOk2++w1mHTKfI4gwHVZ9mWWXhVZQvLCQoFIQ6LnpG6g/CeqNRRa/CFUEmwUkEdsbV9xJLzEbFhuIqcWIipxV006supapl953z2LaiNBIGHCMhhpo+vWui09tP5ATk+/h6qYol3kocLDi3ZJxyWWQbHv90pKe3h2w6Ydd2babMJr2GXcAyUysFSZqUMo25Y8bKTYi8c1dDoITQaWjQROCmVazDLTT2106CD8BT6rfM4UZtz8czLQ3Hm5iPjmulOMNpXJvBcs4X8YSdQmAklErTliZcWR0d53qf5RAjSPPPPGuZ0YgbnJhkyNIkd5MhIBd9wG28tZ4KWbDsA0HSTWQ3R0QRv7uXBs27sXylpMSKNBdTLqH1WjvDfq0rwwvJngMh84bz9Z5x0I6LwQQR7leKRBBBBEQQQQREEEEERBBBBEQQQQREEEEERBBBBER1Xyt+9lhP9CSX1KI5UR1Xyt+9lhP8AQkl9SiON8MH2aV/M75Bdg4IvtU1+VvzKlEF+2Fgjha7mvDv7kv8AimORdU+2c3+fc+kY66O/uS/4pjkXVPtnN/n3PpGOz8D/AO9m+pn8y4zwu+xK9b/5VjQQQR3FcSRBBBBEQQQQREEEEERBBBBEQQQl7QRLBHguAQheSOmJopoV9II+JeA/CEIXwBe4iMlOEr7wRj85HXBzkdcKjWpwFZEEY/OR1wc5HXCo1pgKyIIx+cjrg5yOuFRrTAVkQRj85HXBzkQqNaYCsiCMfnQg5yIVGtRgKyIIx+cdsHOO2GSnAVkQRj847YOcdsMkwFZEEY/OO2DnHbDJMBWRBGPzjtg5x2wyTAVkQRj847YOcdsMkwFZEEY/OO2DnHbDJMBWRBGPzjtg5x2wyTAVkQRj847YOcdsMkwFZEEY/OO2F5wIZJgK+8EfDnAg5wIZKMBX3gj4c4EHOBDJMBX3gj4c4EHOBDJMBX3gj4c4EJzgdcMlOArIgj4c4HXBzgQyTAV94I+HOBBzgQyUYCvvBHw5wITnI64VGtTgKyIIx+cjrg5yOuFRrTAVkQRj85HXBzkdcKjWmArIgueuMfnI64OcjrhUa0wFZEEY/OO2DnHbDJMBWRBGPzjthecDrhkmAr7wR8OcCDnAhkowFfeCPhzgQc4EMkwFfeCPhzgQc4EMkwFfeCPhzgQc4EMkwFfeCPhzgQc4EMkwFfeCPhzgQc4EMkwFfeCPhzgQc4EMkwFfeCPiHwemPaVXPGJooIIXuCAGCIUIggggiIIIIIiCCCCIjqvlb97LCf6EkvqURyojqvlb97LCf6EkvqURxvhg+zSv5nfILsHBF9qmvyt+ZUphLiA26YLCOFLua8u/uS/4pjkXVPtnN/n3PpGOujv7kv8AimORdU+2c3+fc+kY7RwP/vZvqZ/MuM8LvsSvW/8AlWNBBBHcVxJEEEEERBBBBEQQQQREJBe0fJ10JSdbQUgVXsuAC8Yzk2E8TGLMzqUDVWsWflJsyZp5y8nUqbIijUFZ+2dQSUpWOtpv2znhFk/wo1VqW1J2TCMWaeGt6fotvZtjTVpxRClmFx6FWD1QQke2F4+cs9O1B4MU6UmJt0ndCGGlOKv1WSDHQ/LzYfybwclqbxFIv4qqCUjfXUVfsfe6d1hPe27Fb0XjRsP4WwnIIp9Bo1NpEm3olmVYQw2n4EgCOW2lwrwWEtkoRf0k0H1K6bZ3BdMPaHTkQM6BmfoFyfk8tc1qigLkctsUPJUAQU0l83B/kxlHJvOvj3KcW/JD/ox1UmcZYUk1FD1blQpPFKV7xHwC8YvdHwXw9Wk+Jc9GNE7hRtNxq2A39S3TeDKzhkY7uwLlr3HM6/eoxb8kP+jB3HM6veoxd8kPejHUrujYL/HI8S56MHdGwX+OR4lz0Ycp9q7Bv6t6q5M7N27vBcte45nV71GLvkh70YO45nV71GLvkh70Y6ld0bBf45HiXPRg7o2C/wAcjxLnow5T7V2Df1b05M7N27vBcte45nV71GLvkh70YO45nV71GLvkh70Y6ld0bBf45HiXPRg7o2C/xyPEuejDlPtXYN/VvTkzs3bu8Fy17jmdXvUYu+SHvRg7jmdXvUYu+SHvRjqV3RsF/jkeJc9GDujYL/HI8S56MOU+1dg39W9OTOzdu7wXLXuOZ1e9Ri75Ie9GDuOZ1e9Ri75Ie9GOpXdGwX+OR4lz0YO6Ngv8cjxLnow5T7V2Df1b05M7N27vBcte45nV71GLvkh70YO45nV71GLvkh70Y6ld0bBf45HiXPRg7o2C/wAcjxLnow5T7V2Df1b05M7N27vBcte45nV71GLvkh70YO45nV71GLvkh70Y6ld0bBf45HiXPRg7o2C/xyPEuejDlPtXYN/VvTkzs3bu8Fy17jmdXvUYu+SHvRg7jmdXvUYu+SHvRjqV3RsF/jkeJc9GDujYL/HI8S56MOU+1dg39W9OTOzdu7wXLXuOZ1e9Ri75Ie9GDuOZ1e9Ri75Ie9GOpXdGwX+OR4lz0YO6Ngv8cjxLnow5T7V2Df1b05M7N27vBcte45nV71GLvkh70YO45nV71GLvkh70Y6ld0bBf45HiXPRg7o2C/wAcjxLnow5T7V2Df1b05M7N27vBcte45nV71GLvkh70YO45nV71GLvkh70Y6ld0bBf45HiXPRg7o2C/xyPEuejDlPtXYN/VvTkzs3bu8Fy17jmdXvUYu+SHvRg7jmdXvUYu+SHvRjqV3RsF/jkeJc9GDujYL/HI8S56MOU+1dg39W9OTOzdu7wXLXuOZ1e9Ri75Ie9GDuOZ1e9Ri75Ie9GOpXdGwX+OR4lz0YO6Ngv8cjxLnow5T7V2Df1b05M7N27vBcte45nV71GLvkh70YO45nV71GLvkh70Y6ld0bBf45HiXPRg7o2C/wAcjxLnow5T7V2Df1b05M7N27vBcte45nV71GLvkh70YO45nV71GLvkh70Y6ld0bBf45HiXPRg7o2C/xyPEuejDlPtXYN/VvTkzs3bu8Fy17jmdXvUYu+SHvRg7jmdXvUYu+SHvRjqV3RsF/jkeJc9GDujYL/HI8S56MOU+1dg39W9OTOzdu7wXLXuOZ1e9Ri75Ie9GDuOZ1e9Ri75Ie9GOpXdGwX+OR4lz0YO6Ngv8cjxLnow5T7V2Df1b05M7N27vBcte45nV71GLvkh70YO45nV71GLvkh70Y6ld0bBf45HiXPRg7o2C/wAcjxLnow5T7V2Df1b05M7N27vBcte45nV71GLvkh70YO45nV71GLvkh70Y6ld0bBf45HiXPRg7o2C/xyPEuejDlPtXYN/VvTkzs3bu8Fy17jmdXvUYu+SHvRg7jmdXvUYu+SHvRjqV3RsF/jkeJc9GDujYL/HI8S56MOU+1dg39W9OTOzdu7wXLXuOZ1e9Ri75Ie9GDuOZ1e9Ri75Ie9GOpXdGwX+OR4lz0YO6Ngv8cjxLnow5T7V2Df1b05M7N27vBcte45nV71GLvkh70YO45nV71GLvkh70Y6ld0bBf45HiXPRg7o2C/wAcjxLnow5T7V2Df1b05M7N27vBcte45nV71GLvkh70YO45nV71GLvkh70Y6ld0bBf45HiXPRg7o2C/xyPEuejDlPtXYN/VvTkzs3bu8Fy17jmdXvUYu+SHvRg7jmdXvUYu+SHvRjqV3RsF/jkeJc9GDujYL/HI8S56MOU+1dg39W9OTOzdu7wXLXuOZ1e9Ri75Ie9GDuOZ1e9Ri75Ie9GOpXdGwX+OR4lz0YO6Ngv8cjxLnow5T7V2Df1b05M7N27vBcte45nV71GLvkh70YO45nV71GLvkh70Y6ld0bBf45HiXPRg7o2C/wAcjxLnow5T7V2Df1b05M7N27vBcte45nV71GLvkh70YO45nV71GLvkh70Y6ld0bBf45HiXPRg7o2C/xyPEuejDlPtXYN/VvTkzs3bu8Fy17jmdXvUYu+SHvRg7jmdXvUYu+SHvRjqV3RsF/jkeJc9GDujYL/HI8S56MOU+1dg39W9OTOzdu7wXLXuOZ1e9Ri75Ie9GDuOZ1e9Ri75Ie9GOpXdGwX+OR4lz0YO6Ngv8cjxLnow5T7V2Df1b05M7N27vBcte45nV71GLvkh70YO45nV71GLvkh70Y6ld0bBf45HiXPRg7o2C/wAcjxLnow5T7V2Df1b05M7N27vBcte45nV71GLvkh70YO45nV71GLvkh70Y6ld0bBf45HiXPRg7o2C/xyPEuejDlPtXYN/VvTkzs3bu8Fy17jmdXvUYu+SHvRg7jmdXvUYu+SHvRjqV3RsF/jkeJc9GDujYL/HI8S56MOU+1dg39W9OTOzdu7wXLUZN519GVGLfkh/0Y9DJrOwD71GLfkh/0Y6j90fBY/v0nxDnox47pWCuitpPgZc9GHKfauwb+reo5M7M27vBcwGsnM6b99lTiwHtpL3ow1Vig4iwrOppmKKFP0mcU2HgxOsKZWUEkBW6oA2uDr2R1pomI6NiFLzlGn0TKZdYad3QQUKsDYgi/AgxoRt6OFGd0igH+8Muf/Nej0107/TttWk2Rjw2tBBNRWuXWV5u9VxZSxbOM7AilxBAoaUzVDoX0R9I+DCgUax9xHXq1FVyV2RRBBBBUoggggiIIIIIiOq+Vv3ssJ/oSS+pRHKiOq+Vv3ssJ/oSS+pRHG+GD7NK/md8guwcEX2qa/K35lSmE1hYI4Wu5ry5q2ofwTHIysJ3KtOpve0w4L/yjHXRQuCD06Rq9jPYwwFW33pzDlWqFGfcWpZSVcu0SSTwVqNe2OjcHl55C7keMJ8kCIG0IFaUrp7VzfhEu5PW/CgmRAJZiqK0000di0hgi88VbHmbNBLj1Iaka4wkm3Nntx0jtQu3zExUtfwdirCzpYxFhyo01Y0/ZEupI+O1j8cd6s+37MtQVlI7XdFc+w5rhE9Yto2aaTUFzesZduhM0EFr6giFt1RuFq6pIILHqggiIII8LNhe8FK8OOAC5huffcdcTLsoW466oIQ2hJKlqOgAA4knoj1OzISk2PRG42xbs3siVls58d04OTD45SgyjydGm+iZUOlSr95fgO+4kW8vei8cG78oY78zoA1n+9K9Rdm70a3ZsQIeQ0k6gvps17GEnKNSmPc45BMzOubr0nQ3RduXFrhT4/CX/AOiem50G4XJMyrIbYZSlKE7iEJFgAOAHUI+oBAAGlo9bqemPmO1rYm7amDMTbqnmHMBqC+lbJsaVsWAIEq2ms856SVVmLZLP+qzyvWtWcM0aRTolDjTj7qu1SjYfAB8JiPnC21Ef8YGG7/6iqLx3UiFsOmKIVpugsDBDZlraCrEewIcy8xHxolTqcQOxUb61dqMnXMHDXwSSoPWrtSe+FhvyFUXlYdEFh0RcFrxOaGzuhWPRmDtonfKoz1q7UfvhYa8hVC+tXaj98LDfkSovLd7IN3sh52ibNndCejUHbRO+VRvrV2o/fCw35EqD1q7UfvhYb8iVF5bvZBu9kPO0TZs7oT0agbaJ3yqN9au1H74WG/IlQetXaj98HDfkSovMJ6xCEAHhDzvE2bO6E9GoO2id8qjPWttSfl/hvyJUHrW2pPfAw35EqLJzNx3LZa4GrWOZyScnGKNKqmVsNEBbliBui+l9YqitbVbOHVsyuIsLeo83L1anyVUbmppK0MS02ham30LbvvmzZ72wN4yIU5NRxihwmEflCxY1jyMB2CJMRAfzlZ3rV2o+nMHDXkSoPWttR++BhvyJUTKZz4yplKdIVV/GtPEpUw4ZR1KlKS4G1BKybAlISSASqwHTDh3W8vVV1eGkYsp6qk1L87Wwly4Q0Eb+8pY70Dd77U8NeEW/OEyP8lvcCr8xydaeURP/wDQqvvWrtR++DhryJUJ61tqT3wMN+RKiyMJ5mYLx0Zj1oV6VqfNSOVDKjdIVfdVYgXSbGyhcHoMR+jZt1aYzNby6xDgmYpHP5V+cpsyqabd5dtlSUrK0J1bvvace20G2hMGo4plR/CENhyYwnj4mej1yox61NqT3wcNeRKhfWntR++DhzyJUXju3hdxMW/O0XZs7oV/0agbaJ3yqNOFNqTozAw35EqE9am1GOOYOGx/uSovPcTBuDoiPO8XZs7oU+jUDbRO+VRnrV2offCw35EqD1q7UPvhYb8iVF5bohBr0xBtiIP8tndCj0Zg7aJ3yqO9au1D74WG/IlQetXah98LDfkSovPdHXBZPWYnzvE2bO6E9GoO2id8qjDhbaiH+MHDfkSoPWrtQ++FhvyJUXlZPSDC7o7Yed4uzZ3Qno1B20TvlUZ61dqH3wsN+RKhPWttR++BhvyJUXpujrMG72xPneJs2d0J6NQNtE75VGetXah98LDfkSoPWrtQ++FhvyJUXnujtg3R2w87xNmzuhPRqDtonfKoz1rbUPvhYb8iMJ61tqP3wMN+RKi8yAOi8FxwgLWibNndCejUHbRO+VRnrW2o/fAw35EqD1q7Unvg4a8iMXn8EEPO0XZs7oQXagbaJ3yqN9au1D74WG/IlQetXah98LDfkSovK400g4w87RdmzuhR6NQdtE75VG+tXah98LDfkSoPWrtQ++FhvyJUXnuJOpEHJo6oed4mzZ3Qno1B20TvlUZ61dqH3wsN+RKg9au1D74WG/IlRefJo6oOTR1Q87xNmzuhPRqDtonfKoz1q7UfRmDhvyJUAwptR9OYOG/IlReKiEJJAGnCPHKKBIKRAWtF2bO6FPo1AH+dE75VInCu1GOGYOGvIlQnrW2pPfAw35EqLuDxPtUE+CAuqCSS2rSJ86xdmzuhR6NwNtF75VIjCu1L04/w35EqF9am1H74OG/IlRdjbql6kADhCtOKcUpKkgAcO3th51i7NndCC7cDbRO+VSXrV2ovfBw35EqE9a21H74OG/IlReYSL8BC7o6BEedomzZ3Qp9GoFf30TvlUZ61dqL3wsN+Qqg9au1F74WG/IVRee74IN3wQ87xNmzuhT6NQNtE75VF+tbak98DDfkSoPWttR++BhvyJUXiVpTcdUVcrPJkViZkF4dmW5JqqOUZucU6ghUykE23Ad4JNuMY0xeJsoAYzGCv8IV+BdBszUQosU0/jKj/AK1tqP3wMN+RKg9a21H74GG/IVRJ8BZ5YUxbhZut1CqyMlOMynOqhLhalCWANibkd8L21F4eVZt5ft0oVteJpMSinjLpX31+UAuU7tt64SL8OGvCIZeSG9oeBDof4QjroBji0xItRl7blX/rW2pPfBw15CqD1rbUfvg4a8hVFmOZjYNarEvQF4jkvVCaCS2wF6neF0g9AJBBANiQYbcX5lDDlXlsPSFNRPVF9kzKkOTSJdDbV7AlSukq0A6deqJdeJrWlxbDoMvZGlQ26IcQ0RItdPtlQb1q7Unvg4a8hVB61dqT3wsM+Qqi65J9cyw2640W1LQlRTcGxI4aaRkbo7YyBbDyKiGzuhWTdmCMjGid8qjPWrtSe+FhnyFUHrV2pPfCwz5CqLz3UmDdHRE+d4mzZ3Qno1A20TvlUZ61dqT3wsM+RKhPWrtSW++DhryFUXpujpiCZnZjzeAFUGSpmG3q3UcRVE0+Ulm30MjfDS3CVLXoBZtUVNtSK80ENndCpddyXYMRjRO+VBhhXak6cwsNeQqhfWrtRe+FhryFUYkltZ4XOJKXT8QSzVCps9JTqn5idcO9LzktMci6ydwKSU3Cjv3tZN4szuu5dDETGFF4qkU1aZ5MNS5Ue/K0b6AFW3bqQd4C9yNYqdaMw3Iwmd0Kht35U/58TvlV761dqT3wcM+RKhfWrtRj/GDhryFUTljOrK+alJ+oS+NKYuVpa0tzbwWQlClK3UgG3f3IIG7e5h0lsZymIMLvYkwGhjEIAUGG2Xw0HXEqspBUv2hBuCFWIIsYp86RhphM7oVXo7LHRGid8qsvWrtR++FhryFUJ61dqP3wsNeQqiY5b5m1jGuI8Q4ZrGDHqM/h0sIfd523MNLccTvbgUj8IJ3SR/CHXFh7giHWrFaaGGzuhG3cgOFeOid8qjDhbait98DDQ/3FUefWrtQHhmDhvyFUXrug8Y8pbCdAowFrxNmzuhT6NQDpixO+VBMr5TFEk7WpfGVRlp6rIeY5Z6XRuNq+wptYdGlo0t2+TbPKQ/QEt9c9G99DTbE2I9f7dLH/AMhMaH7fWmeUj+gJb656PV3AeYl4WuPO06OoLQ34hCDd50NtaBw05nSqGlz3o8F4yxwjElhoPBGWOmPpZvshfOUTSiCCCJVtEELoOMK22t1xLTSFLWs2SlIuSewRDnBoq4qQCTQLzBE+wtkTmxi/cVSMFTyWV6h+aTzdu3XddvmEXHhLYfrkxuvY1xXLSaOJZkEl1f8AOUAB8RjzlpXvsWyqiZmG11DM9gqt9Z917XtQ/wDjwHU1kUHaVq9aOrGV6d3LXCqL8KLJD/yURWGENlvJ7Ca0TQw6arNI15WoOF0X/ie0HxReEowzKybMvLtIaaabShCEJ3UpSBYAAcBaOI38vjJ3nEKDJtIEMk1OVa00D4LtdwbpTd3HRY024VeAKDOlK86+1+rWAG5tCWJhdBHOV0lB4QzK4nww8mItL1+lzalJS8UKvayxb/pFt4qoKz7dXGPhNyUpPtKYnJVl9tWhQ6gKBHgMfZCkuC6SDfqMLreKA8sOJpoVbdDa8UcKhVlifZwydxSXFzeDpaTecv8AZpAmXUO2yLJ+aKjxNsNU13fewhjN9lXEMT7IWkfy02PzGNqYCDHpbOvjbdmZQJh1NR9YeNV5y0LoWLaOcaA2usZHwotAcS7JWceHwpyVpErWGhrvSEwCr+avdPxRV9bwhinDbxYxBh2o09Y6JiXUgfHa0dTbR85iVlptsszcu082oWKHEhSSPAY9rZ/C9aMEUnILX9I9U/ULxs9wTyMXOTjOYdR9YfQrk+SOIIIjHmFEAx0lxNkDlBiILVPYDpjbq7lTsq3zddzxN0WilcbbHOBFoddw/iCqU1RHeoc3XkA/DY/PHs5PhYseYFI7XQz1VHaNy8lNcF1ryxrCc146DQ+K152eMql5y5qU/D820V0aR/Z9VIJAMugj7HfrWopT12JPRHUuWl2pWXblZdpLbTSQhCEiwSkCwAHgijdk7I9GUGGKrNTNSaqE7XJsOcuhkoIYbG6hBBJ/CLh/ldkXq04hZWEEHcVum3XaOU30vCLftAvgurCbk36n4ldXuXYBsKQAjNpFdm7o1BewABrFKZ053Yjy6xfI4Xocph3ceo03WHpisTy5cK5BSU8g3upN1q3tL9UXUpSQO+NogWIsp6LijMqlZg1hMvOJplLfpzchMSqHW1FxxCw7dV7KTydhp+EY8VGxEUavYhVvgvahTUsZT1KxLSJ6UpkyzR3ZF1uRWtMmucaSeSmXBoklakgEjp6om81n9gim1ifoldTVqQ7Iy01NpfnpBbTUy1L25ZTR1Kgm4PAXHC9o+VRyOanq9iitivLb9cszS5kshhO6xzJQKUg313t23ZEQp2zDUpPFs1iuYxs3OPblSbllTNODzjqZxNlc5UpZDoRolKQEjdFosVjt0ZpVTE7QeDkUGn1t6m19C6qtwScgacrnjzbaQpbqW76tgKSd69tevSHuuY9ml5bLx7gSnornKyQnpNtx3kEONlO9dSiLgAcRa+nXFTy+ypUZaVp8+jFNKVWadNzb7TLtLUqlNszCWwthuX5TebSOTCgQr2xPQYtiawTVk5aowLR6/LU2bTJJkzOtU5HJBPBe6wFBKQRcAX0vFbHRSDiClZ2V+L5nHuXuHMZzcq1LPVqmsTzjLSipLanEBRSCdTa8Sq56ohWU2Banlvgmm4MqWIhWUUhpErKzHNEy5SwhISlJSkkEix77pvE1Bi+wkjNQUXPVBc9ULCHpipQgG8eVGxvvREM0cdN5b4Bq+NHaeudTS2eU5BKwguG4AG8dBqeMQfCm0VRJqWrHr7k2aE9SnJZA5rMGebmOXb30JaLad5blgq6AkkW6ovMlosWHxjBULGiTkKDE4t5oVK86cFTuZOWmIMEU2aZl5mryapZt16+4gkjU216Ih1a2e6G3TMOU7BUhI0o0yuydYn1qK1KmQykgp3lXUTrpc2HZEkqm0DlJRabKVaexW3zacYdmWy1LPOqS02opWtxKElTYCgUkrAsdOOkPTeaeBH5aYnWq2hTUpMSsq8oMud47MJQplPtfwg4jsF9bRfhvm4DcAqBWqxYkOUjuxuIJpRUtjfZ7zJqtKmqDRMQ04UypzFWW/LKecl0IM2sqQ6rk07zm6kkFu4SSbm4EI/s540mqjMSMtO0yk06doCqTUpyTmHlLqCuZ83b3mFDcQpCu+5QG5AAixKRtAYK5CVRiWryslO1CozshJMyqH5jl+bv8keDdwRdO8LWFzqQCYcznvlZzipShxY0F0hl+YmlFh0Nhtm/KlC93dc3bd8EE26YyhNT1MLW6OhYvkdnhxcXaelRzJXLPFGCJiamcRUmjsTAkmKcmZlajMTLkyhq9lKDgAQk3JCRci5F7WjzgDL/NSk5pVTG+NpnDtTaqJWwy+yp9L0jJi5bl2UEbgG9YqJN1HwCHaT2lcmJ+YRKymMm1urdQ1umUmElJXbk1KujvUquLLVZJvoYcX88csm6lO0ZeJWxNSLbrjw5B0t/YklbiUubu4tSUpJKUkkWOkWH+Vvc5zoebugq+zyOGGsbEyb0hWEFDheAqA4kRTtX2mcrZTDFQxNSKnM1VNO5uXGWJN9LikPK3ULSFI1RxO8Lp0te+kOtZzImJzEWCqDhVkPJxGh2emXH5daVsSLbYJVuK3VIUpSkJG8NLnTSMbyWMPabTrWYJyCfZcCrNJHXHhSja/VHzaAI0TbQR7cSVI3dfgiwCK5rKHStbW9p3FbmKZyku0agmT9Xqhh+WalpxblQbVLocUJpxm27yJKLHXS4iSZT7R8ji7BErUMQUmrorrNITU5mXl6W5acRv8mpyVTqXEhdhp19WsSTCGStCwnJ4mTvy79QxHUahPGfMmhLzCZok8kFakpTfQX+CIy/s1n1nU/DFPxvNyztNw76gNzKGNzlBzht7eUAq+6eT3FJBF0k6xml0s4YSPisouhGgonsbSWAVU2Wm25etuTs1UHaWmlIkFKnkzDSAtxKmr6bqFJUdeChx4Q5Kz0wSnE7OFS7P8q5NIkFzZlFCVbnFpSpMutw+1csod71m0V25suVNOEJrDkviWioeqNYdq0y65Rd5uWU4023+xBym8ytG5dC946nUG0O1E2dJnDWLhWaTXqfNU6ZqDVVm01KmCZnOcpSgKW2/vjd3yjeuUqKTw4mDmSorhJQthHQVmZ55yYnyrmqe9SU4YmmJgtDmE7OuN1CdUpwIKJdtKbXG9e5Nr6Rcku6Xpdt1SSCtIVbquIqzNrKXFGZinKO1iuQkcOT7CZedl10pLs22kKutUs/vDk1KGmqVWtcRaUjKokpNiTQpSksNpbBUbkgC2vbGO8sLG4dKsvw0yX117YUcIWCLStojyo2FxHqPK+HCCBVjmfmlVcGYgkKFTWKVebkn5xb1QmVNJAbI7xNgbqVfSGOgZ8qmMQOMV2mzcvTpmRp0wwtuWUvm63wQoOr6ElW7Y26Ym9ey9puIcZUzFtRLbyKdKOyolHWUuIWVqB3jfpFtNIb6llYzP1avVNFRU16tsyLHJpbFmRLKKgQb63vbsjMY6DgAcM1rIrJwRC9hyrkF93M3MOSlXmKPUkT8iuXQ+4l6Zlihl5LKN5woV+FZIKuHCPk3nFht2jy9XErVf2a4puUljKHl5gBIUVoRfVG6Qd69oYGcj51GKHcRu4jQ8ULnXZcOyu+u8wgpIdUVWWhNwEpAAsNeMYLGQk9Ly8vNN12S9UpOZdfYZ5keZNoWkJLaWt7eA03rg8b9cSGS1aVVsxZ8ioaFYs1jykNYMVjRhan5Iy4eaSkd+snRKAPdFRCbdZjxlximqYrw96pVqQakptEw9LusNrKggoUU2ufBGI5lrTqnhGQwrXXVLTJLQ8lySKpSzqSSlQCDoATe1+2MnAeBZbAslNyMtUJybE3NOTJVMOqcKd4kgC5PXqek6xaPF4CBpqstgjmM0u9mnipeNReFjyjRIEeox1mIhDwhYIIoXm/jaZy6y3r+NJSSbnHqTKKfbYcUUpWbgAEgEga9EUXObTuK5IobnaJTpmYkqzISk0/RiubYmmJlCjybR0PLJKRcdo64vrNPBLeYuAa1gp2fVIpq8uZczCUb5b1Bvbp4RHq7k5QqpTcPU2kJl6OzQ6rL1UplJVKUvrbFiCBYDe64wZmHMOiVhGgp4r0FmTNlwYIbOMxPLj8BQU8a8ywpvaIwXKYalMVGQrT0i+uYRMFmnrUZEsGzof8AcFJvpqdDYG0ZjOfWBJitztHZmJxbFOlOeTtRTLnmcugtB0BbvQSghQ06YguMNl53EMu9ISuNS2xNTFSfeZmZQvIbTOLKittIUkB1NykKVcWPCPpP7LwrlRSmqYll0UpNIVSlplZMMzc0gy4Z3X3Qqy0JtvJBTcEjWwih0SdByAIWQyWsJzQXRCCa/DVzZlWJgPNrDeYMxOSdEbnZeYkm0PqYnWCytxld9x1IPFBIOvZERylzoxDmBiqbpNTmMLyjTDkyjmDUw96ooDbpQklCkhJBA3jY6XEO+UWVFTy7M0ajVKNNqVLtSjK5Klc1dKG72U6vfVvKN+AsnpEfKlZTYpmMwaVjjHOL5WqqoCJlumNSlOEqfs6d1anjvK31btgLbo0va8XB5Q5rHO084WM/zYx0ZkP2aeqTpqBq6T2K2mzoLmPpGMgFpITbheMhOoB6xGcQvP1zSwQQhiFK+C0neJI4xWGG8oaRSqrXa/U5OUm6nP1KYnJR8BV2EOCyU2Om8NdQOmLPWfsihFTS+dYGJXqbNYdLVOarDlFE2maC3C6kHXkQL7naDGrtAyrcJmvgs2SbNHF5KetYUtk/iinYRpVMpdakZap02jv0/nCUG6lrdQsEXGgski54E3hmGSuL2aVOOCXpT1UnKkmfl1qn30rklcjye8l0AKWeNwRZQMWG1nXlq9T26oziEuMOr5NoolH1KdVu7x3EBBUuw42Bt02jDxlnPhWh4dXVKRU2J2bfkzNySA24tCkk2SVqSO8BOnfW1jWvlLLa0RC7QNa2DJq0yeLDcydXxUaksncUUvFT85MuSFXlKlOy0/MTD8y60tp1tDaTZpA3Vat7yTcW4HSHHM/Kip4nxEqu0qSo82qdpaqU8KjvHmxvdD7dh7ZN1aCx4axOJTHeHHZZC3KjqJxumufY12E2pKTyfD+ENeHbEdrmd+CaZLTLso9Mz6pd5DKksSrpSsKXuFSVbtlAa6gkaW4xddL2dBhEOcKHPSrbZifixQWNJIy0KcYYpTtDoUhR3ptyaXJSzUuXl+2cKEhO8e02h1jAo86zUZNqdlystPNpcRvoUhVlC4ulQBB7CLw4RvYQaGDBoWneSXHFpRBBBFxQiKyzhypbzTn8JNT3IqptEqxn51lxa0l9vkHG9xJRYg3WDxGgizY8kX6YqY4sNQqXNDxQqk61kK2rEiJ3C7VMptHl8Kz1BZkuTPeuvquHDobjrJNzfpiNTeQmZU/jGgz0/iCnTdHoFQpc/LBbrqeRRLNBtcuGUp3VFR318qok2IGkW3m5mGrK7CC8UN0n1SdM3LSTUvywaClvOBCSpZBsATqbREcP7SeEzLVJrHCU0GpUypKpjsowpc+HnA0l0qaLKCpaQlWp3e9traMiG6YwYm5hWHsgg4Sq9Vs35hvSL7EtMUulStMq8rVKVRZefmHJVxxrlOUUXVDlGErDmiEXCSkHri6crsJVbCeFZmTnqTT6fPzcw9Oqal5x2aRyrgGq3HAFKVoLkC3G0fJ3PPLLnUnJyuJEzjs/JieYEpLPPgslKlJJUhBCCoJVYKIJtoIz8rMzKRmvhRjFNHlZqWbcJStmZYW2pCgegqSN4douIpfEjPHrqWMhMd6q+eUmA53AeGnJWszTU5WalOP1GqTTdyHpl1ZUSCdd0DdSB0BIicXgv0QsWCamqvgUFAiPJPZHqEOhvEKVH6J902I/z0t9QmNDtvof2c5HtoEt9c9G+lIYdbxDX3lpsl12XKT12ZSI1u2kNn9jNPNyUr9QxI5IS7VJYli0ywFLUQ44b7xNh7bqj1l0LVlrHtVs3NOowNI18wXkr3WZM2rZTpWVbVxcOenOtI5XgNYzmWXHl8my2pxauCUi5PwCN3sGbJWUVJQhyoU+cq7mhJnJg7v81NhFx4fy9wThZATh3ClKp3RvMSqEqPhVa5jqE5wuWdBbhlILnnpo0fUrl8rwVWjHNZmK1g6Mz9AueWHck81sVBCqNgapuNL4POt8ii3XddtItTDexLmDUFIXiOvUmlNqAJQ2pT7o7LABN/hjdkJA00g3db3jxc/wr2zMVEs1sMdVT47l66R4LLKl6GZc6Ieug8N6oHC+xhljSN1yvTVRrjotcOu8i3f+Kixt8MW1hzLXAOEW0t4cwjS5Ep/DblklZ8KyCo/HElgjxE/eK1bTNZuO53RU07BkvZyN3rLs37NAa066VPac0gTYWvp1WgKQeMLr1R8nZllkXdcSn9cabTmtxRfUCHhq3JI/iiIfO4mk5W4abW6odlh8cSuTcL8nLvkW5RpCrdVwIutbQqWL7wsIBaFitVpDFRsAh9zTio3FuOsW4YqOXCeWc103zrpprEhE9yKloHeLKT1g2Hgh4l5x8e2II6jxHbDLK3Fhp4P6Yc2bW0N+o9cQQCpTkl8KNikjTQjpj0lxK/wgOu5jFSLjU+Ead7Hq17XF+rh30U4KqKLLAB4KB8EJ8EYgO6NFkDpOmnZHsvODW3wXHxxSWFAEk4bJJ1iE4keshYv2iJdNzI3CFDQjQjpMQivOofUWRxUoJ49ZinBRTRWnSJRum0aVlwN0MsJCvCBqfjvDHllVna/hRmtPgBU7MTD1hwAU6ogDsAsPgh3xG+qUw1U5lBspmSfWk9RDaiP1RF8jvva0n+K59MxdBRMW0DmnV8spPDYpExSJNVcqgkXZyqhapeWb5NSishBBOoA4w3naNw/QJGXlqwZjEk5KyCKjWJ/DsmpclJS61HdeXvq3gkgE2G8qwJtE5x5lzIY6qmGalPTrjPraqXqk22lCVJfVuFG4q/Ad9fSIfjPIVWI8S1asUHF79ClcTSLVNr0qzKIcM0w3cJ5JR/clFKlJJsdDoL6xjvEQEuaozSTe05guT9cb5oOIXZDCzwl5+ebkgWOVK20pbQd66lEOBQAHAHwH1SNpnCVVqjVJXhbFUi8ag3SppU3TdxElNOi7Lbqt46rSQRu7wAIvaEmtnahzOFsV4UFenkS2Kaq1VXFhKSuXUjkt1Cb6EfYRqddYdZzJqmTU9UZw1ibCqjXJGuKASnvHJZtCEoB9ydy56RfSB42lQozUdxDtL0yQl6/Ky2DcQNVqj09+oS8lNy6EGbabUUqdFlkpQk2J3rKtqAYxU7RMpS67PzGLZaapMjL4dp1TTSnZLenBMzMw4yhAUhag4VqSgJQBodSddPhhvZVptCfqT8xi+amVztJnaM2sSjSXQ1MKKlOur4vOgk98rQiMqq7NMviMPT2I8ZzcxV3KTTqc3NsyjbaWnZGZU+w8EXN++VYpJsQD1xQOP0lVZpymNprC8o2xLTWEcUtVd6oCl+o5kU88RMKZLyElO/u2WgXBCiON7WixMDYypOP8MyWK6IiYRKTqVbqJhvk3UKQsoWhSegpUlQPgiupDZ+L2IabjTFGNpuq1+Tq7dWfmESyGWXi2wpltoNgncSlKieJJMWFgTCMtgfDzeHpScdmWm35h8OOABRLzy3SLDTQrI+CLkMxK+ulFIoQi4gJhLnsjIUKGZt4EmMx8vKxgqVn25RyptBtLzrZWlNlAm4HEWBHwxUNb2Vp2XmBMYLqtPkpOVn5arytLUhxmX52llTUxq0QpAcSUkFOoIPEG0bI6nqhFAnSMqBNxpZuGGcliTEjBmnYogzWruI8gMwaBRKjWsJvUBuoVDD07S6lIssPONqC1rdSpjeVvKdJUpJ3jYlV9LWh3p+R2P31Npkq3S5Oj1d2j1SoS83LrVNsvyqGQppNiE2UGk6ngQdNYmecWblay+r+HMMYfo1KnJvEInF8rU58yrDSJdCVKuoIVqd6w7REbwPtKDEtSdnahQ3pejjDsrWG2ZaXcmJpLrkw4ypASgHfF0AggcNY2AjTsaFxlBRap0vZ8OLxZJr1r7YO2d6nhrFNIr83iOVmWae/X3ltIYUlSxUHkuJsb6FATYm2t4jcjsu4hl6XVMKLqFAcknJKpytPqbiJhc23ztKwLtlfJp3d6yin2w6BFizm0XllLU6RqJnak6qouzDDUs1TXlzKXmbF1tbSU7yVpBvYjhcx4n9o7KyQmZaXcq066JqQYqiXWJB5xtuUeUpKHXFJSQhN0m5NrdMWmRJ8Ztac+hXnQbO9kkZdKb53IaenJepITWpRDk/S6PIb5l1aLkllSlnXUL0A6RbpiLSezJXZCcqtNbnqJMUiaeqU1JzUzzhU3LOTaHE2CAvkrpLiu/AuRpa+sTBvaIwrTJurSuIZlKhLVg0mQRTZZ+YdfUGEu7qkBPtyCbbtwdIyaztJ5W0alyVWXUZ+bYnZcziUycg8+42yHC2VOJSklFlgo74DUWiWzE+z1aHsUGXs5wxV0dKj87kDW1YZRS5SvyXPJfCtPoLS1sK3C/KvB3lTY33VWtbiIkGWeF8TvY7xFj3G0giWnjLy1EkUIWS1zdpIW463fUJW6tXHWyBeLNkZtqoSbE60HAh9tLqN9JSrdUL2IPA9hjK3U9P8A/mMN05FeC1/Os2HIQYeFzOZKkG46o9aCDjqIQ/BGIFnKo8z8e4/p2ZWHcucAiiMzFZpk7UXJmqIdWhPIqQAkJbIIvvcYZqZtR0RmisnEWHagK7LuTjVTkKcEviVTKulp5+6im7W8O94qOtgbGJXmLlJPYyxjRscUPG07h6q0aSmJFpxmUafSpt4pKrhwHXvRwiJTmy3R5Z+mVLDlf5tU5SVmJWdmZ+ntT4nuXe5Zx5aV2AdLhKgocL2sRGYwy7mhr/7KyG8XhFU41LaJw3VJTFLOEWKhMeoFFmKiqrczDkk04iW5dKSneStR3VJIFgFcAq8eZXaRw81N0ehooVcrM3OrkZSYnJCUQmWbmphhLyUnfcBHeKKiBvWAte/H4VXZy9W65OVOp4tBZeo01R20ylNYl3Ql+X5ElxaLcolA1QkgAHwCK4lchsysOZpsVyg0KXmgxPyLbFVnnZd1hFPYYbZV9jJ5VDxShdt0WBOkXYcKVdWruZVNbCOkq5MCbQOFcfV+XoVOoldkufJmTJTc5KBEvNKl1bryW1BRuUk63A7LxaY1AirsF5K0zBow5zasTT5w4/VHmeUQkcqZ10uLCrcN0mwt0cYtBGiQLxhxMFfU0KzEDa+qvUEJcdcFx1xbVtLEfx1ipjBmFqhiOYaU6mTa3ktpPt1k2SnsuSBeH8EnjDRinD8jinD8/h+ohfN55lTSyg2Um/Ag9BBsRFTKYhVURcWA4NKhrOMsTYRpJreYfqatmYDSZZmmIdU8X1kANBKtFkk2uLCPnMZ4URlEu0cP1tU+/NOyZkEyyeXbdQgLKVDet7UgggkdsYsxlLW6hTOZ1zH1QqDsk409S3XJdtIlltkFClAD7IdCDfrjJpuUSUVKQxDVsQvzlTl5x2efcS0lDby1tBoAJHtUhI0GvbGXSFpctZWbFAwZUWRLZz4dnahI0ynU6pzkzOyaZ1SGGBeXaUFbvKbxBuSlQ729iNbQ2UjPFC6dT36vhCsNTlUnX5KTYZaSsvKQTqBvaAAak9KVR9HcmkP1CivJxE63L0hTa0JEsjlyULKgkPW3ghVyFJ6RwtGbS8q1ylQpE7NV119uiVGZnZNvkUp0eSoFCj0i6yb6dEUkwKKW+WkgnIJ0GaFFDLMy/LTLTblSdpZKwkbjjaVqUo6+1shR6+yI9VM6limM1Si4Krky09MsIacUwlLb7Li93fQre6R7W/WL2Efd7KdTtYdmZjEUwukrqD1STT+RTYOuoUlwFfHdO+ogdF4+UtlhWZHDCsNHGTjjMouW9SgZRA5shhQUgKH9sOgB1GgHbEhsGiF05nXQrOlHjMSzT6mVtFxAUUL9skkXse2PtHwlEuIlmUPO8q4EALXa28bam3RH2uOuMQ6VtG6EsEJfthNesRClI8grQUg2uIxXW3ENqLakpVY7pI0v0XjLWbJ4x8jqnUAxUNCjnWuDGeGYOFcdYgouYM7h1VNwwZFD/MZR7nE87OJVyDLO8uyVbyQO+uNb96NYlB2kMETTlMk5SjV16o1GZdl1U5uXTy8utoo5Qr77dNuUQbIUokG4BAMe8cbPFFxjWcSVuYrMw1NYgepky2ktJW3LPSN+TVun24VvHeB0hrqWzvPV6gydIn8WSjSUTapqaVKURhg3JTqyoatLG7beuTY68BGsDZyETxejpXqsdiTbGmP6rsgaZDRpoNOal+VuZk7mBWMT06dwpP0xugVFUm0++E7rwCUm2iiQrW9rWsUxZCEIWkKQbW0vEKwNl/MYOxBiOearrk1IVyZTOiUWykFl8oShZ3xqoEIToRpr1xOGkBI3UiwjNgueWDjNK0M+JczBMsKMoPkK6elAaV+EoGPoBYWhOmFueqLixKUSwQlyOiEKoIvi+O+FhxivMLZSUehVKtVyflJGdqtTqEzOS84ZccpLodFgjeOunZbjFiqUCqx4gXEU3N551GWxxN4d9Q5J2Uk6s3SlhucJnVlaUnlUsbuqE743jfQAmNXPvlYWB8zry+KzZNsw/G2X+PwQxk/ibDlJwkvD9WpszU8MykxJK502tLMwh611d6SQobo6+mG9zInFsnJzUlRsSUwprVPRJ1R2YllXQpKlK3mUpIsDvqFidNIkWJ86aMxQKxN4dc5eekJRyZl+XYWliY3CAooUbBYFxcpMPEtmxhRyclaRMzLyZ19LaF8mwtTLb6kBQaLgG6F2Iskm+ojXmXsuIaF1PjRZ7I9pMGIN09Hx+qjruU+KTWH5dut031AmKu1WFoUyszCXEtpQptJvYC6QQeIvaPlT8sMeSODJjBPqxRlSkgWTSnQw4HF8m8HAXjfTQBPe9p7IkKM5sDIYnXZqanZRUihLq2pqTcaccQpe4lTaVAFYKrJFukgRkTmbmD5GWlZmddn2zNNl7kjJOB1hpJILjqLXbSCDqYuNlrOFaP6Pa18yoMxPk0LOnRq51L6O3PNyLQqJaM0UJL3JE7m/Yb27fW1+F+iM+MaTmmZphEwwtLjbqQtCk8FJI0MZGt+Okb5oAaKaFpjpSwQxY5xGvCGDq1iluVEyqkyL04GSrdDhbQVbpOtr242it5baiy6lqfIuYjmpqQm3pOUmpxKJN51iUMwgKbC3UpsASQkE8TpFxkJ782hUOiNZ7RVyQEjpirXtorLhmSlpxU1VA5Nzjsi3KCmPmaL6G+ULZZ3d8EoIUNNQYZpbaOoE3jMpbqEqnCRwsK5zxxtaXUPc75AtqHG9+93Lb28LRX5PE1KOOZrUwzoy2Vmtgz1oicl5dC5+UmnC+2VocbadStTZAI9sAR8MRHEWR83h+vUPFmTknh6kTVJk5unLkJqXUmVcbmC2pTn2PULCmk663Fx2w8TW0XlxJU9mempirIcfmzIpkjS3xNh8N8oEFnd3wSjUaaiPpRNojKzEPLuSVdcRLMSTk+ZqYlXWWVstkJdKVqSAooUQlQGoJtFYEdgoArbjBfmSoNh/Z6xdhnEeFpyk4ipcszR2kIqE9LtvNTM80CsqlltBXJKbK3CQVd8kCwiy8ocKYkwRhFjCuIZySmvU51xuUelUqAXL7xKSsK4K1INtNIZXtonLWXkBUJmbqbBXNtSKJVylvpmVPOIWtqzRTvlKwhW6q1iRaPgztE4TnsRYbo9GptWn2MRImSJlqSd/Yy2VBCkOJ3bhQUTvXI3LC/ERU4xnijgqW8S01BVuW1gv2RUFc2lMG02iVufkJKrzNQoksJtVOdpzzDz7Sl7iXUBSblveuCu1h0x9G9oCgStXq5rryKfTKfTJGfbael30T5MwtaAhTJTqSpICUpurXUaxa4iIdAV3jma1bdxCE9kVW7tIZbNyLE6udqXKPzbkgmRFLfM4mZQ2HFNKZCd8K3CFDTUXPRE9wziij4woMliTD84Jmnz7YdYd3SneTfpB1BuCLdkWzDewVcFW17XZArJkLeqNSNuLjf1aYr7Hn3Yt/wCqt/SXFgyGlRqX5xv6tMV9jxSRjNsKUB+xG9P5S4oOYVVE90gDkx4IeknhDBSJhAbTYEg8D1mHgTKlaJSE9dzwi2WOSiybX4QiiE8VC8Y/KrVbvier+FHgm4I3unU9I7IrwIskPIHEG3XHzXMK3e9b3fDxEfHjpu/BYfHBbvbk6dBsNYnCFK8vOvKG6V3HZpvQ1zQVckq1H4R/B7Iz3rgG+g6f4MYE1rfvRw0FhrFQAogyTJPjiLacbf0xZ1K+1cn+Yb+iIrCe4Eg/DYX8EWdSj+1cn+Yb+iIkqNCy4IIIhEh4RUkufs6usqNu3WLcio2LB9zWw3zcdesSETzLEbosTb54c2b8Li449VobZXgNRe3Hohyl+AAF09AvBSsoWAFz4P8ArC3Guvh/6QiTqdfD2wa6dnDs8MERqT7YXPbpCWSBxuDCm9jpp1QhJvfQm3HotBQsGd6e+6NbRC6obz8uL3HLot/OETWd9roPBfoiF1Uk1Bi5H7u3ft74cIKVZ2M9MHVw9VNmfqlRGMj1p7mtIG9ruuafyzEnxoCcH1z9GzP1SooLL7LPNGt4VkqpQM25qkSL2+WpRMolYbAUq4BJ69YyJaBDjkiJEDOuv0WBPTUaVaHQYRiV5hTLtotkFrCjxhAbfhRSncezpJ+/tO+Qo88Hcczq9/idH+4o88Znm+VP+pb2O3LWG2Z7mk39rd6uve/hfNAFD3Y+KKU7jmdXv8TnkCPPCjJ3On395zyBHnifN8t+Jb2O3KPPE9+Df2t3q6t4fvkFx0L18EUr3Hc6ff3nPIG/PB3Hc6ff4nPIW/PDzfK/iW9jtyeeJ78G/tbvV1XvxV80G8QPbmKU7jmdXv8AE75AjzwdxzOn3+ZzyFvzxHm6V/Et7Hbk88z/AODf2t3q7N8+7+aE3j7s/FFKdx7Ogad3ecP+4I88L3HM6Pf4nR/uCPPE+b5b8S3sduU+eJ78G/tbvV1b3+cPxQoVrbfv4YpPuOZ0Wv3eZ0/7gjzwdx/Obpz3nb/6kjzxPm+W/FN7HblHnmfH+if2t3qW4+yjo2P8ZYXxPXVSszKYcE5vU+Zk0vtzRfbSgE7xsN0puO9PwRFMe5ATGJatVa5hrFPqK5PUyTpzcoyyW2g2w9ypbK0KCghwd4QjdIHAx8zk/nQT9/id0/8ABI88eu5DnMnhnzO+Qo88ZEOFDhUwzTcuh25YkacjRqh8i/PpbvWFgfZqcwpP0aqv4qQ+9S6hUqippuTKW1KnGggoSVLJsi17m5PTaMqQ2dEySqkDifeFSwm1hbSU0bCHHVh629r+623dPa8dY99yLOg/4+ZzyFHng7kWdHRnzOfBIo88XiQf9U3uu/6q0I0RuQkX9rf+y8SezgmVxZL4qGKFK5DEQr3I80tvfsXkOS3t/T3W9bstFRZk5J4youKZUUqi1fEDElIKTJc3YtJzcw5Ouvlub3Hm1JQkrQNd8GxNha0XB3I86ujPmc1/8Cjzx5OT2c6tTnxOX/1BHniuE9kN+MzTDzaHblRFiRorcLZJ4+Lf+yuGiqnDTJVVSYZl5sy7ZmGm1byUObo3kgniAbgRmFST+H8UUmcos6AQO7tOeQIj0Mns51ad3acH+4I88a42fKnPylnY7ctmLXnW+qJN+XS3erq3h7swb/8AnD8UUp3G86L27vE75AjzwdxvOi1+7zPeQI88R5vlR/qW9jtyeeZ/8G/tbvV174/fD8UJyif3z5opbuN509GfU95A354O41nV7/U95A354eb5b8S3sduTzzP/AIN/a3erq32/dfNCFTZFt75opbuNZ1e/1PeQN+eDuNZ1e/zPeQN+eHm+W/Et7HblHnieP+jf2t3q6Lo93HrlE9Dhile41nV7/U95A354Bk3nSD9/mdP+4I88R5ulR/qW9jtyC2J4f6N/a3erq5Qfvh+IQcoP30/EIpU5N50+/wAzo/3Bvzwncczo9/qe8gb88T5vlvxLex25T55n/wAG/tb/ANldQX/D+aArSeLhilFZP50D/HvPeQI88IMn85yNM+J3yFHniRZ0t+Jb2O3KDbM9+Df2t3q695J/Chd4e6/VFKjJzOo/4953yFHng7jmdPv7zvkKPPEeb5av2lvY7cgtie/BP7W71dQUkdPzCC6eg/qile45nT7/ABO+QI88Hcczq9/ed8hR54k2fLH/AFLex25PPE8NEk/tbvV1byTxV+qEPJk3Kvmilu45nT7/ABO+QI88Hcbzqtfu7zvkKPPFPm6W/Et7HblJtie/BP7W71dQUBoF2heU/hRSfcezoH+Pie8gR54QZQZzq4Z9TvyejzxPm+W/Et7HbkFsz34N/a3eru5QHpg3h7v9UUn3Hs5xxz5ndP8AR6PPB3Hs5vf6nfk9HnifN8t+Jb2O3KfPE9+Df2t3q69/rVpBvD3YilO49nR7/E75Ajzwncdzp9/md8gR54eb5X8S3sduVPnme/Bv7W71dl03vvj4oPsdiAQL9kUp3HM6vf5nfIG/PB3HM6vf5nfIG/PDzfK/iW9jtynzzPfg39rd6uobl774+KAKCeDkUr3HM6vf5nfIG/PCdx3On3+Z3yBHnh5ulfxLex25PPM9+Df2t3q7N/8AznzQb3+c/VFJ9x3Ojpz4nfIG/PCdx/Oa1+7xO+QN+eHm6W/Et7HblHnme/Bv7W/9ldoX1rPzQu8PdxSPcgzn4d3md+T0eeA5PZzAX7vE75A354eb5b8S3sduU+ep78G/tbvV2GxVvXHVFXVDJKUm6lUa2zWUtVKbrSaqxNiVBcYRyaW1sXv3yVJSoH+Ne2ghmGT+dBAtnvOeQo88KMnM6B/j3nDr/kKPPGLMWFZ82A2LMMNOh25ZEC8NpSpxQpR4r0t3pJTICbZpE3hj1VpwkDJuycpNCUWqaShw3sq690W4d77bsjPkMk6hR8QrnZWrSLsjMzSZ9wvyilPsvBKR9j7/AHdSneuQSkjpjCGT+dA07u075Ejzwvcfzpvfu7Tt+vmKPPGH6K2WNEduX59yyje21yKGUfn+TevjTMha1J+qD09X5CpzEzICQSJuWcdbfSHd/feJWTvKN77tgnimBnIOtSvMZtvEMnOzKZNUhNJnmHHGg0pwrG5ZYUd3eKQFE3Fr2j6nJ7Og6HPedH+4o88AyezpH+Pid8hR54pF1bKH+obr+/uUm99sk/ZH5/k3q4KZLcwkmJO6LMNpbG4ndToANB0CMrePELilFZP50njnxOeQI88ee49nR7/E7r/4BHnjbNs2VaA0TLex25a021PE1Mk/tbvVqY1w+nGOEqxhcznNhVpJ6T5YI3+T5RBTvWuL2vwvFUU7ZqbkqdW5FWLFueq1PpEiFGTH2MSO731t/Xf3fg7Y+ncbzq493idP+4o88J3Hc6t7vc957yJHni6yTgMFGzTex25Wn2nNvNXSL+1u9M+ZGUGOEY9w9X8DTDTzz2JX6xMPzEtvsSKOYhkJWkLBUFFHEEEb0fOobJrFWkZlmexitMxN0gybziJIAc6M/wA8LwSFCyN/vdzTTph97jedPTntPeRI88Hcbzq6M953yJHni6IMICgmm9jtyp84TRz8if2t3r1QchJ9irUCuVaoUeWmqNVzUnGqbIuBEwnmy2EpWtx1SibL3r8Bwt0x4rWzZJ1vCQwnN4mdQyabVKcpxqUAVebfS8Fgb1u8KALfhdkBybzq9/adP+5N+eAZM50+/vO+Qo88QYEEmpmm9jtyecJqlPIn9rd6x6Rs71Lfo03V6vRpaYotakqmDTpF28wiWQtIQtTrijdXKE6aJN9DeHpeTddptWplYw/ieWbelqnV5p8Oyh/cJ9YUoN2VotG6mxNwekQ3jJvOkHXPieP+5I88Bybzo6M+J7yJHngZeCTUzLex25BPzQFBJP7W71H8P7L1YkBXZqrY5E1O1ShO0ITBl3FrdJdDomnlLcN1lV7oSAkdEOmINn2v4pqkxjCpYuk2MQLYpTjKWJJRlUTci6pxJIKt5SF71iOI64zO45nV7+875CjzwHJzOo/4+J3yJHnhxML8SzsduTy+a/BP7W/9l6o+RFbXiymY/wATYol3KyxW3KzOMysoUy6iZIyqGmrq3gEpsSpVyTfhFh5fYU9YWD6dhYz/ADsyQcBe3Nzf3nFL9rf+Fb4Iro5OZ09OfE75EjzwncazjVffz1nVnq5kjzxbfKQIntTLex25VNtOcYatkn9rd6uCmqvUal+db+rTFd5h/do3c6c0b4fxlxKcvaLXaDIzNMxDXl1meadTyk4tAQXLoBGg0FgbfBEWzCuMatW0PM29f5S41L2hji1pqNa9FBc58MOcKE82pOlIKtxPC9tYe2ykDU3B4HzwyUdX2JJtp1X1h7Re567am/GKFcXs9OvDj/0hL6+2ueiFudPm7IOi1tPDBEl9OOl/hvAenUX6eqF1BvfW3GE6tND0dUApXwdvpYjsv0+GG6aI3Sd7Tp6x4IcniQFXPHjx18EN0xfsuBp2QpmiY58X16baDotFnUr7Vyf5hv6IisZ8FSTx3erpvFnUrSlyf5hv6IgoWXBBBEIkPCKjZvzhZ6Qs69WsW4dYqNjV9en4R091rEhE9Sw0HenwW18MObF+OvDjrr2Q2StrD9f9EObCdfajwdUFKyU3tfW30Y9dhB16Ne+7YRPAW1/9ULr0/GPwYKEmvR8Btw7IS3Wk+Afrj1bosOwaa9seVcOPw/0QRYU7ok9PXx1iFVT7YSx1P7IQPB3wiazt7Ho7OqIVU/8Av8uOt9Fu3vhBSrPxl9x9cP8Ao6Z+qVEXyVXyeV1KXb2qHT/xqiUYy+4+ufo2Z+qVEUyZ1yqpt+HJu/SVFLvZNFGgVTJRs75eqMOuvuS0m608totOJUSN0kA3vrwhw7rsn+M5D+YrzxrTKP8A2SaHSJp36ZjLDxJtf544rN3ktVkd7WxcgTzBYxjuC2L7rsp+M5DxavPB3XpP8ZyHi1eeKApUjM1h56VkeS5VhCFq5V1LY79RCQCogXJBAHGMdaHWl7jrbiSHCzZaSO/uRu9qrg6Dq7IgW5bpa1+M0PPQKeOfSoC2H7rsn+NJD+Yrzwd12T/Gch/MX5414WHmy8lxDjZlkpLgUkhQ3lbvDsheRmy/zYyrweUnf5LdJVa1724kW14QdbtuMAxPNT0f0QRoh5lsN3XpP8ZyH8xXnjz3XpX8ZyH8xXnjXuYZmZUNLmZd1tL6OVaKwQFouRcHgeH9MfBT2nCLUS8dswzhfFIPUNyce/Ur9Xnc2nE1CoMsJacXWJ1MqooSpIaSQo71zxOnCLcOt7GNLMLOb+Z+DU/6Wb+iuN0id0KsbR0e6U9Mz0lxky7EalXIbi4Ela85m7TL+A8yqlgZctJtNScrLzDb7yVq3y4FEg2NhawtDH7Lh0HR6jn/AGTnpRVu0dhOsYp2gcRoo6Ja8nTJB55yZmm5dtCVEoTdThCblRCQL8SIpyeolZp01Oys5TH23Kc5yM2dwlLC72spQukeG9jHfLGsax5mUYYwBiUqc14C07QtODMv4lxDK5ZLbY7XLnEvUcf7Jfng9lw50P0e/wCaX541FTTqkWmXjS5zk5jd5JfIr3XLmwCTaxvY2te9jH1kaTNTofUd1gMS7k0OWBTyqUEBSUaam5t4QbxtX3dsNgqWjtWvFr2scsZ7BuW2vst3eJeo/il+eE9ly9++0fxS/PGo6abVVOLlxSpxTqGi8tHIL3kt8N8i1wm4Ivw0jyxTajMoS5KU6ZdQrdAUhlSgd4kJsQOmxAtxIMSLu2GdDR2p53tUffPZ/Rbeey4c48vR/FL88J7Lh0nR+j+KX541DRJVJXOCmQfUJUkTH2JX2LWx3/c9Wto+0tSKtOOyzUpSpt0za0tMWYUA4tYuhKSRYkjXjwN4ejliNzc0dqed7WP3z2f0W01a2zJmlU92eaYpk442O8ZbbcBUfDfQRtLQZ5dTo0lUnEBKppht5SQdAVJBt88cp8S0StU6XqEpP0iaYXT1lqa3mVAMKuQN42sL9Bvr0R1Nwbf1p0e/RIsfVpjxF7JCRkuKMkKA1516y7c1NTTX+VGpCrvPvOp7KBzDwbk2HW6zMPMuuupUrkghAINk8bkxX42s1fv1I8Q754Z9vRe7LYKuP7smfq0xqmHAeIv4YixrOlZiWESK2pXtoLGFuYW43ssV/wCUUfxLvng9liv9/o/iHfPGnW+notBvDsjamx5D3PEq9xUP3VuL7LFf7/R/EO+eD2WK/wDKKP4l3zxp1vI6oN9PRaAsiQ9zxKcVD91bi+yxX/lFH8S754PZYOH+6KP4h3zxp2Fpg30dIvEix5A/c8UMKGPurcF/a1Uy0pxUxSCEC5AZd17OMW3kVmXMZt4AaxlMyTcqp2amJdKG72IbWUhWvXaOb760cmvQDQxvTsSm+REieufnfrlRordkJeVhNdBbQrFmGMABAVlZqYzdwBgio4qYlETK5JKDySibG6wP6YqyW2kUzEuh1ExT074vulpYI+eJhtMAJyaxAq34Df1iY0uadSG08LjtjMuzZUraEB7o4qQVyK/luWhZc1DZJxC0FvRrW0/sjSP7ppw/kL88J7I8/wCU03+Yvzxq5yyT0fPByiOqPT+jVm+6vBel9t7c9g3LaP2R5/ymm/zF+eD2R5/ymm/zF+eNXOWQOiE5ZPVD0Zs33U9L7b257BuW0nsjz/lNN/mL88J7I43/AO9U3xbnnjVl2oSbC2W35hptcwstspWsAuL3SrdSDxNkk2HQCeiPpyyeqI9GrM91T6XW4M+PPYNy2j9kanjzunA9ja/PD9lBnS5mTi2t4dTKNchSZZl8TKARyilqUCLHq3eMafB5NrxdGxksLx9jAdVOlPrHI01vWJJyMk6LCbmKeK9NdG8VqWjakOBMRSWmuVBqW2Mw+GEqctoEkn4BGq1O2w6nNoeK5Kmyy2X3Gi24lZICVEDW+ugjaadSkybxtwbVb4jHKxS0ibnU9U299YqOPW9OxpRjDBNF9W8HlhyVsxo7Z1mIACi239lvUeqkfzHPPB7Lao9ApH8xzzxqSVI6QICU9keX89z3vLqQuLYPPBHaVtv7Lep/6I/mueeD2W1T/wBEfzXPPGo5UB0CE3k34CHnqe95T6C2BsfErbn2W9T/ANEfzXPPC+y4qP8AogfyHPPGo++PciDfb9yPjifPU+PvKPQWwT/k+JW3B2t6gRxpB/2bnnhwwTtRT+KMxqBgkyUi8isOuIdcZCklkJbUoEX4kkWjTflG+G7E62fFJVn/AILSBpzl4fGwuMuRtecjTDWPdkStTb9zbGkrMjTEGFRzWkjNdHykBBtreKpxDnE5RcXVLDa2GW0SHJbji0lW/vICjfhbjFrKFk2B0AjVHNYgZpV/Tgpg/wDlJi/fu05qyrMEeTdhdUBcmujZsvas86DMCowkq0052K/fpLxavPC92xXS7J+LV54oULOiiOmPvLSc3OtPvy0s861L6OLbSVBs2vrbssY4/DvneCKcMOMSeobl0OJc6yoQxPFB0lXl3bD+/SXi1eeF7tav32T8WfPFBh4IbJVdROqbdMfRpXLOsMNm633Estg/hKUbARLb53geQ1sUk6qCvyUuudZTG4iMtdVfBzrVw5aT8Wrzwd2xVv3aTH+zV54oTlArdAO+ki4UNQYUELSpY3khPE9HG179GsPTS8BdgEY16huQ3NsqlSFfBzsN/wB2kj/s1eeG+uZ+u0inP1BtEtMLZRdLSW1DePVe+kUuFakbxNoba+sppMwektm8VS19LcfGYx0c5kcw101I+5lmMYXBugFbw0yaVPU6WnFJ3VPtIcIHRcXjVvbr2wq/slymDpuh0Cm1JOJJqZYfVOldmUtoSoEBBF77xjZ7DmlApw/8I19ARzS/q2wJw3lhb/L54/8Aloj6PhElgrqXFngB5ATGn+rC47ULnC2EPimPThf68Jjn8l8IfFMelHOWl5ZZh1rDT2MqRgmtTtClt8zFSYknFy7e5bfKnALC1xfqvGJg/BuJce4glsK4SpjlSqs0lxTMs1beWG0KWu1z0JSo/BFapXSX+vCY5/JbCHxTHpQf14THP5LYQ+KY9KOXw724KhcdUCb2JK7W/VAGqLqD/Xg8dfkthD4pj0oP68Hjr8lsIfFMelHL+9xoo6wm9fTegi6g/wBeDx0f8FsIfFMelAf6sFjr8l8IfFMenHL7eCTbeN49W3uBvbib3gi6eu/1YbG7aSv1rYSNhewTMenG+OyDnnV9ozI6j5q1ukylNmqm9MtKl5VSi2kNOqQCN7XUJv8ADH51p6RnKc8Zafkn5Z4oSsNvNKQrdUAUmxF7EEEHpBEd2f6lff2GmEv9Zn/+ZXBKLaqRuKjUvzjf1aYrnMX7tGtL/sNvT+UuLGkvtlUvzjf1Yiucw9caNHh+xG9bfwlwROlIJCU27NbceyHpB0Fk27NdIZaQO8TcdF7aadsPSOAV1jjYawUL38HHs9tBrfp8OunZB8XowfB8HX2wRB00sfB1dsKL2v09fuhCW04/Dbj2QEaEbov1dXbBF8XhYW4W/wCGG2Y0B0OvRr33bDi9wta//qhvf0Tf4+yCJknyrrI7f6Is6lfayT/MN/REVhULa2Hwf0xZ9K+1kn+Yb+iIFFlQQQRCIio5cgPOkEWCzc6aaxbkVHLlXLrB47yra6cYkInqV4Dhf4IcmCNNRu9fbDbLEbo6R4emHNjU3JF7a2MEWSOnr6eyDQW+bthBcAW6eGphQb3/AOLUwRKQLcbDphFG3EC/V/TC634i/RqY8KII6bdGp4wKLDnVafqvbWIVVNahL2/yhF+GnfDhE1ntUq8Fz/0iFVT7YS1z/b0W/nCClWfjL7jq5bX9rZn6pURPJrTKmnEcOTe+kqJZjL7j65+jZn6pURTJkf2KKdb96e+kqKXaFB9laltzY5zOJB4Tbw/4zH252q3C8Mapncnp9O/wnXx/xmPtKuKmZ2UlQSOcPtMlXud9aU37bAkxwaPLujTbobNJd9VhEZ5qUUWvNUbn77knLTKnhKKaRMMh1CVNOLWpViQArUFPHWMhnEqVv05U04+eR52X1JNtxx9Th5ZA4FaQ4kg3FiNCIj4pM07R5muCclWm2ETLqW1vWdcQwsocUE9Q0PHWHl7CjCGJafFRaSHanJU7minRyyy80hwqSbWvZV+wXPRG9gQrWhBsNrfVbl41VdHDJOnq3KNzD9ZTNLnJeXTIyqDOK/ZE0W5jlVFYF9N0EX1FrAmPdXxdTqpXXHhNzMtLrkksJm2JYImW18slwjd5Q3BA3Sd7gTp0QySeD6lPyhq8s8wiSTPCUWVqO80C5uXUd23EpuAem8fCZw263UZmiyc6xNzDFQXKmYbd3WghttS1lV+G6lKiT0bpjIMW1YjcIYAOrSqvWbzLJqdeNQlac2uZmlOyjTjBbcXdtKOUUpCk6+2KVAKHRujUw2qmyRx+ePs1hidcm3GW6lTuQQhlwTXL/YVodWpCClX8ZJFrXBGvTDJNLck5l6VeUOUYdWysA3spCilXzgiPOz8CbLuOmGU/orVHHMp6wzWJKm5l4QnKpNsykqzVELceecCEIASvUk6CNrcRZ65R4ZpqqrU8fUYsIWhKuQm0PKG8oJB3UEmwJ1PRGoGC2JOsZp4Pp1RlWZqWfqiEOsvNhxCxuL0KSLERuDibI/KzFVKco9ZwPSFSrikKWGJRtpSt1QUBvIANrjUdPCOn3F8nZIftq0xHQqXCZwHiKV6VqHnDm9h2nZyYurOH10mvsVmkUdMmpbTc3KOBqYS6sLBuAdxJCTqQog9EMjmdOH04dxHSZVdQD9TmJ6YZcflEOl9MyhICHDyg3dw7wCiFaEEAWtEe2qqLR8L55VGiUGny8hJS1LkUtMS7YQhI3VdAiCYJo6cU4womGXZpcumqzzMmXUpCigLUElQB0JF473IWVIxJNk08HRprzDWvFTU/ONmTByrVXE/m1hpdNYrcjO1V16n1yiTq6PM7iWGG2GXEOIlhc3BIuSQLFSdOmI/P48wZKtqkMPmrTDAo1QkA5NsoSsvTE0l8GyVEJSALcb38MNbeVjeK109zLaqTdSl5yafk3vVKWDDsu4y2HCo7ilBSCgk97rcWtDvS8mG6dL1ZvGb6RUpSp02ly0kzOhpThmTcODeQd66bboO7+Hf2sYxg2PDaXueTU6NSycdpP9VrAE+0XPakS2JsV1mfdqCW6vMtTNPmDLCYW203v2YKC4ndQSq9gSAb6axH5PN56Qp7cnK1CpybfqE7JKZl17jaZtc0XQ4kJVoAg7oVxHARG6llpWpenTldYmaemTZbemm5Vc4DNGWbfUypdt0A7pAurS99BxiRT+T0pKO0+oJrDIRPYiTRDSzMgzOobN0rtuknfB1GgIOvCL7odiD16nPpKsB1pu9SngpBJZ4YelZfFCGmJmXeqk69OyyzKJdMwlxhLZadu4ndAUCb2X7YmwMMxzhbapLUlLPT6nJOWoaJVsq3G0PSagXiBfvd/vgCBcjjEUnMscQs0l2sNOyFkMme5gqZBnOZlzcTMFNrblyNb3sb2jDxlgGtYJbS7Up2mTCTNuyDolJrlCxMNgKLaxbQlKkq+GMiDJ2M94DX1J6SrUWZtFgqW0p0KX4tzOw3UaBjWQdn65Npr08udkUPIDZQte6QXHA4bpRqgIIUCEg96Y6KYQmWWsIUhxx1KQmRYJ3jr+5iORFUfBllJJve3THTigZDZV1LD1Mn5rCrS35mSZccWXndVFAubb1o83eiRlpN0NuIgH47lu7Cm5mOx5YASPh9FRe2/i3DuKKTgydwzW5Opst1GbZcXLPBYQ4GwClVuBB6DGrvOTYXPCLu2sckcv8AJil4VGDZJ5t+p1GaXNPvvKWtfeAga6AAnSwjX/lx7r54yrKMFsCkBxLekUK9vZ5jOgAzAAd0GoT9SZKqVyoNUmiU6Yn51/e5KXl2ytxdhc2HE2AJ+CFrMnU8PTi6dX6bM02batvsTbRacTcaXB67H54yssaxTKbi0P1irN0yVdp8/Kc7cCilpx6VdbQTugqtvLHC/RFmYOzDy/w7UKbS6pVJKvTdIojsoxV51DxlecOTQcKAVIW5uhq6Qoo4qUNBFUxOxYMXCxmIUV8xCDQBVBLOKm5pmSYO87MLDTaQQN5RIAF+HEiFn+Upk47Tp3damWFqbcb3gd1QNjqOPhizHMfYFnMOzsm6qjU5XrrRUZeVkpZS1uM86bKgvlG7hgNhSklKgeCSnW8TSt+p7GUs9iekCQ9T6jUnZp4uSzaUCWVUlKStC+TKi6W9xPJ74skHvbxjutV7aHizmnHHUte0TYNwlxJKeOsKZknioRMs1sc0HFUoymlGQ5xLVqo8iJaSRLgSCtwsCyUgEb2+ddbkxXJfsLE/HGxlph0ZmJworjTizTi4/dtWvQY302IXEKyEp53wQZ+cIsf88qOe7j6ShQKtLHpjczZByfwPjLJSn1yts1RU27OTaFFmrTTCbJdIFkNuJSPijU28YboIxupnqr9ViTxeGDi21+NPorX2mK/R5jKfFVGlqnLOz8owy49LJdBdaSpxNlKTxAPXGlTcwdwC979UX9n5sy5e4SwrijMqmu1dU6iVZRLtu1B1xDVlJSSSpRUu/UokDqjWtqZUEC5uNL3MbO6xl4cF4l3l2YrUU5lwu/3HxZmG6YbhoDSmfOpK3S60ulrriKVOGnIVuqmuSVyQN7W3rW4xhmaAAO/7bQa9MSdVYw/UqXhyamMUGXapMpLyk7R1trBmNxwlxbYT3igsEk3IN7w61DG9AbqEq+7UqVUZuXl6juTLFOS2yhK2xzZpSCgBSkkE3IITcDWM99rx2Eji69S0jLvyzx+/AGWmmfjl8VAec2sVLIB4E8D1x9XjMS6yh9pbagEkpWCCLgEadoIPgIiZs4ww28/ihb0zT2EVKlyieWRKgvKmkyx3w0jcKQC8TvaptopJ0j6YmzJk6k3VKsxPyj05OUSRlZRtckjeYdSEJfbN02BNlne171QA4WFIteYOfEkDpVYu7KAGsyK0rzb0uTDGCKpi2dkcxXJROHHKJO+qCpp4soQ3ZB3w4CFNqSoJKVpIUlQSUkKAMRXFMnTaBi+u4eoVYmqxS6VOqlJapOyMxL8oQVgtLLjSEOOIKF3WyVNrTuOJI3yhD9PVXAEzOU6puTMlNMPV2nVByUMmbybLUo4he9cWJDpQSkHXdB4w3PVqRpeDK5heSxHKTLr9SlJ1TiGFFE203KJlghsrTdO4htgfg3DZ4kqvgQpqZM+ZhrSGuoCDo5s9C3EeRs/zO2Uc9rntq4OyrnXLT1JiMz2xemxO6F47xiSdPU6U1/2jka6CYF9P1xb+yNh+q4oxli6WpWLalQFsSUotTsglpSnQVr71XKIVoOiM68b2vkHNJpWma1ty2OhWqxzRXT8lvFOutJlXklablCrC/ZHJ5x8JnZ7h/wB7f4/nFRvZjvZ4xziatUWqNZ6YnYbpC3XXF7rQdIUm26nk0oBBtrvbw7I5/qcUzMzbSnFLKJp5O8q11WWdT2xw+9cCEyFCMOIHE6RQinavsTgom4r5mZD4ZbQChqM806maFrXEJzoJ74kbo4w2cv2j44UTBH4UeI4s1zXbuPro0qWHCeMBSPXD616oKZyXL88LB5Hk/db3C0Mgn2CE7rqTv23dePR+uLCy8x5hSjUTD0hiiZXNtyWIpiaek3OUcQllUnybK1DUFCXbEiyuvdMPE9mDgmfq+LjMO4fp7FTpjLHOZBpb7jryW3LmXDjACiVFCVgpR0EHTXaeboLmtc2JpXk3Xjn4EaJDfLF1DkRXPNVU4t5hfJvNqQrdSuy0kHdULpOvQQQRHz5xY8YkWaeMxjGYodRaqzUyG6RKsLYEuGnJZ5CN1xK7AXuoXBuRY9EQvnNzfeAjXx4AhRMLTUL0MjPRJuXbEitwuOkJyExrxie7Ojyl7QuCkk8Zh76hcVhzjrWLRNMhqZK4gz0wlR5qZmmmpp19C1yrymXUjkF+1WnVPhEZNmwx5UzEaZrWXoik2RMAe6eddQZ2ek5CXVMz000w0myStxYSkEmwFz1kgRqbmy8O6viEAggGX4fmkxZeOtl7C+LMMzdAGLsWS6ZoJSpx6sPzCUgKB1bWrdPDp4cYofEuEqfl7jOp4Spc7PzUvINy6Euzsyp91V2wblSj8w0EbDhKgwDYYc19XYxlQ/NcT4Oo0w62yx8OjcBzqPkvqhxR3uqHjD9cRRJMzK5VT00mp84ZSmZU0lA5rye+tIH2Qb2m6T2xF+d2AG9YQ7USkKrbRcbqUuw4qb5jLtvBV33uS5TdBAIGnSqwjidhRJ6BHcZBmJ5aR8F2K24ElEgtE87CyoPxTtJz7CVyTKJuTl3ZWlttS0w/LhTbc0eT5RblgbkpSpOoNri0Z9OqtLl6q/ONTdOl0pqDbjinpTeDzAaAPIix5M8rvq0ItvJP4MRFyQrLcizVHZF1uSfeSwh8p73eUrdHwX0B4Hrj6TFMqzEpOVJMk+qRkn1sOTAT3oKVbtz024XNrXj0cK17XggRTLVzP3TWq0DrKsqI4whMUy0YhRfdSZdeEmAidbTOs0lEiqTAIWp4TqFqc3va6tAgG99SOiJDN4gSwusyMnUJAsz0oUyZTLjcbaS6FIZI3QQvkyoX11trexiNCiYiE3LSPqU8XpttTrQG6d5CQCpVwbWFxfXS46xGMiUqr1MdrLcg6qRYcLbkxu96CDY9vHieiMeLbFpYDWWDdNThPOsiFY9nEikxizy9Ya8l9EuqKbcNTDbiJ/dpL4udWyI+nOlWtwhnxTME0Z4qJsRu6GPJSbCJiGOkfML1M03BAe7oPyW/GH3G28P09S1hIEo0SSeHeCOZ/wDVq5+Tn8KZXTkhMtTDK56fKHW1BaVd4jgRoY3lkMhcLT9ElZleIcWoW/LIUQmvzQQCUjQJC7Aa8I5p/wBVDyMo+R+AsvaZTK/Vao7UKpPPPuTr5UgHcSQEN+1RxNyNT0x9eQoUDiMWP1sqCmn4r5VfFmTMYTDGHOpr9FU2Ecxsv5nY8o+Xsxi7C8rXqTXKnOzMrVZmeZmksOlgoMslgFp1SghYId73h2xbbG0ls8ozMkMSMTWEqY3hrG08ukTFPoaJb9p3aMtFnC2gFxBmiB31zck8I0uyMyYr+feYktl3hysUqlzc1LTE1zqpuqbl20Mtlat5SUqI0GmkTCV2Pc23sEY1xu8inyqMEVc0SYknXFc6nZpLrbTiZdITZQSt5oEkgd+LXi05ZQNVsVlTnfs6TeMqHjzHdSwhI1Z3BsjLVeW9Q2WZOYnETrvLpITLOBDgl+SsEIG/oCoWhoxHnNs5+sqq4BpUvhRVKnMM4p1RRm+dComoqcpiEPlHKJPIk7tlAAHWNfmNmDMik+rTOOMO1mhTMlSFVWRbRJpmUThS+hlSCtC91AClgKNzY2BAvGbQNi3aNrmMqVgiby8maLP1hMyqVcqTqGWSWEbziVLud1Vt2yTr3wPDWKQhK2Rw/nFs3U7Mx6sTtVy+ncOu0FTOCZBdF5saHMbrAUmfcEsu61bjoCyl6xJOm9pjYe2gtnekVN1oUbL6XkqvimuP1OXRRUzjKJNUgjmwZceZC0tKmUkgAJ8CRx1QmdnLO6Vw7NYrey5qopEnMKlnpxKUrbC0uhkkEG6kB07m+AU30vGZWNl7P6gVOlUar5X1iTna268zItOhscqtpIU4m+9ZJCSFHeI0IPTEnJQFtVl7nts0nEC8VV+m4IXieo4Qo7a3Z2nCUpyZ1t97nzakty7qW1ra5EXS13wBG8k6xFm878gkYKmMIS9MwbKSlRpeMXphtuioddanVTJcpKGn3Gw6lNtUajT23VFDSOyftF1GoVOj0/KeuvzlIWhE62ltH2JS2y4jXesreQN5JSSFdFzDLTtn/OerUGQxPTsu6vM0yqzgkJN5DQu++VlG6hBO+rvgU7wFrg6xBOSkK6tqOq07PtK836VmFht2lYdwxRpVuURJCWmzOrQ209KqCUJ33Aptx0alKWxYEaCOmv8AUrzfY1wnpwmp/wD5lccRsd5d46yvqicO4/w5O0WbeaRMtMTFil1s3AWgpJSoaEXBPSI7cf1K+/sNMKX6Zqof8yuJ6VFVtVI/bKo/nW/q0xXOYZtjVscf2I39JcWPI29Uqj+cb+rTFc5iXONGh0c0b4fxlwUpzoxTyaTfQcDD22B0gX6eGkMtIKtxNrXt1nhD22dAL+CChKb9BHYNNfDALdJHaYOANz4df1QvfdFr9Gv/AEgpRfwXtw0taENrXJ06IW9xf8G/X0wEkX4X6YKFjvkWPZ7bhp4Ib5jhwHZrxhweva3xa/rhvmT3pJB046wUpkn7WIuCOk9UWdSvtXJ/mG/oiKxn734i9vgizqVb1Mk7fvDf0RAqFlQQQRCJDFRsAF5ywPtzprc6xbkVGxq8u5v3x763tdeESET3KEkA36OOtvBDmwB1EDoGtxDXKgWACRbju2+eHJka6/ziOPZBFljh4ePHWF6R83HvfDCAC3R8XtYLX1tx7OMFKDrcAadI11PXBqL3OtuOtj2QcNOHb1dkIo6e1+C3Dtgiwp32pA+Djp4YhVT1n5fo+zouevvhE0nToe9+HriF1O3qhL6HSYb6OHfCChWhjP7j65+jZn6pURPJvXKinAD+1PfSVErxn9x9c/Rsz9UqIrkwkqyrpqQLktugfz1RS6uE0U6QtHH5opqlSSpR0npj6xUfSXqKpaaZm0Hv2HUPJB1G8lQUPnESatZA5v8Aq1UFytKl1tOTTziFcooXSpZI4J7Yw+4JnR+J2PGL9GOVRbv2j5QYsNudahYpYarDXimbXT3aaEoDLrEzLnQ3CH1FS7dtzpGWnHVUG9vol1/smUm295u/JOS6QhBR1XSkJV1jqj13BM6PxOx4xfoR5XkJnTbvaOzca6Or17PaxfFmW309qkl+kr7d0WuCjrorIYQ2q4DoQS4By3KgA3tovW9rnpJsI+Jx5UhU3ao1LSjTr8yqZdbS0OTWpbRbcSUnoWlSt4dJUYb6JlBmriGTVUKXINPMJedYKi6sWW2soUPa9YMOIyDzn4ijs+NX6MVusy3AaGvaoYXPGKqSZxvOvPuOsyspLNOIl20yzDW600hlZWhKBfTvlEk8Tcw0TVTXOTczPO25SamHZldtBvuLK1W7LqMPPcEzp4eo7PjV+jB3A86PxQz41foRixrDtaOKRASqi1x0rxljMcpnLghJP99kaX/gLjoOeBjSTKbIrNGnZnYcrtbpzDMnS54TLy99RJSEkWF0jW5jdy4tw+aPZ3cko0lJmFGFDVXYYwhcz9tRe5tGVkA/3skT/wAKoqPDeI5/DFep2IqcGzNUyabm2eUG8kqQbgECxt8MbR7VGzbmfmDnJP4wwzLyrkhNSUqwgrUoK3mwQb2SeuKj9h3niR/3KS8Yv0Y7bZdtSMGRZAjPzpQheHn7Lmok06LDblVMic68Ty9UkqhSadR6ZLyKn1Jp8lLFqWdLyd11Tg3t5SlJAF964tpaMNzNjESp56ealpJoPVSSqvJJSsoQ9LA8mlO8ond743F7nriUew7zy6JOT8av0YPYdZ5f5FJ+MX6MXPL7EyyHYqfJLU6VEpnNHEc0w8w8JTdfkH6euzZH2J18vq6eO+TY9UZjmceKXXucusU9xxFYZrbClMEmXmUBIUUa6BYQkKGug0tD+5seZ4ISpxUnJgIBJ+yL6NfcxiUPZTzkxBS2KxSWZJ2Umk77TgdcAUm9r+17Iq8usbDioOxQJa064TWqaJnN/Es1RfUd2WpgcLHM1Twl7TapQOcoJflL/uYUOFr20vaGzEuPqxilmYYqQlgmZqj1WVySCk8u6kJUBr7WyRpE3Ox3nkeMnJn/AGi/Rg9hznjx5lJeMX6MIdp2Mxwc2gIUPkbTeMJBIVO1F0iXPXcR2Nwei+FKL/qEv9WI5qew0zvmVBlUnIo3iAFKcXYf8MdMsNSrshh+nSD9uVlpVppduG8lIB+cR5u9U/AtB0N0F1aLe2BJxZRr2xG0qtRf6ourkqdgZVz/AN9mvq0xpoZnQaxv9tq5N4zzcpuGG8HIYW5Spp919LqinvVoAFrA9Uar+w8zy/yKR8cv0Yt2XPQZeXDHuzXrIMQMFCqoVMAg68dIQvpPHoi2PYeZ5f5HI+OX6MJ7DvPL/IpHxq/RjY+dZY6XK7xzVVPOr6306rwc8c5Pky6soBJ3N7vb9duuLFxBsu5vYXpaqvWGpJmWbcaaUsLcNlOLShIsE9KlAQ4jY9zzN7yclp/nV+hEG0pcAOqoEzDLi2uaqlMzcamF5yBFqnY8zz/yKS8Yv0YT2HmeQ/uORH+0X6MVedZamblPHtVUuTQDaj2GOiewgQ5s80tVh/3+d+uMaiew6zwUkgyUjr/nV+hG8Gyjl3iDK3J2nYSxPyPP2ZmZeWGiSkBbhUBqB1xprYnIUzCa1hrmrMeLjGS97VgIyKxT31rMN/WJjnu3M2Qk73QOMdH9oLCdVxzlPiDC9CQDPzrKUshV7EhYNtAeqNH/AGLmdqe8FMlbDT90V6MZl3rQgScFzIrqVNVzK+NizdpTEN8syoAKgRmiTck/AY9Jm7AA3MTz2Lmdh/vdKj/aL9GFGy7nbfSnSp/2i/Rj0Xn2S99eO9ErU08WoEZrpH69YQTXUPjMT47Ludp09TJXxi/Rhsoez3mviOWenKVKSrrbEy9JrO+sWdaWULT7XoUCIefZSmIPyCpN1bTqGmHmVFBN9Nze99DrAJoWseHhiejZdzs4CmyvjFejC+xczs/Fsr4xfoxAt+U2iueiNqbNQJMzf/8AzGxmwQ7yuOcbqvr6nyY/8xyKv9i3ncDpTZXxq/RjYDY8yXxxlliDE1Zxcyyy3VJWXYZS2ok7zallROg90PijU21astNyZhwnVNVvbtWBPyFosjRmUAqtnZ7vZZ4p6UK/VHHuaeCajPpPETj/ANYqOwk0lbks6gX3lIUkfFHNSp7H2dwqk6pmWkFNuTLriDyqxdKlkj8HqMcttmUiTLW8WK0X0hce1pWyosV0y7DiAVQ8qqDlVdfzxansQc9R/ckj45fowvsQs9OmVkfGr9GNB5qmh9xdF9MbJ2wVVJeKQe2Dl1cbG3hi0zsgZ6H+5ZHxy/RjA9i7nD6unDZRImoCWE5yXKOfuRVu39p1wbZE0/IMKodfSyWGpihV0HVEHQgk31MLyp7fji1BsgZ6AaSkj41fowexBz0/ySR8av0YCyJn3FX6Y2TzRgqqLx7fjiytmFwK2jMEA8ecP/ULjK9iFnpw5pI+NX6MWHs+bMOa2Dc5MOYxxExJokKW6648ULWVEKaUkAd7biYyJWzpiFHa9zaALV2zeqzZuQiwYcUElp5lvwUgoII4RpVng/yWcuIUDTvZc/8AlCN1VmyQq3hEajZ45Q5lV7M2q4hw5TmHpOcSzuKU4Qq6UAHoPVFV87Nj2nZ4gy4qcQXPbn2hAs2fMaOaDCVWBmL8f1w80PG1SoMoqQkVqDExOKfnGwqwmGFM8kplXT7XUKHAx8TkhnXa4ozHjlejB3Ec6T/eaXva37sr0Y5hI3Zt6z38bLsIdrXSp28dhWgzi47wQnBzHM07hySoAbdSmQLLQUHE7jjDThWEqATcq4XVfouAISbx1NTeGZrDyEOsF9T6W1tugJDbrxdKVp3SVak63GltNIwO4fnP+JZfxx9GG6u5VZr0GQVU6rTmGZZK22VL5RR75xYQke16VKAjbiz72RDhbXPoC1Lpy6rBicRl0lTCbzKQ9OyD7FKXLtyKn1lpp9ISQ4EDcACLBA3PakG4PG9jGB6/Zn1tv4cZlDKtlb3N+QVuobaddLhQpJBJAKiBrwtpDf3Es6Ta1GZ6LHllejCdxDOr8SMeOPoxbiWdeeI0se3I5HQq2Tt2YZa9jswajSU3854m4+Aw1YkmiaWtF+PWYk3cRzqvc0Vnxx9GPm/kLnJUUpk3qQwlLhA3i6rTUfweqNTK3NtaHHY+JCyBW3mr22VEgvY2JmQt68OIvQKbc8ZVr6Ajmr/VuABh3K+3+Xz/ANWiOmFFl3JSjyUs6e/Zl221EdYSAY0y/qlOy1mDtM0nBUngR2SQaDMzL0zzlShcOJSABug9Ud+hCjADpouFPILyQuP2S2aTmUGK5vFLVLM+5M0apUhCA7yRQZqXWzygNjqneBt09kXhXtu+s4ib5CrZeU59ldDp9OmZYvkMzc6xOsTMzOOpCe+L/N0IUL3t0mJMf6lPtC8EzNHH+0d9CE/rU20Na3OaMf8Aau+hFxUJqxzt7M4uaVLSGVxpzPqbOU1ttVTS5uB+dYmrpCWUABJZ3Am3AjU2hoktt2blMZy2LVYCS/yOOKji9bDlRUN9uckxKrlQvcukhNyFgHo0iWD+pTbQ44TFGt0jlXfQhvq/9TFzzo66e1UKjRm11KcRIywK3TvPKCiE+00uEnWJYwuOQVLnNbmUxP7bT/cskcrpHB1RkZWky66dIrYrIDbkiqb5wG5hHJFTqxcpuFJB0JTcXj3L7bzSsUP16p5Yy9QYmMVVLEpln57e5LncpzcIQVNkBbei0rKSAQO9iVn+pT7Qp1VM0Yk9brvD+ZCf1qfaHH91UXxrvoRFc81XkmLFW3i/iPEUlXGcvnJNuTrtFrAYNVKitNOliwGioNi5Xe97aW4Q0UvbNl6ZXMF44Xlih3FWCHHJeRnE1RxEs5IreecLK2Ai3KWfWnlL6aHd0iaf1qjaGtbnVH8a76EH9an2hT/dNG8a76EKIqC2g88Xs8cSUyucwqUlLUmQ5jLtT9QE24hHKLcNlJbbSlN1myQno11jsV/UrjbYzwmD/lU//wAyuOeX9ao2hibmZot+suu+hHUjYcyexPkTs8ULLbF65dVSp78044Zfe3CHHlLT7YA8CIgADQmlXhIH9sqjp/bG/q0xXOYemNmrceZt6/ylxYsh9sqj+cb+rTFc5ifdq1pf9iN6fylxKJ0pB+xJFjp0aw+IJOt9TxOusMdHB3E6jha/9EPbYFrbttOHV2wUL3wtY26uzwwdBvqOka3PbBx03b/B7aEseNrdtuHZBSlHh169bQWBHA2vw10hLdG5/Jt88FwBfr6evsgi+Lw43Fx08e+8EN8wTbj4OOkZ74B7LdNvaw3zQO6e849FuMETJULkHTpvbW8WbSvtXJ/mG/oiKyqHSbgH3VuHZFm0nSlyY/zDf0RAqFlwQQRCJDwio2NH1j+EbDTXWLcMVFL25VZHDfN9em8Sie5b2oNwR16Q5sjW2lx4NIbJYk2ta/zWhzY4Dq6NYKVlJsEi48HDXwwpCb6/Dw07I8g2BI+HX9UKLXvcfwdf1wUJbDhpe3DTWPKrdCtOvTj1QoIt2X111hFXvra/TrpaClYE9bdJPVqNNIhlTP7YSwB/t6LdvfCJnO6Am+nRELqv2wl+H7u3f+cIIrQxn9x1c/Rsz9UqI5kdrlnSLge1c+mqJHjP7jq5+jZn6pURnJJxLeWFJWrgEuX/AJ5iCQBmnMp/YdAEJu+D4oiis1svWlKbdxXT0LQSFJLvAg2hO6xl1+V1O8bGP5VB94JQqWbvTp8UeXbJSdBEV7rOXP5XU/xkYtTzUwM7ITCadi+lpmeSXySnF3SldtCesXipkzBc4DEO1Uvq1pJTTkRb1nT4tfcrtTGo/wDFORZgCbcBGtGzNmVNSeHa21mPWKNTXDWpsyzLZUCoF0qW4Lk94VE7vYO2LpTmxl0lIvi6nnT98jJnY0GFHczGD8Vh2e/jJdrqKXd71D4oO96h8URPutZc/ldT/GQd1rLg8MX07xn/AEjE8qg+8FnUKlthxsICAYjEhmZgSqTjchT8USD8w8oIbbQ5cqUeAESXft0RW2LDf7JqlF6tBujqHxQzVPF+GKNMc0q9fp0k8QFBuYmUNqIPTZRjFGY2AtR686ILdc+16UX2w3uFQCrZisGkqRbo7Pig3fB8UR3ujYC/LWh+XteeAZi4C/LWheXteeJ4mJ7p7FHHQ/eHanmogGSfR7ptQ+aIPkUr+xXQhp3jS0adjihGVinMPDKsPVD1Axlh1VRMs5zUPT7ZbLu6d0Ksq9r2vFZbLmP30ZXy6Mwq7h6lTbczMIZlBONpWhoLOqrq4lW9b+DuxmMlohlHup94fIrAfMsE61gz9U/NbCBIsLgfFBujs+KI4MxMBga40oZ/+4NelC90XAXAY0ofyg16UYYgxPdPYs/jofvDtUi3U9Q07IWw6ojndFwL04yofyg16UPstOS04wiZlXkOtOJCkLQoKSoHgQRxiHMcz2gqmva7QV9bX4iF3R1CGLEWOsH4Q5H104lptJEyVcjzyZS1yluO7vHW1x8cMvdwyg98vDfyi154BjjmAq6FTfdHUIN1PQkfFEI7uGUHvlYb+UWvPAc8MoLffLw38oteeHFvHMlCmjaISk5VVI2Hezcgr4pxk/0RZEtYtJFhcDXSNbtqHOHD09lRPNZf42wtUp8zEupyVVPIUtxpLiVXQEqvcEJPgBix8JZ3Zfet6nqxPmNhVqqmWbM6hmot8ml7dG+E3Ve1ybRmvl3iTY8e8fotfDeTPPZQ+yPqrPCYCm8Qju25Qe+Vhz5Ra88L3bsoE/4ysOfKLXnjD4p+orYUKmwTbSwhbDqAiEd2/KA6jMnDl/0i154lVJrNMrsi1VKRPy87KPjeafYcC0LHWCNIpLXN9oUShWZfrg3R2Q2V3ElGw1IuVSvVFmRk21BK3nlbqUkmwF/DEZ7t+Vh1GN6Xb87/ANIqEN7hUBWHzEJho5wB61OdxPuRC7qeoRBTnflX0Y4pnjP+kHdvyr6ccUvxn/SJ4mJ7pVPlcD3x2qcKSm5Noq/Iewodfa0O5ierJF/9ZX54cpvOzLQyzolMcUoPFB5MqcJSFW0uOqKX2Zs3UyMpilvMfENBp4XXpp2VQ0pQU6pbilLcFyfsZuN3wGMyFLPdLRHU0UyWDHnYImoQrr+S2lSlO9bdHXHrdHZEG7tmVadTjemeN/6Qd27Kr8uKZ4z/AKRh8TE91Z3lUD3x2qclKeyFsOEQU535VgX9e9MOv77/ANIeMOY9wpjCYfl8N1yUn1SyUqdDLm8UA8CYGE9oqWlVNmYLzhDhVSKwhLDotHyW+lsKUrgm5MYgxFRTxqcp45Pni04hukrIaxzvZFU47qeqDdT1Q3euCjcRVZTxyYT1w0fj6qynjk+eKeMbrVXExPdPYs9aBbQCK0tu7QaRYDfwur5plPnidqxDRdb1WU0/zyfPGuuO63NSGfU3iLF7l8EUvCU3UBO0yaeaeCWSFLbWplYJIstVr2IAvwjJl4jAIjqjJpWFOwYtYdWmmIcy2cA00EJbs+aKTq1cwfQ2VTFTwlj1pqVpvqvPqbrrj/MZPfWnlVhueUXBZtS7Mhw7o4X0jOdm8DutyaaNTMX1ibn5qflpeTkq3NcqoSbymZh4lyaQ2hpKwAFKWL8ogAbygI13lbRQUKy8Ct/dHUPig3RfgPiilMYV/LrBFSVTqxI4wW2zKMTkzNsVmbU1LJfcW0yFgzQcJW42U96hQFwVFI1DhTqlkxVJKm1CTxo6tmrvJlpRXrpnLOPHcs0Dy9t+7jYAvqVpte4vSJxpzAKksVt2I4CAi44RVKJ3JcsykyrHRQzPJUuXcXiucShxKb3UFF+1tDY8DbSFnpnJumU2UrVTxq5KSM+HFSr7+KZxtDwb/dCkl8XCeKj0DU2EDOtGkFMCtUJHSkQlh0JHxRVK57JdtyeZXjohymOBmcQMVzZUw4XFN7qhy9wd9C0243SocQYzME46wPLVudw/R8QpmZGZlJWtSU49VVTTT8u8gJSppxxaiUnkyoWO7rccYrbNsPtZdakQy7JuZVladQ+KK5z+UlGWk6vQcnOSCvgE21Ey9duGr29XZDyhPnim9qnElbfyumDgCZpNRmEzUsqZlluhTi2g6kgoAULkKCbjqvGdITEB0ywGI0ZjnCxZ+DGEs+jCTTUVerQSW06D2oj6W/gxFcO4skxQ5AYhr1IFS5u3zoMvpCOU3RvbtyTa94dBi3DQ09XpDyhPnjGdMQGuIxjtCyGQormA4D2FO1v4MG6L8B8UNXruwz+PpDyhPnhPXZho6iuyB/3hHninyqD747Qq+Ii+6ewp2J6ILdBEN8lXKdUC6mSnGH+S9sWnUrAHwRiDHODwtSFYopIUk2IM63cfPFxkRsQVYahUOaWmhCe90dQ+KDdHUPihm9e+DeHrrpHlrfpQevfBv5V0jy1r0orVKeSEgcB8UVnnLupmMBqtwxfI3+FLg/piZLxtg4j7q6R5a16UUXtL4wr5Rg57LuqYeqSmMQyrryHZpJ5JYUeTcJChZAJO94RGVJQ+NjhlaadKwrQeYUAvAro+a2LbAUno+KPVgNLD4oj0hjXCqJVoTWLKOXt0b5TONgFVtbd9wveMn17YOvf110jy1vzxjEUNFmNNQCnndHZ8UG74Pihm9e+DfyrpHlrXpQevfBv5V0jy1r0ohSnnd6wPihbCGX174N/KukeWtelGdTqzSauhTlKqcrOJQd1SmHkuAHqO6TBF4kftlUvzjf1aYrjMT7tWrmw5m3f+cuLGkPtnUfzjf1Yiucw7evVu3HmbfHh7ZcSpTrSLhKbWuBw0tD02RYag34HrhkpBHJpFzu20N+mHpFzxtfpgoXvTWx4ceGngg0+HoGmvbBfhw7INOnh06wUo6Lk6dekHHUAAjiNNIXU66b0Jpp1dGv64Isd63Dr4cNT2xgTQFjc27eqHB/pvw6df1Q3TB6Ba/wCCDBQmSfBuRYcOGnxxZ9K+1cn+Yb+iIrGfI1udOnrvFm0q/qXJ2tbkG/oiBRZcEJr0wsQiQxUbBPLrta4UQOOmsW5FRS5JfcG7Yb5069eMSie5X2gJBtpprDoze5sb9Z6CIa5UWAA4+6/ohyYtbhYdAtwgiywO9Gt+hPZCjp426eOseUjS3/8ATC6ebThBSlO8fDawMeTw4Hd6teMLpwtp1W49sChpx+G3zQULBnr7puTw1NzrEJqhtUJYdb6LfzhE1nQN09HZbh2xCqoP2xltf7e30e274awUq0MZ/cdXP0bM/VKiK5Mg9ymm36WnvpqiVYz+46ufo2Z+qVEWyY1yrpl+lp36aotxKYCoX3ywk5M4IkXnZVlazypJUgEnv1dMa25XbclNxLUqq7jjCFEp9EpstNuvzNMecmH5R5uoGTl5Z5tTabuzCu+bCCeBBtGzWVffYFkL9PK/TVFSTWw9k1MUyRpiH8QMep6ZsNvM1HcdWX54TwUsgd8W5gBbd/a6jW5viykJhgMNBoVVU7Sm1TkbM1Wdw+6qdlKxS5Ooz1Qp03SVNTEm3JNpce5RB1SShaVJ47wOkQrG+27k5L4cq7eBJadqddTSXpqmb1HUZbnQp4nUIdVpugNLbUrosbXvD/WdiPK6tmbqMziTFreIqoZ0VPEDVSCZ+fam2kNPMur3Nzk+TbQkBKRuhOltYrigbCuIqNjOpsyeL5GXwnUyqRm1t7yqhMUc05MnzOykFCF2SlZeCuI0SLxkiCz3R2KKq4Mis/8ABmbOEhNTNLfka9TMPSFbq8o/TFSwUh9kr5VgL1W0VIcAPYIruW2uajScOYLzWx3gCh0vLvHz76abMy004/UZdkMrdl3XmeT3TyiUapSrvd4cYuvBWQ+CMC1qYrtKM88/M4ckMLupmXt5tUlKIKG9AAd4gnePTEPktjrLOWpsvhyYrWJqhh+lszjFGo03UN+UpImWlNLUwN0KulC1BG+pW4CbQMJpNaBBQBQvNfbQwJRMoani/AGG6s/XnsPO16kSs7QHN0SwUlLczMJ0LbClKACidQCeAh4mdtjZ3oUnOKxHVi09SWHROOs04rYcmmG0KfYaIvvLTvcOndIBNjDtjbY0y1xtSqfSHa/imlMyeG28JPinVBLZnaYgpKWXroN9UalITe5EYlS2IMoqlIYgo3O67LUnEwmBPSTT7IQHH0gOuIWWy4kkjetvboJNhraBgs90diKcVGt0rFtAwhiqm0aepzNRq0s601PSZlZgIN7FSDqm4sbGLUIBGkQPHUq1ISmFZFkqLcvWJRpG9a+6EkDh4Inotb4IxYDA2PEAGpKqmpPDGHcTZ9YwbxDQ5Gopl6PSy0JqXQ7uFRevbeBtewidjKrLS33BUA//AG9r0YjOFwBn9jfX+81K/wD3os5pQKCSRxjcRYkRhAaTSgWJBYxwOIc5VQZ1M5UZM5WYmzQn8rqLUGMNyKp5yVZkGUrdAIFgSmwOsVxgbPHZsr9TmsMYywPh/C+IZarKozMguQbmxOvBhp9SmHGUKC0pQ+3vEgbpuDwi786ssZHOfK7E2V1RqbtPlsSyKpF2aZQla2kkg3CVaHhEZmNnHBbeNcEYuobbVGZwZIVSRbp8jJttszJnWm21uLsLhQDd7jiTrFrjovvHtKvcRC90diheJc1tlumUWrVLD1PwXWZmlhla5UyzcsFtLmUy5cbcWgJcSHFbt0bwvYX1h3fzB2RJWZqEnNT+CGXaWXxM78igJHIqCHUoVubrqkKUEqCCogkDpio8x9hauvYEpOEsN4rmsReojLFCoDU8lmUbpFOXPszEw66pAKplzdYSkDTo04xKZ3YDwbNt1innFTiJKdn5iqSDgpbBnZCadm0zQUJhVytCXE23d0FSTYk6Q4+LoLj2qOIhVrhHYpPhbM7ZZxpmMxljhjDlJn6m/JGdQ63h8hkALKChSlN3SoKBBCgLcCbxb3csyzt9wNAP/wBua9GIBhTIXEdCzRkM2KxmdM1erCmOUqotu0thlqaZU8XUhAbtyW6o9pI4mLouOhV/hgY0U/ePap4iF7o7FX2Kcssu2MNVV9jAtDQ43JPKQpMg0CkhBsQd3jGZklY5UYVPG9KYOv8AEEPmLrnC1Z14SL5/4DDHkoB3J8KWP96pf6Ai457okDE41z+itNa1sajRzJmxdTadVM7cJStTkJabZ9Rqmvk32kuJBC2LGygReJorBODraYTo3kDXoxFK/wDf0wkbf3kqf02Iscg2FhFt+INbQ6Qswla748ztydyyzVmcvMa4MpcnJNUmTn2ag1TUvrfmJmYUy3LpZQ2VEkp0I67WjDY2k9nCbxTTMNyWF0vs1Cnz1QcqIw+lMvIplHeTmETF0bzSkKB3riyRxiXZhbMeD8x8y5HM+sVmry9SkFU5TbMutsMnmUwp9u4UknVSyFdnCx1iNtbGmBGKzMVRjFOIUpnzX259krYKJmXq7vKzLJPJ3SAo96UkKA4kxbq7WoqvgztKbKMw7ISsp6nvz1UmGZaTkWcPLVNTHKtlxpaGg1vFC0JUQu26QDrDjh/PrZhxHOPU6jSkm6+yJzdScNuDl1SigmZba+xfZVtkjeQm5Hxx8MDbG+CcEYgwliKVxFUX5rBkzzinHmUiwVJEq7LBDymWEKd7x0kqUSoqAN+N/hUNiXL2eoklQzizErDVPer77bzL7SXN6rPF2YuQi1kqUQkW1Git6FX6yo56rGkc8ssMTZsYUwTg/C+G5ijVeUrC6vNTVL5CZp8zIpbUWi2tI3bpcud4cLWiXbPdRkc2MCLzDreB6BKSFZqU45Q2UUxtC/UxDpbl3HLg3UtKCvTSyhbSKtn9gqm0KlVidy8zCq0viaqM1CWbm5tthphkTzbLL60tsNJAKGmjuADidbxtLhLDlMwhhek4Uo7CWZGjyTMjLoSLBLbaAlIt4BDE/WpqsaYwVg3m7hGEqNfdJB5g11fxYimz2lDeWEiltCUhM1OBIAsAOcL0EWNMC0u6f4B/VFd7Pw/sYyX+tTn/ADC4rzMM11ppX1zsSk4YkUlAIVWZAEHUG76YlyaLSd5F6bLAFP70njESzqF8MU8/6ap/16YnYGqQeAEXHOc2C2nPVaxjGvmYgeK0osYUSkjjTpXxSYPUek/i2V8UnzRT2Jtq7BOFMy5vLirUGtpTTqjI0qcq6UNGUYmZxsuMJV3/ACm6Qk3UEkDp01iasZ55MrpjdYbzUws5IvPqlWpkVVnk1upF1ICt6xIGpHRFnE/Ws3iYfuhS31GpHE06VH+xT5o8ijUogA02W0/zaYg1P2iclqrV8RURnMOjtTOFXG2qpy8wlpDJWElJC1d6oHeSLgkXNoxantO5DUav0zDtRzPoLT9XkX6lKvc7QZZTDKglai9fcT3xsATc2V1RIe7Whgw9Q7FYfqLSr/a6W8UnzR6FFpI406V8SmI3WM6MocPTAla7mZhiQeKEOBuYqjLaihaN9JAKr2Ke+HWNYyk5p5aqqNOpCMe0BU7V2m35CXFQaLky2u+4psb11BVjYjjbSKcTtZUCDD90J4XRaSbD1OlbfmU+aINhxhiXzsxK3LsobR6jSBshIAvvu9UWM4QCkjrivaD9+/Ew6qLT/puxeguLg8E831CxZmGxj4RaPvfQp9zHKk4AxG4g2UimTPA6j7GqIRl9kllZUsD0Koz+Caa/MzNPYcdcW3cqUUAknWJzmSB3P8SW6aXM/VqhcsR/Y7w3+i5b6sRhENMXPUt7DiPhymJhp630TIrIXKIJJGAqX4r/AKxC10fZdbxucuPUmhrxGgth2RRKurLSlpUtCVrAKEEpSogKIJAi9FpukiNWs2sj8e4pzKqNXwXSHMJyNcQuUxPWGqyVS9Wp/NloBVKAbyJlCiNxxJBG6LkjSLmBupWvK5jaHtVurySybBscEUYEHdIKOB+OGZvCeWdKPq1lwzJyMw27M0yYqdFlueOSi+TWClSEpcF0rCbhSbXABjUzL3I/PzH+W1FzHqErN1XGMxVeQaE/UlS1OVTpJLcrLLmJVY31hxtDzu8kpcSpQOt4fvYg5uyFLep1MojMlLjG9TrlRaplWbb9VpGZS5yCUh1BSORWre3XB03BuBFDoLXVFFS6ZjOFHOJHSVbbcrlFSG3aMnNypSbEzKTFOqsozR0sJmWXZh15baUplwJcXecT9jCdDf211Rly9Ty8kKiKpQs7avT1sTU+9JJaoyVpYZnXy/MS535Y76C5yagT3yeSQAqxUFUtIbEWY7pqUxW3JuoTDuJMOvyT8/iFx2YRSGJVDc8y4psIQSTvCwSN8AfDs/s25ZYgy5y39aeNZaXcmpWq1FcmOW5xyckuZWuXRvqF9G1AW6LWiz5INat4lH69XMhsR1+cxJV8QJmKhNUYUZp92lOLclEXe3nWVFi6HFB9QJGhAGnG8WxIjIOq12mPzma9RlVoqUrUmJLmW8l16VTJBBbS5LndIEg3dSbL3XHEggKjZs0um2/7hL+LEVljynU8ZvZdIEixYrqJI5Ma/seLZlWwswVegM49xb0E9gqqnYoWQFHSzPzuZPOTLSplXF1LD7Uy2hsOPOMpZS9KqTLIbU+vdQ1uo3d1O6AlIGRMNYAcp9JoMpnnWxTJWRqEi6tynl1/kZrd3mmiuWUEt7u8Ej+1hLaU96CDd+aNMpowLWViny9+b8eSHWIkklTKcZSXvIsH7Gni2OqKBDDo5gk5AA9qgtpBETWSPktWMycT5I0JdKr9CzVkqbiOlzM1MUgVSZckmUqmZh5x5RKpN7fsmZeQElB0UDcKAVEryMoODZzErdOp83L4lkKLhOk0pFUdkSgTC2QoKUAtIte4OmmsMGamXeJaZnljXFrmTc3jej4swWxRKM5JplVinzaC8HW3EvrRuJc5VBKk3Fm9eiNecs8EbSeGKzUsqcLVXF87ijBj+GZKUnpeotpolOa5NKp1D7SlJLqOSukWSomwtY3MZLZRoFHZhWxEcDVpoV0Y9ZeET/g3Ttf/AAyfNHzdwhg5i63MP0xKEi5UqXQAO0kjSNFaVldtmVSQpclXMUY+l52ZrNLYxQhh9tlpyXE6TMvy0yZlZCQyVd6202NwJ724tHyzSyw2r8UTePcHULCuKU4fquH6/TWGJitqfafWEJNPUHnJkkrUU6gNoCQtSVFV7xUJSAMwwdgVXlEbnce1bvy1Iy5nalNUiUp9CfnZJLapqWaS2p1hKxdBWkapBA0uNYcxgrCP5OU/yZPmjTKWwDtD0l1Yw9hjG8thZyYwyioyoqDSaq/T2WHufoZdLpUFctyWm+CU6JPRDQrLXbMnJXF1XfnscM+p9CdmMFSXq2gOh8T5MuzObrlnnky+it4lJBAJJGkCUl+Zg7AnlEb3z2rczGKMrsAYem8W4vk6PS6RIBKpqbflxuNBSgkE2BOqlAfDDu1g3CLqEupw7TlJULg82TwPDojQLOXAG2FjqexTh6UwLiNyj1puoszUu5UQ/KvJRMy65JxtTkyQFEIcVuoabCQd0lXGOiskgplmkKTuqSgAjttAycD3B2BPKI3vntVXVSnSVKezAZpku3KtooSlpSygIAJZcudOnQRTOyxsqbPOMtnTLnFGKMqaLUqrU8PSc1Nzb4Wpx51SAVLUd7Uk8YvDEf8A3zML9AH6l2GbYz02VMqj0+taRv4sRYs1rWQnBo+8fmr064ue0k19VvyXj2F2y17ymHfFr9KD2F2y37yuHvFr9KLquOuEKhwvGesNaV1TD2wrRcyZrLeq5Eyso7J1VmivVR2TIkUTjrBfQ2V8pcXQCd7dtpxiZoya2AVyDFTTQstjKTbxlmZgVJvk3XU2uhKuUsSLi4HWIfJvZMoNVxjmVjetPSU9VMYkrorrraz6kOGTMuV7u9uqVqTvAXA0vENrexZXjh+jUbDGJsMtJl8BuYGqCJ+kKea3VrSpc4wlKk2d0OiuOlzpFQUGuhZjGT+w4JisMVzLTCFCRSKmaUXqpMtsomHtwL+xHlTcWUDY2PZaPOOsrv6n1lvI1CdxhhnAEiKXLpmZlkzO8+hs23VBpKys33haw6RFY4R2I8aYiqlexJPEU1DVfnW6fJYgU6TPSC6fLSvLuKlXd5tSlMKIG8boJBteJjN7DFfTg7F2XNHxFhFmh4kDj8s/NUR1+oSDypdtoNNvrdJDKeSGuqimyb9MRoU1Vn0DZN2RcS0uVrdCymwpP0+dRykvMy5U426noKVBdjDl7C7Zb95XD3i1+lFnYQkalSsO0+nVkSHPJaXS2+ZFtSGCoDUoSrUDww+AjrEQipX2F2y37yuHv5i/SiC7OOBsJ5c7TWc2EsD0OXo9Hl5KhutScvvcmhamnN5QBJ1MbSXHXGvOU3/xd52fo6g/VOQRXtJfbKpfnG/q0xXOYn3atdsm3w/jKixpL7ZVL8439WmK5zE+7ZoDQ80b1/lLiVKdaRvFKbHW3bD0j4bdHHSGOjpHJp73S3Dq7YfEDj12424wRe9e3t46+CDX4eg6whT1i3we1hbdht1W49sFCLX67dWsGuuuvSeuDXoPw249kGnQDrwHVBFjvA8eHV2Q3THtem3TxufBDi9xI4/B7aG6Y48dRwNvawUplnwb8dQNDrFm0m/qXJ3/AHhv6Iisahe5sD4Lce2LOpP2rk/zDf0RAqFlwQQRCJDFRMWL7h09sbnq7It08IqNj93WOneNvj6YkInqXFx7Qdo0+OHNnQXBFuvTXshslrW46dfbDkwL34X6eFh4IKVlJFuAA+LvYW3DTj0ad9CC1hqOzt8MLdPWLdOvDwQRFhbQgDr007IRQv8Agi/Vpp2wtrnS1+q8IbW0Jt4emCLBnvaGw6OOnfdkQupj9sZcgacu38HfCJpPaJPg17PBELqhHqhLdfLot298OMEVn4z+4+ufo2Z+qVEUyY+9ZTB/m3fpqiV4z+46ufo2Z+qVEVyY+9ZTPzTv01RbieyVChGMM1pjJXZvezCk6SiozEm8zKtMuOFDaVzE2lhLjhAJDaC7vqt+CkxQtdzWzEze2ictstKjP0NdNoeJ6jKz03SHphVLrKm6emaQUlKwSpq+6UkkByxNxcRt5lrT5Op5eycpPyzUww4HUrbdQFJUCs3BB0I7If5HCGGaY1KtU2gU6VRJKWuWSzKtoDKliyiiw70kcbcYsyX2dnUpK0ezU2ls28mNqHMF0zNQrmDXJGToFGo4u4iXxDMSvKyW6noS8tK0KOguRciGHBu19m/lBk62McVeVxfimQqeIXal6p7/ACjkvIziWVIad3koQkFRSkd+u9rJIjerGT+AMHUWp44xk3S5Kn09KZ6enplhFkFvRDilWuSm9kniL6QwIruQeJ66nBa53Bc9WQ4ZgUh4SyplLjiQ4o8iobwWQQoi17G5jKRax1XbizZm6hi+oYZwVhpNCwvLT8wUzswsTCuQDXJJBCu/K1OKKt1J3Ag3vcR7qm1Nms/mpT8r6pJyEhX6ciZmudUuZeFPcS/QHp5hLrCu+d5JaLG5A4KHVFpYUyo2UKZmHUKxRcU02oVmmP1CouUp+uIel5Bx7WbWGSeHG4VvBOtt2LYmMRZPy9Kksw36rhRFOn1tNSlaW4wGn1LBbbSh7gokEpAB1BIgoWpOHdtvMXCeUcriLHj+FKnUnstRi6RmwpUumdqAWhBlFJB3S4Cvvko1uoWERrMHa9xxWsb4Txi1K05mn4WxDXmfW3JTjoqM6ZKQUreeT7UsrUoEd6bacb6brYbp+TuPZGZaw/QcPVKUotRmae+16nt7srONqAeb3FJ71V7Xtx0iRDAeCxUjWhhakifIsZkSTfKWtu+2tfhp4IItdMq85Mws3ZSUmsd4XpdObl6vSZiQmqfPNOofQ+0pakFCHXFJUgjiojeSoEAWMbUDgIrjGOGqBhwUFug0WRpyJivSynUykuhkLVZViQkC5tpcxZBFvBGHC+0xPh8kVKz9Qm6VmbmnVJBYRNSeFZOYYUUg7riG5hSTY6HUCNM5Tbxz1msgqFSmH5VGaaJhmrVqb5kjk28PLDTrU0GyNy7omG2hp7YKMbuUxmQmM7cfsVTkeZuUKmIfDxAbKDy4UFX0sQSD4Y9S+WOzsHpfDzeE8IKfq9KbpbEqlllS5qnyigpDKRxU22qxAHDSNlMH1m/lHyCsSw9UnpKpfHm31Scu6lXKdOYPTVk0mSqTsu9JTi92YmJBLZeZWtTKW0qs4dEKXulJCrQ41fbbnaAzW6dW8upWVxHQJtpl2nCrLfEw25I88SpktMKUpQRdKgUhKSLlVouSobNmQtYqU5WKllPhuZnKgl5M085IoJeDws7vaWO+PbHp6Y+WN8osgpzlZ/HmCsLrVWJxhpT88whKpiZKORaTvHVSimyAOkaRZV9UrS9u9WK8RS0lhDKudnaXzJuoT065NELlZfmPPHFlKWymyU2bAKgStSdADePhRdurFFeVhqWpmQtX5bGL8kijvzE0qWk185bcXuqedZSN9AbBVuBSSFApUYkDuyzklgrHb2Y7+NUUak06oMVFymKXLMS8soMplmWC6U8omXIKQGbhJKra3tFwUHIbJ3D8xLT9Cy8ock7KTCJuWWzKpHIuoCghSOhNgtYFrW3jBStdGf6oYiWoYrdeyjnJXn8hMTNKZl6mmZU+7L1JunPIc3W/saeXcBSQFEpB0vpGXP7c2J6fO1KmPZE1NmYoeH5/ElSVOTqpRtUlKvIbUuWDrSVuBe+ndulNiCDoLxsEvInJsyqJFzLXDypdMtMyaUKkkEJYffEw8gacFvAOEdKhfjCS2Q2T0jLvy8rl5RG2piQfpT45ok8rKPLC3WVE6lClJSSOkgQUKqsoM8McZxO5tyVZoFIk6Fht/mlMdl31mYW29IMzKA6gixVuv3KgRY97bTeNu5JqBylwl0/tVL8P4ghjmcJ5U4WmMVt4Vo1Dp2JpujF2ealQhEy5Lpb5Nta0jUpAQEBRH4IF4fclLDKXCdha1Kl+z8ARd0S3xHyVj/UfD6pvr/39MJfoSqfTYix7iKoxziCiYczpwjUMQ1eUpssaNU0B6ZeS2gqK2NLqI17IlXdbyvP+MLD3yg16US8EtZ1fUrKOapXahxzjmhZu5S4LwtWK9LU7EorRqUrRpyVlH3+QYbW0eVmRuJCVKJIvqLiIJmJtiZg0GfzJy6wphuhsVrL6izFT9Vp+o8u3NtJS1yO42hI5R6zh5RNwE2BvraNhMU1rZ5xyqVVjGrYJrJkd8ypnnpd4sFVgooKid29he3VGETsx8lyRfwBuAPi37FOjwAe/ngAK6wBeLeF2pU0KpeZ2y8xaLXhhg5WSuIpilUykTlWfpc0oIcM60V7zJWN1IQNTvHvjvBNyIx5HbMzcnsK4Rr4yvwtymK8J1TGrTSaw+QxISYbVuFXJd865ygtbQdcXSZXZbW5IOhvLxTlJaS3JrIlSZdtJukIP4IB4W4Q5M1fZ1alpSVbqeBksSMi7TJRtLksEsSjluUYQB7VtVhdI0NhAw3jmKgZ5LV/Nbbnn6ph2oUCg0ZuUbxDRJpmUqMlMPiZps8aYZtAUooCCoe17xRIuDfojcDJyoTlTynwdUqjMuTE1NUKRefecXvLcWphBUpR6SSSbxC36XsnzU+mqTMplw7NoZ5ul5TcoVhvc3NwHjbd723VpEwkszcpabJs0+QxzhqXlpZtLTLTU8ylDaEiwSkA2AAERgfqVVFMZg3l3B/AP6ornZ8V/YzkuvnU5/wAwuHiYzbyv5FYTmFh+5SR9sGur+NDJs7PNzGVsg+ypK23JibUhaTcKBfWQQekRVQiGQ5KLKzq+5qQH+mqf9emJ0DcoPWNIr/PGblpXCkrMTLyG2mKtIuOLUbBCQ8kknqGkZ6M4Mrxug45pAI65lMXS1zoTQ0a1q2xocKaiY3AVooFMbLWGqtmpjnNDEXMKnPYkalk0nl5YqVSnWpZbPKJubKUd+4NgRrEIXsZVulYYwXR8KYxoLU1hvCs9hOcM/ReWYmGZoguTDaAsbrwtxNwb6xe/diyuvc47o3lCYRWcWV9tMeUbylMW+IjH7h7FleWS/vjtWu7GwxWqLTJug4dzCp/MW6lh2tSC5+mqdeM1SktpSh+ywlTTgbNwACL8dIzsP7F0/RMZNY3quKaTVl1P1weuOnephRLvt1QsFxuVRvkNhIYSBvXuVEnjF9DOHLC33dUf4JhMeE5w5YLFxjuk2vb/ALwIcRH04D2KPLZatOMHatJ8v9kDO3DM1llXm5GSXiJmv1idqs9Xmm55unyCZESlOZeQlwFdmm0gbhO6V6xZeBdgGXwTWaTMHEdMrtPZ9TH59mosTSVCZlHFOb8uG30oSneVdCVhW4RpcaRscM38rwfu7pHXrMCPac4cr0i3r7o5P+spiRAje4ewqfLZf3x2qY2Pe31txMV7QFJ7t+Jz10Wn/TdhwVnFleFH/t1SeH+UJiPYFr1FxHm/iap0Opy89KGkSLYeZVvJKgt0kX69RFyHCiQ2vL2kVH1CxJmYhRYkIQ3A+tr6CphmSbZf4kPXS5n6tULliR3PMNn/AEXLfViEzL1wDiFI/Fcz9WYxMsqpT0Ze4dSZ+WBFNlwQXU3FkCNfUCLnqXoWtLpPIfe+imlxHhYChbhGJ6rU4/3wlfHJhPVSnH++Ur41MXcTNaw+LfXQqExptQVLL7Nir5f4uw5RqZSqLSZWvzNadqzhBkX5syyEoaSyVKfK0mzYJuVJAJiUS21nkbUHm5CkYsdqE+6H/wBhStOmXJlpTSt1aXW0t7zJ3rDvwm5ItDLm1s0Zb5v4prGLMQ4pmGJqrUORooQy60ptjmk6Ztp4JUCFK5Q2KVApKRa0MLeyXhBM9RZtWZBlxSp71RV6mU2QkFvO75JHKMthaUKTupWm53gkXhibrCnA/UrbyVzkw1nlgaTx9hSSqkrIzhUEtz8otlwFKiNLiyxpxSSOi94n94rTJfL6kZM4HlMBSGMlVan05bgklTRaQtlpSioN3QBvWKjqdYnoqtN/GEt45MMTdagQ387Ss0qForHHh/sv5c9i6j/y8WCarT/8vlbfnU+eK4xlNS8zm9l2Zd9t3dcqO9uKBsOb6cItRi0tyKzJJr2xCSDTC75FSfND7g6yf/D/ANIiSSP/AHSX/NI/VEbzR3RgOsXNgZfj8IiQyC0iUlzfTkkgn4IxmkCddU/dHzKocKyrfzH5BVrn3tEYL2eaRSKxjKWqE2itVFEg01ItBxxtNipx9QJFmm0pKlK6NOuH6czSynw/iNdCqONsO0+tTEuJ1yWdm2m31tbilBxQNjbcQoi/QD0CIRm1s1UTOnHTeJcbYknzSJPD81RpOlybq5fknZkjl31OJVde8hKUbpFrDW8VpJbFeKkUOtYZqubcpPSWJqXKyFUmH6Chc4XJeWVLtuMuqX3gKOTKgQb2ULjeMZuMawsWlFeydobI9cjLVJGamGlSs48qXYdFQbKVuJCStI16AtN+reHWIxqxtK5FUOWq8xNZn4fdXQ5eYmZyXl5xDryEsC7oCEklSkjoGvCKWxFsVVjFs5S63iLGeHp2oSVLeoj7AoTkvJPyS0tJF22X0KLn2MlRUopUFWtZIiH5f7EmKahS5+gYyrUlh+hSOJK5UKTJSsihcypMywuXZcW+lZu0ELKuTIvcAEkQLhzlKLZ/D20TktieUos1SsxKQTiFpt2nsuvht14LNkjcVYgk3FusERkU3P3Jar8/FLzQw1NCly65ucLVRbIYZQrcW4s30SlRCSegm0a+4q2J8Z4skMMUqdzfYblcPyVLki03TnUo/YUzyqXW0peCQtYCEqKwr2ve2jzN7AkpM4Rw7hdvMNLDmH6ZUZHnKKan9lOzM8mbS44kqsQkoSkg+2HSIjGOYqaLYVrPvJZ7mBazRw0o1NW5KAVFsl1W+EWGvHfITr06RPUrCtQDYxqViHYpm8XYzXjnFeLaBU5qpysvI1WTNEcYk1tMzJeQWm2X0HesoglwruqyrXEbYMlDaEoHBNhAuGtUjNVxiK3PMwr/AIgP1Lsa/wCC866tklshbOtYp8lLzMpWVUik1NLiCpwSapR5xwtagBz7EACdNTF/YgVvTWYR66Cof+S7Fc7PWVOB82dkTJqmY6pBn5elUWn1KUSHltluYEupsLuki/euLFjprwjEs4gw3fmPzWXOVD2190fIJsktvrCT6ZGansqMayElO0+nVnnT6ZTcap066GWJlQDxUUlagClIKgNSIiuce3cGsp6pWsF4VxBhueqD03J4crFRlpd2Wm5qSmUImGwgLUpPeb5SVpANjbURe0zstZKTFORSncJrVLNUWRoDaOePaSUm6HZdu+9e6VpBvxNtTEHwTsLZR0nDT9Gxw1OYnfmJmoP8o9OzDbTImpgPL5JoObrSjuoSpSbEhPHUxnrFWDijb8yrwhVcQU2dw/iKcaw49NyT03KsNLQ9NyyAp1sIC99APfBK1hKCUkXvaMin7cOFDif1uYjyyxhQEN1SRpE3OTglVtSsxPSxmZRKg26pR5RtJPeg7psFWvE+q+zDlBWna6Z2j1FMriVTzlUkGatMtyUw66AHHeRSvcC1bouoAEnXjGXO7N+T9Rqj1aqGGS9Nv1WnVpxS5pzdVNyMuWJZZTvWsltRG7wN9QYIqjkf6oRl3VzRpej5f4un53Ec5KStIlWG5dSpvnPKcmSrlN1o3b1QshQCgbWvbLw9tqpxRjqWoNFyuqy6SrDk/XJ2ZenpVh+TXJzZln2loW4EEJWn22/rvAjS5FjUnZfyfoqqQiVpVTVL4eqEvU6TKv1eZdl5F5jf5Lkm1LKUJTyiu9Ataw4ACPirZLyOW8p/1rzCC7Kz8i8luozCEvy848XphpwBdlpU4d+x4G1uEFCrNW3NIVmo4cpGCctqhVJyqYlOHp+WNSlQqUUZJU024haHC26FpSq1lAfY1i97XyMN7bFE9aaarU8NVmvTUjTp2vVlymSbbCKbS2JxyX5daHHSVEFtd0oUpR3FGw0ET2R2QckaatExKUerJnGqmxV2p1Vbm1TLc00yplCku8pvABpakboNrHhHp7ZByGelWJMYUmWWWpVyRdSxU5lsTUq4+p9cu/urHLNF1albi7i6j0aQRMWXu2TgfMbFdFw9TMJ4glJDEdUnaLSKzMJZ5tOzcq0XlpQlKy4ElsFQUUhOhHGPOUv/AMXWdn6OoH1TkTui7OmUuHZyiT9Hw0ZZ7DtXnK7TSmYc3WJyabU084E71iChRASRYdAiCZSg+y6zsP8Ao6gfVOQRXvI/bKpfnG/q0xXGYeuNGxa55m3p/KXFkSP2xqX51v6sRXGYZIxq3bQczb+kuClOlHH2NBv8OnxQ9o0B0HDhpp2wyUi+6nhe3C+kPaLWFjoesjXwwRerdg7OHfQeC3h007IO9F7nw26PBB3vHp6LkQRB06B/F0+OCwtfj1Gw17IO9IvfS/G+sL06AXHHUaCCLHfGlrWt4O9hvmNeIB7Dbvu2HB7st2dvhhumToSeH4XZ4IImWogan/itw7Is6lfayU/MN/REVjPnvtAL9HVaLOpX2rk7/vDf0REKFlQQQQRIYqJk/Z3BqBvqvrqdYt6KiYF31np3jY24cYInqVJGtxfr6LQ5MkaW4X0F9QYbZX2osk2HRrfww5tX43v1mx1iVKyU3AJvbr14+CF1NviGvCAbxsLf9IW3Hr6RrrBEmpvcHdvw1veA3PE69Y4Whdb3vr12hFpuLWPgsfjgoWDPX3dB4NeEQqqH9sJf/WEX7e+ETSeGiri/QeOsQuqD9sZe44Pt27O+GkSpVn4z+46u/o2Z+qVEVyX+9bTPzTv01RKsZ/cdXf0bM/VKiLZL/espn5p36aotP9konPKb7hpDwufTVEwiH5TfcNIfxnfpqiYRZk/s7OpCqB225dxzICpTy2luU6mValVCroSCd6nMzrS5kEDiOTCr6jSKDqez5m1Uc68R5jUqhzEzQapjz1QpjSFtt8i09QUSzVWQ6k75DThUgtE7pBKrEpBjbXOjNKlZVYfp1QqdAm60a5V5ahS0nLqaBcfmCQkKLpCQnTUkxH8vNqbJfGtLpb4xTJUOoVBp9SaRUHkNzLKWHFtukpBKdwKaX34O6QNDGUoWtSMjs0cQZdZa4FkMrJ7DNZy8kKt6uVF0y6Wqm47ITEuG5dxCip/lnHEKUVBIAFyb2iqRshbSSsqKHk+9h2Zdw3gaZpuJqK0ZlJdmqhNvypmpVYKgN2USJ1aSeJcFuAjfyY2icsJo0p3DOKKVXWKjVEUp56UqUukSji21OJU4FqSSClBICQSRqBaM5vaGyPcpM3W0Zp4bVJSLzTMw8J5G6hbpIbHG53ilW7bQ7ptexgpUC2ZloqWYeduIqMFDD85jPm8mnd71U1LyrTU2tJ6Qp1PRppGwQ4RWGWufmTuZGLK5gfLzE0nUKhQuTem0yyLNrS6gLDiFgbqxZQuR0mLPEQVChOZXtsOD/Tkt/wCqJrfQeCIVmUe/w5+nJb/1RNSbJjEg/aInwQLUzaWodexHJZ1UTDNLmajU5vDdGRLysu2pxbiuWcJASnUi1726LxWtSyTzQyWxpSMc4VpNSrU6uiYkq/N6DTy0xTZt2Wl0sysuhzlEpJKCe+B3lb3e9EbUYcmpZnaBxol59tBco9L3ApQBVYvXt8Yi0WlixjZTGTmnoHyViWILSOkrQHBGYW2fjjFErhqpTOLaBR0TtXJqbNEC1ust05l2XQVzEs3cc4LiEq5NJVqNQAYnOLqvjzEdO2X6pmhLPytQnawo1VqYY5C1Y9T3xLqdbtZPfhRsdN4i3RG5JVxsIa6xQ6JiBthmt0yVnkSsw3Nsh9tKw08g3Q4m/BQPAjWLIV9c+MQ5eTtR2WZzAM7lFixzOVK71msIojzyn5n1SZW86JojdeSpISpAuQAnQAAxLcycwtrjA8viPDtAGMq76nVaeapVb9SUAvMiSbWyFoYlXOVBfKgjdShPtgpXCN1a3inDuG5fndercnINAXK5h5KOHhMQd3OputOKl8usIVnEqr2Eyhnm0pfr5ZywI/igxcbCe/QMlafFYznWqeLBtUZg5S4wxPiKuY+p9Qk67h5VPotMkEyxRK8pKOTbjYQ3yroSS9cb1rJsQdRH0xvmFtny+IMXy+E56tIlJFT3qE3M4fcdXOSIkN5tad2X3OWU7rvLcFlAp3LGNp0yOfOIzyk1W8P4Vl1A/Y5VlU6+PCpe6m/gEezlDWqgker+bOLJ1Z9sGX25VHwBtAI+OLnFMb7Tx4lUcc92bWnwVCKk8TU/OTLpir4in61iN7K2szOKZmfZQ09yCywWkqQ0lKU2mOUSARoAem8bJZIA9yXCYP4ql+n+AIjY2Zst11N2uTQrczUpiXEo9OO1d8vOMA3DRUFA7l9d3hFl0Ci0/DdHlKDSmC1JyLSWWG7k7qE6AXPHSKXuYIXFtPOoY15i8Y4UyRVcOUCvcn6t0WRqAZvyYmpdDu5fjbeBtwEYHc7wAP8AAmg/JzPoxIbwgV1xZBIGRWUKpg7neAPyIoHyaz6MHc8wDb7iKB8ms+jEguOuAkQxu1qKrXHauwnhSi4FoT9JwzSZR1zFNJaWtiTbbJQqYAUkkDUEcRwi6UZeYCIBOCaDcj8XM+jFU7YB/sf0Af8AzbR/+YEXu2U2BjOjuIlIRHOXfRa+XiOM7GaTkA36piGXeAfyJoPyaz6ML3O8BfkTQfk1n0YkG8OuC464wcTta2NSo8cu8A2+4mg/JrPow9SNPkabLIk6dJsysu2LIaZbCEJHYBoI+9+2FgSTpKVKx5mRlZtJRMy7bqVaELSCDGN63aF+KJLxCfNDhe0JvgG0A92gFWnQ2ONXAJv9btCP96JPxCfNCjDtBH955LxCfNDhcQbwirjH6yo4mF7o7Amao4foYkJkijyVwys/uCeo9kU3sh0ilzuTcq/NU6Wec9VamnfcaSpVhOOgakdUXpUlD1OmvzK/omKW2OiO4pKa8arVP+cdjPhvd5FENfvN+q1saFD8vhNwjQ7mHQri9b9D/E8j5OjzQet6h/ieS8nT5ozwRf4IW4jX8Y8c5Wy4mF7o7E3nD1CIt6jyXk6fNH1lqTTpNZck5JlhStCW2wm/htGZCXEMbjzqRChtzACxp6nylRk3pCdZS9LvtqbcQrgpJ0IMQUbP+T40TgeRsOi69Pniw7gwbwi25jXe0KrJhTEWCKQnEDoKr32P2T544IkvjX54PY/ZP2+4eS/nL88WFvCC4tFPEs91XvLpraO7Sq89j9lB04IkvjX54p/EuV2AZTaUwhhCVw1LN0idoM/MzEqFK3HXELQEqIvxFzG0JNoobFBvte4OF/a4WqB+N1uM+zpeC+I8OaPYd8lrLVtGchw2FsVw9do0nWpv3AMoPyIkvjX549ex+yg/IeR/nL9KLBFumF3hGBxLPdC2fl01tHdpVe+x/wAoPyIkfjX54ccP5P5cYWqrVboGFZOTnWQpLbyAoqSFCxtc6XETHeEeQ4DwieKYOZQZyZcKGIadZTfX6NK1ykv0id3yzMp3F7irKt2GIx3NmAAlGJsQBI4ATyomyjvR4KVA3FreCLEaSgx3Y3jNW2TMWE3Cx2Shgy3lwNcUYiv2z6oO5xLD/CnEXl6omwSSLwbhiz5vlx93xO9VeVx/e+ShQy4lzwxTiLy9UVrn5K1XLrCdPrGH8U1znM3WpKnqL04pQ5N1e6qw6+2L/wBwxRu1vcYHw837vFdLA8PKGNhZtmy0WaYxzagnWd6wrRn5iFKve12YGoKdt5by6kpPrpxFdQvbn6o9HLVj8qcR+XqiYtfuaBfWwj3Y3jCNny9T6vid6zGzkcgVd8lCxluwP8KMReXKg7mzA1GKsR+XqibW3dINOqKfN8v7vid6qE3G975KAVrCElhvB2LJ1iZnJmYm6RMhxyaeLiiEsrtqfCYjOxkf/wDVTKr/AOlpD6oRZ2MZOZqOEq1T5JsuPzNOmWWkg2KlqbUAPjIjVDIPaUw/kfk5g7LLOHLzMPClRwxR5enTczM4amHpJTjSAlSkvMhaSm4JjLgwWQW4GCgVh8R0V2JxqtyCLi0JuCKbou2Rsv10IMpnbhhgr4JnprmavAQ8EkRLZfPXJWaRystm1g91HukVqXI+nF1UrT3bAq2cuHtoat4wy6m65M0rDWWZmKnR5V91LU0w/MPsuuoA73l2gpDoI76yDrHnCO0XnPQ8PUbD0hNp9UqXTsMydJoE5TXZidxSJ1hBm5hL6tUFkrVc6pHJHe9tG2lY2idnyjIU7V848ES/e2Vylalt4jqtvXMQGqbbezuxMiUwpVKpjOot961LYaoUzPrJ6AlSEbvxKgpWsmEc8866VQqBiiZrM7jjFNMouL33ZF+Sdbdk5mWmFhhl5tkhLhUgJWN9G9awTobxNMT7UedlNnqPTMJ4/wALVunTNNenxiCapPMJWZnkrbApqis7l0hSiVN9+RwFwYt1GcW0bjldsr9mX1Cl3b7tTxtUm5Ma/h82Y33Tp0EpMeO4NtKY5QBmXtIJoUqo7xpeCqIzLIR1gTL4W4demwgoV+0upTBokpP11UrKTCpdC5pKXPsbbm6N8BRtcA31Noile2gsjcLLLOIs4MHU5wfgTFal0L/mlV4ryU2GsjXlJmMaM4mxrNbwUt7EWIZuaCldfJ74QPAEgRO6Hs3ZBYcCfUfJrB7JTwWqjsOL/nLST88FKjU1trbKEiSJjP3B1x7ifC/o3iDbNWYODMz9pTObGeX2IpWu0SYk6Gw3PShJaU4hpwKSCQLkRsPK4AwNIpCZLBdBlwOhqnMo/UmHWSpVPpqCinyEtKpOpDLSUA/EIKF8pDWpVL8439WmK5zDJGNWyDrzNv6S4saR+2NR/ON/ViK5zDA9ejd7/wDdG+H8ZcFKdKQLtpNjbqvrD4kq1IIvbXXj4IZKOCUJ67AE2PCHpsWABvpwFuEEXu50sfBrw8MJY2PG3Tr0wtuNhe/HT20Avx+ex07IKEDevfp676QnEdQ6NeHhgI4Cxt1WPxwuvSb3Gp11gpWO9exGp6+3wQ3TF+Nzfo14eGHF699DY9B6owHwbG4IB6Ne+7YKExVD/hB18MWfStaXJ/mG/oiKxqBNyVE3tx1+KLOpX2slPzDf0RAosqCCCIRJFRsH7M5prvnvfda8Yt2KhZ1dX32gUbk201iQie5a1tfjt80ObI19oB2dUNkrwAIA7NIc2bEDXp46QRZIvbrvw09tHq1/g6er548p0B+fshdDa3wcNYIjjwSCerr+eBXC+h7bfNB0dnXCHh3wF+rThBFhT3tDpa3ZwiFVQftjLaWu+2fD3w1iaTp008I7YhdUN6jLnT93Rfs74QRWfjP7jq5+jZn6pURXJi/ctpvRdp36aolWM/uOrn6NmfqlRFcl9crKYR+9ug/z1RbieyVPMnPKc2wPIDtd+mqJgCDFA49x7iLLLZarON8Juy7VVpcspyWW+1yjYWqYCdU3F9FHS8V/M7W+KMnMZ1jL7M1LeMJgN0J2jzlNluZrU5UeW+wTAutKdzm61b6eKSO9vqbMl9nZ1IVemeOS0hnZRKHQKpPiXk6ViCSrb7amuUTMpl1Elki4sFA2vEJxJsi4Sq89i5FKn2qHScT4NRg9mSkZJCOYNpdW4XWzwNyvVNhfpiMym3vhFxxqnVXLrElKq83MSLUjTpzdQ9ONvOOoeeaBGrbPIuKUeJSAQNRENru23Ucez+X0rg3DtfwzL1nE1Mccm3Wg8xOU11xxDjK17u624d1Cty5JSbg6GMpQvWNtj7G1axxhyYqdXbraqhNSbFYqUjKN0+Vp1NkZN5lsJZLiluPuF72wuBboAsXrD+wg/hxmg1KkYwoEviDCi5JNKqIoLjhfYl0uIDc2lcweUBS6SAgoCVXIGtoyK3t94eoNHotcncrq7zXGDImMMFM4wVVNoTSJdRUP7nUC4hVl8QrjfSM2obcYp1dn8G9xytuYkojNYmaxT/VSWCZRintMuuLD3tHd9t9BSlOt7g24wUqx8ocj67lhjrFWLZrF8jU2MWs05U3LNUoSpbmZWVRL7ze6soS2oIvubuhPGwi4LiNT29v2gCWl5ecywrcrWZ96nCQp65xlYel5yWXMNPqcbCggBtBumxIJA8H3pG3hTK28tyXyixLLU+TnKRTqjMTz7Uu5KTNQXyTKORV9kUA5oVAW3bKFwbQooV5Zle3w7+nZb/1RNT7WNcMss3sWZ1YDoWL8WYRlKG6jFzkiymWneXQ8liYdaKrboKSNyxvx4jSNj+j4Iw4X2iJ8PkgVY5g0nJCqVf8A7eTdCYqzaEpDj04liaQjimygoKHHSImKdlrIX9bG0LUKSB7Vv1fbmGx/Jd3v1w/Ycw5Qq5nHmEqsUaSnlMilhBmGEuFIMub2KhpD7jaXyby5oDuKcbUnD9LpTDjbTky9JN7oW4sIQnRN7qUpKQB0kRu+NbBAY4nQNVM+ta4QTHq5oGk61BkVMt3SjaqkSno32ZFSvhOl48k4dqG83Xdp6YmGlcUSc5KSg+NIJ+IxYOHKTlbiykt1yg4Zo78k6VJQtdNS2SUkg96pIPEHo6IdhgXAnRg+iE3sbSLZ/oifKWdPYNyqEq8avFat54U3JejN4LnMNYkp1QnziunCbnH6pzl/kOU78rUpRsnr4CNkpbNHLFhhDScd0FISLAJnmgB88fCuUnKCjF9ut0bDLC5WTdqLjKpVouiWbF1uhABUUi3ECM6nYPy5qUkxPyOFaI7LzLSH2ViQbspCgCD7XqMTFmYMaEyG7FlXVzq1ClI0GM+I2mdNaQZr5ZDT1/UC3+vN+eF7q+WR/wAPqB5c2P6YyhgPAdhbB9EJ6+ZNW/VEaYcyfmcwpjLFvDFKNelqY3V3GfUxG4JVbhQlW/u2vvAi3GMWksOY+CzR5R0eKejmxlmFAevyhknQfs9rX54lUrNMTbCJqXdDjTqQtC0m4Uk6giK+zFwNgyVwDiKYYwpSW3GqXNLbWiTbBSoNKsQbRI8tgO5/hu34plfqkxESHDwcYyummaMiRC/A/VVNuMs2MO4LrEvQZ2n1moT8ywZlLNNkFzCg2FbpUd3hrDP3eqH+RWOPkB6FdQPZCy4PD1sLP/6gRZgA4RBDWAVGkVWVUBVl3eaHwOCccfID0J3eaEOGCccfID0SLNfHaMr8t8S5hu05U+3h2mP1FUshYQp4NpKtwKPC9oqajbW1Ep08/Ss4KI1g19VBksSSDzc5z5iek5p1LSEo3EBfLBxSUcnu3JNxcRT6nupiGpMe0HjleY2EaRScN4GxiqZlK/Tqi6HaI8gciy8FLIJGpAHCLSTnxQgLesnG5HWKA9DGjayyRni7J4excipVREjMzplBKzAMulnlArnJDZ5uN5pae/ANwdDGJKbYeSkuzRZeuYn5Cq1aSkptUrJSczNts86YLzSC4lqwKm0qWN4A7oJsIvPjtfDbDLcm18Vjw4DIcV0UDN1PBSkZ80L8iccD/wCwPQvd5oX5F44+QHvNC5W7QuVOck25IYBxOahMNyLdSCXJN6XLsqtRSl5vlUJ30bySLpuARFlhII4xYqz3VkBzVWKs+6ChJUcF43AAuT6gPaROcLYnpmMKBI4loy3VSVRZD7BcbKFbp60nUGMypoHqdM6/2lf0TEHyASE5O4VI/wAgGn8oxJDcOICiGhGSlmJcR0/C9Hmq5VCsS0ojlHChN1W7B0xDxnRSlJC0YUxWpJFwRSHNRGZnS2DlxWnCL2ZT9IRK6W0g0+UuOLKP1CLrRDbDD3Cua1kR0eJHMKG6lADoqoR3Z6Wf8EcWfJDnmhe7RSvySxYP/s7v9AiwuQQeIEVhtJ5mVTJ7KWqY1oElKzFSbelZOUE1fkW3Zh9DKXHLEEpTv7xAOoEU44PueKq4ma2o7v8AVfeczipr8o8ynCWKwXG1JF6O70jwRXWzzimZy3y2l8MYjwfiVM6ienZgpapbiwEOzK1o1At7VQh1qeZWPco5+i4QxVMy+YmIMVqmHKWzTpVul8k3LS/KzHKLWtabcAjpO8L8LxTOYu2/N4xw7IzeT1CqshLSNew6xXaq6+wkyaZx26pUsm6nSUJWlSkaA2tF5syxsIwQzIkHTq/9qw6SmHRWxjEzApo1/FbNnOal6H1p4s16qQ75oBnPSwdcJYs+SHIhWRm1RRM78RKodLwNXadLPST1QkqhMI5SXeabe5IpWoJ3WnCbKSi6rp1vpaL3S0FC5Av4Is44POzxV8QZraeH9VXxznppGmEcV/JDkOWF8zqPiesqoLdOq0jOJZL4bnpJbG8gGxIJ46mJcW0gcOMQGaRu51U5IPChv9HW6iK4YhxKgDmqrcTyiCWkvrUgaNan7jqWklayAlIJJPQIrtW0NlGFKR660qKFFJKJZ5Sbg2NiEWMTqppC6bNJP7ysf8JiD5Ay7DmUmHVraQomWVckX/DVGDELi8Nat7Lw4XFOixQTQgZGmkHoK8+yGyjHHFKvIpj0IBtD5R20xUfIn/Qiw+aS/wDkzf8ANEIqWl0/2hsfyREYYmtVGJKe47vDcq8O0NlETb11jt/Yb/oRUdazSwJN7S2HsbMVlxVFksOTkm9Nczf3UPrdbKUW3L3IBMPmdGfeKspMyaThefo2E2sP1Wl1OsmqzkzMJXKy0gllT2+2hB3lK5YBISeI7Y+9N2ychq5MyVLpFQqkzV52ZEummNUZ9c0i6EuBam0pJCChSSD037Da7AiR4DiQRmCO1Y8xDkploa9jsiD7Q5vgp0NobKS2uKT5FMehB7IfKP8AKn/9FMehGHkbnXRM8aZValS8HVejJpNTmaY4KhLbiXVsuKQooVax1TqOIuLxaHNWP8nb/miLeGJrV/jJX3Hd4blXfshso+HrpPkb/oRkUnPDLCuVSWo9MxQ0ucnXOSYbWw6jlF2vugqSBeJ2ZVgi3IN/zRFZZvSsuxVMDLbZSFHErGoFtNxcUOMRmZNVdgtlZh/FhrgTXnG5WYoq3dDDBV8fYXok2adUqsGZlCQpTYbUsgHgdAYkQSCnWIXQ2kPY9xGlxO9uIlbX/imLM7Eiw8LYRALjTMV5ljysNj8TotaAVyNOeiym808Ebv26PwsOejHrupYI/HNv9i55oqzaS2lJbIGoYZpsthZutuVNxU5VgHw16nUltaG3pwi3fbqnUAJ6deqHjEe1Jk1hWpVmn1eoz6WsP3RUagzSJh2SYf5JLoly+lBRypQtFk3uStIGpAiji54ffb3TvVeOU9x3eH/VTrup4Iv9uT4hzzRUG0riqi4rw1hyUoL7865L4np0y+hqWcJQyhaipZ73gIzqrtl5FUB9mRr87WKXOrBcmJWeokxLuybIdDXLPJWgFDe+bBWoOpHAwx4i27cj6Tg2sYwprNbqTVOlqi9JoRSnpdFUckSecNS7ziQhakAFRsfapUrUAxflXT8CKIge3L+E71YmYcnMQjDc11D/ABDcroTmdghAF61ewA/cHPRj7d1LA5H25/8AIc9GK6O1RlXJLw3LYkk63QnsTNMOSiajSHmkpW6FFttSym11bpsRpwuReG+lbZ+QdVprlVRUKpLtGSan5RMxRZhtdQacmRLJMskou8eXIb73pIiwYc9X229071eDpSnsO7w/6q1Dmlgc/wB+f/Ic9GPKs08DoTvGsaDj9hc9GK0f2w8iJKty2HKpU5+m1BxUumZZnqQ+wqRU+6pplL4WkcmVrSQL9h4EGLcxOw0rDtQVyKApMq6RYD3Ji3GE9DYXh7ch7p3q5DMo94aWOz/iH/VOcpOy1SlG5uUcC2X0BaFDpSRoYyC0CndUAR0gwxYGBOEqQonXmbX0REgBuYzZeI6JCa93OFixWhjy0cxUbreW+X+JN44hwRQKkXPbGbpzLpPwqSYib+y/s7TS+UmMk8FrVe9/UdgfqTFowRkVVpV3TNnfIiiuJdpWT2D5ZaDdKkUaXuD2HdicSFIplLYEtTKfKyjKeCGGktpHwJAEZkEQi8hAHRHqCCCIggggiIQ8IWEPCCJvkR+2VR/ON/Vpiucw/u1b1A/Ybev8pcWPI/bKpfnG/q0xXGYf3at6X/Ybf0lxKlOtIH2NNhfTh1Q9N9vVxtx7IZKQRySddLcYe0WGhAuBqOqCheuPQB8HtYXst8HX2wg6Pm7YCR8HX1QRIbcT8duPZxhRYj2ouOi3CDj1XHRCWFr306OGpgi+L9yDZN+r+FDfMcCm/wANvaw4PEAG+nXw08EYEzw6D1cNYImOf3rkbvR7W3HtizqV9rJT8w39ERWFQKQD1e6007Is+lX9S5O/7w39EQRZUEEEQiIqJgEPqvx3jb4+mLdiopexdcH8M3GuusSETzKlO6Pc+HWHRgm/EXtrrpDZKk3BuLgcei3VDmx0XB6wLm8FKyUk7o1uOjX9cLca3J7YE73E8fwuOsLrYdB6ONhBQg3vx77w6WjySLcTbw63j12EG3VrxhDfXXW3HsgpWBO8CbnhrrELqhvUZbX+3Itr0bw4xNZ0nc426uyIXVAr1Ql+rnCL9vfCChWdjL7jq5+jZn6pURXJb71dMB/e3fpqiVYy+4+ua/3tmfqlRFcl7dyym/mnfpqi3E9kqeZY+G8H4cx/lH60MW0puo0ipIdamZZwkJcTyhIF0kEagcDHxZ2bcmGKDM4cbwOwZadmWp2YdW+8qaVMMizTnOSrlt5AuEkLFhe0SHKfXA8h2l36xUS9QsIsyX2dnUhVdSuQ+UknV8PYg9Zko7U8Ly78pR5uYcW+9LtvEqdTvrUSq5Uo99c6mxjBpezZkrR1S/qfgptLUlONVCTYVNPrZlXmlKUgtNqWUtgFxZ3UgDXhGstDm8S4ZxxntVZB6mUrFJrk+5hqfqtHn5l9pKmmkpcbUhKm+bglVwlJN7m2kQ3E+Pc9sUpnKzN17HampnLKpobpk5QU81qVVZqBTyaUNtAKCmwVocshakJGgBIjKRbOY52LclMW4amKBRqE1QTNzMo8t+XCnC2w1MpfVLtJWqzLa1A3De6Lm/ECJpSdnHJWhs8nTMCyjalS9QlFOqdccccanggTYWtSipZcDbYJJJshIBFo1hbx1tXzs6E0nFVRpFMGMpXDEvJowu06GKcqmtOqmQtad5VnVFO8bpukg66QyubS21KJzBDblJraJp92lSlWZcoO4zNoem3GZh5sBlRC0tpS4u60JQSLBQMM0W2k5s3ZKTrdnMESqHEIkm23mn3W3mRKILcvybiVBaChCim6SNCQbx95bZ9yil2H5JGC5ZbUy9T5l4redWXHpFQVKrUpSiSUKAIN9em8aVU7N7aUwJgHDlGRmDUGpuerOIkVSo4jkDvyS2ZlwybW8ZdxRbdQQ57Ui1kpUkWjdHBOZtZqOEKLMVPDVRqNZdkGFz7tOk1tyipgoBcLSntxW5vXtcA26Ix3zMOHpcmSwJ/LfBuWrVMk8GUcUuXqeJ2p99lDzimy+4VqWpKVKIRdSiSEgC5vaLfFrW7IrervYrxVP0ZpWEJiQl5WoNTbjz77dwlN9N0E66xYyPajwRYgOxxXvGg0QKtsD/fizI8FK/5cw0bVeWOKM3MopjBeDwk1F6rUmbBVMBndaYnmXnVJWeCghCiNONohuZ2b6MiZ3NvMtyjoqnqe/h2XEsuZEulRmChgFThB3UguXJsdAYccD7ZWXFWwwqtY5dRhyaRP1CUDTK1z7EwxJrSh6eZeaRZcqFKA5UhIvcRtpkeuOpvyCxpX2D1n5lQHOHInP5eIMTSmXL87iGlYopdCk25+o4hDL9Pck5tbr6lJIG/voWACmxO6AYgc3skbSdPw9KKwjWFSFfnpTEzFdmV4id/ZCJiYbXItg3NgG0rTdIG4VRsxU9r7Z6pNRdp05mHK3aMwOcNS7rkspTDfKvJS8E7ilIQQVAEkXEJijady5oWJqLhyRrdOmn56Yledh6YW0qXlpiUfmWXUJ3CHCpDCzugjS+uljYWQteMQ7KWYdRxBN4lw7lHJ0RyawfWqJJtKxUZl2Qn3k2ln+UWe9TvX71Fwi9+kwVnZp2mKgFMy+4zXeUoqpHFCcSLHqfIy8mhuZkubjVZWsOC/tV8pvKVcRsZL7WeRMzRZDELWMnDT6m27MSrxp8xZyWa3eUmbblwwneF3T3nHXQ2xH9srZ2ZmVSqMecurnD8o2uXkJl5Dz7ABebbUhspWpCSFK3SbJ14Qqi13kNlTaAwphulU3D0izNmawpSZXEUvN19b4mKo1M78y4jlF7ql8mSElVkEWBBAET3ZKyIzvy4xsnE+a7bAQ3hhyjNq9UkzbqT6ouvtNkgahLS0i/AcBoBFvzG1PkPLPtNPZhSXJuy7E1zhLbimG0Psl5kLdCdxCnGxvJSTci1hrEarm2vkVJYYRialVqo1uXcmacylqRprxdU3OPcky+lKkp3mioKG8Li4sLkgRHOpVpZnkdzvEoHE0ib+pVH3y3+4DDf6KlPqkxBKzm7gPHuEca0bC1UmJuaptIm0zIVJPNoacDXfNla0hPKJ3hvIvvDpETvLf7gMN34+pUrfxSYyD9n/AN30WP8A5/8At+qi7v8A8Qsv/wDTDn/MCLNAtFZO/wDxCS//ANMOfXiLOimLoZ1BZBUWzMwRIZl4Cr2X1VmX5eTxBIO0991i3KIQ4mxKb3F/DFK1PYrwhiSnut4yxpWa5Vm5OnU+n1GYZYHMJWScS6y0hkJ5NSS4gKWFA73TEt2ucc4ry7yJr+K8F1J6Rq0s7JtsPMNtrcAcmW21BIcBTvFKiBfS5jXTCe2Jm5Qpb1pIwnMY9xG9VK28JWacEtO0+Rk3EITLPhhtSFPqKyQbBASpBKjFpFatU2KsP1lqVYm8eVGRaluWUs0ilSNOccU4FhY5RhtKg2oLAU3chYSAb6xXktsb5nUDNNqbw1M0A4bbYpNLRVptTbs23TJWR5q8kMqZKg+tPtXEOpSLk21IhuzE278ZeoNSoFOy8m6FiqjTavXAwJ9Ifo8mZqURKOkqaWgqfE0E2tYFDgCjYGJTW9tXMiXn8Wu4byJeq1CwxP1SRcnueLQocwILzjn2PdspKXN1KSpV9zeFlXEorkyv2c8NZVVyg12k12ozbtBwlL4PZRMbm6uWac30uKsPb9B6IuFHtRGouRO3czntmdKZcYfwA7LmampyaRNzDywFUNpA5KeAKeLjhCN29u2NuQpIAN4pKUXwqn2vmfzK/omINkBrk3hQjokB9IxNqosJp8ySdORX9ExB9n0g5N4UANxzBOo6e+VFVaQz1qRoWZnR97St/mU/TESqlm1OlAePIo/UIiudH3ta3+ZT9NMSmmfa+T/Mo+iIuu+zt6z8gsFn2x35R8ys4G3GGrE2G6BjGhzmGcT0uWqNMn2SzMyswgKQ4g9BB/X2Q6KItqY524tpWbGHNobGeZFEw7Wn2JDG88mlOSjE0t6Zf9QUc1YdTfk1SCnxZRA0d3ddSRZCzVtyrZgyRcprVJdwYh1uXeMw085PTCpptZb5I7r5c5QJLfeFIVbd0tHzm9lXZ/nanT6s5lrTW5imc05uhhTjTQMqLS6lNpUELUgE2UoE2jV6j7QO13h7CicxKslrFVOk0yzU/RZCiveqSZqblnEJSq8u2lKGpgNkhO+pIKgpRFicdGOtq7AzNRk1t82qtQxHLMV2vmkrQ0gepSXCoWadCUGYPJ7yWyNANCbgi3PwPk7lzlzUZqp4Lw/6mOTaVIU2iZeUyhKllakttKUUNgqJUQgDUxN0lKRoNI56Ys2kNtrL2sSCZrBqMVyMtJSuKqhMUqjuhqYphShlyTZK0JVy/LK5SxCVBJOlhG6+TUzjKbytwzO5jOBWJZqnNTFUAaDYQ+4N9TYSnQbm9u/yeuGlU1UyJBGh4ERAZsg52U8dPqE99YmJ4Tod0iIBMKJzrkCoWvQ3reMRGRAyLuorDnTkwfxBTmo2NPmiP3lf0TEH2fiO5Dhz/V1fTVE4qH2umr/vK/omIPs/D+xDh3/V1fTVGC4/tR1Lcw/sbvzD5FWHvDhBvJPCxintp13G7eXrIwDjGm0Gq+qcsopnKkiQNQYSol2VamFpUG3FpBsd2NeaTt6KpWFquKTRQ63SmcPikeuKdInqiudm3GJoEpsl0MlHerb0ULExeosSi2YzWyAwHnFWJKr4vROOKkaRU6Klpl7cQpmeS0HSdL7yeRSUm+h6DEOqGyHg2p0NjDtSxfiFySZdadWGW5Nha+S3OT79tgKSobnt0kL75WusU6dtTPBNKkq2jAeBhJVOmYmrMulc7NlxMvRT9lSqwsVuJI3bWAN73j60rbWzrxS7Kz2FcA4KRS6titWFpIz85NcuhfMUzQedCARuhKt0gceyCUWz+VGUdCyglarS8OVWpvyFVqT9VEtOOocTLOvKK3AhQSFbpUSe+JMT8KSeBEaNS39UGrriMGTr+FKLydd9T2qpKNuvF6VcmS6klDiilKgC2FBISolBJKkmMqZ2183cMYBwhmDizLrDjslmLJTTeHGqW9MlSasHAmVlX1L0s6neN08Ck9UFBW7e8CDYxWWcv2ywL24ll/oLifUt2oLpsqqpNtNzimUGYQyCUJcIG8E31te9rxX2cSr1PAhUf8JZe38xcWo3srLkD+3b8fkrMBBTpEPoFjmBiY9Tcr9ExMEg7tjEOw/93+J/zcr9Exizn72D+b6FTLexF6vqFHca7OuWWYuLazi3HFG9WpqrURNAS3OJS41JS91lSpdJH2NxRcJKgb3SnhaIUzsV5dN0Cp4RXi/Gi6FWUMrqMh6qjdmplllpluYWoJ31LCWGT7bd3kAkXJh+2wsV1/BeQ1dr2Ga1MUmoNTEg0mcl1hLjSHJtpCyknh3qlaxSVP2j8Z5fZoV7LHDuJJLFmHpuu0ymUXEWIZvelKbMvyj8xNyzz7Vi5yfIoCRe4LoBMZ1ViK4pjZQwtO4hYxjUcaYnqGIUMcyfqM4uWmFzEqHA4lkpcaKG0pVvbpQlJG8rXWIJgXYUoKsEzWFs2MS1OrpefxCJSSlJkJkpBupuubzjAKApLvIrCbkkAlRA1iLUHbsx5ixypy1JwjgqnzGHqcJmZFUrDzaK06Zp6XHqYpKbutqLAUi4JXyiU6cY8P7e2L67iLBeFMB4cwfUajiuTw4XVuz7pakpypuvIW05yd1DcDaCAReyteiJTJWrXdivL3ElWp9creKMTTk1JcwKit5g8qZMEMXIaugAE3SgpCjqbmPrPbFOU1QkaDJuT+IEHDVFbotNeanAlxlDU8idbdvu6uJebTxFiAQRrFMr2881MP0qo1XF2W+GXC3K1sSTVLnnyVTVOmW2VKdLgFmlb6laXICePGziNs/O+YrD9AlctsJsPy1Jq1aXNTU84W3peSl23rIbaWtSFq3yndWepXA2glFcjGylhNrGXr+fxdiOerUyJVNSmZ1cvMGeEu4Vt72+0eTtvKTZvd72w6BFu4kt63KmOqUdH/CY152Yc+cw85Me4tNfm6MzQW6fSKnTKa2wRNyyJyTQ/ule934SV2USOPC17RsLiNV8OVIGx/YjvD+KYx5vKC+uo/JVwP3resfNfLAv3IUgf+DaP/CIf08YYcDketCkEceZNfREPwimU/cM6gqpj98/rK9QQQRkqyiCCCCIggggiIIIIIiEPCFhDwgiwJD7ZVIf5xv6tMVxmGR69WtbfsRvw+2XFjSP2zqX5xv6tMVzmHcY1b4D9ht6n+MuJUp1pBO4kaXtrrpaHpJFhYm1tOv4YZaOLNoHR1a3vD2i5J11tqesQRLca99/G1/VC9PHXo10gsRYg+Djp4YOjXh0jXU9cFCTo1Jtfr1vC3OvAEanXSDvr6mxtx1hLd7qDboGukEXwfN+Bt7n/rDfMEWIubDibw4PXO8OI6bX18EN8wTu23tbaHqgpTJPnoHEdZ0t54s6lfayT/MN/REVjULWJHAjhrfwxZtK+1cn+Yb+iIhQsuCCCCIiomL8u5cH2xF+rWLdioWB+yF3Avvmw011gie5Yd6Budu7/TDmwOkD4euGyWtYdI6Dp8UObFhcWAPSOgdsSpWULcSm/wD6YXX3B16Le2jyCLAadmg1hdNbiw6eGkFCU9e6Qevq7I8mwFi38B/XHq1zom5tw017Y8q3SnXh0Ht6olSsGe1SbJ6PjiF1QD1Qlu9/t7fwd8Ims8BY+DXhpEKqh/bCWN9OcIt298IhQrPxn9x9c/Rsz9UqIrk1plVTD/mnfpqiVYy1wfXP0bM/VKiMZKIDmWFJQRoUuDT+OqLb82kBTzLPyoNsEyKeoufTVEwJvEAYwxjLCBUjCVSl5+nhSliQnxuqTc3IQ6kaDXQEGMhOZDkikIxPhOsUwg2LqWS+14d5u+nhAjBgxxLtwRBSnRklQVMuQQo3KRfrtCcihNyUgkag24REjm3gcJumrOKV7kSrxV8QTePirHGIa4CxhLCU2oOWAnKgky7Ke3dPfq+ARfM5Dp6pr1IpLV6vS6DJLqNUnGJZhA3ipZAHnJ7BESTUcV437yhMLoVKJIE9MNfsh5PW22dEg9avijPpOAUuTaK1i+oqrNQQd5tLgtLsH/Nt8B4TcxMUNpSBupsItBkaY9v1W6udOtRqiZe4fo7omywqcnD7aamzyrqvhPDwDSJGhkIG6ALeCPrBGUyEyGKNCgZLxySR0QHvQbdGse48rF0qHWIuaAi1mzLwdgXMzEOZ2XeOsYM0GUqczh6a5Xl2UOKMsUPgAOXBBLYSdOBMRaf2X8gn669XKZnJJSm9NVF6Vkpj1OnZSTYnXEuvMMtPIUlKeURvJ6t5Q4GLsx7iPJ2j4jEhjKhy09Vly6ZhQFHXNuBokpSpRShVhdJAv1RH0422drm+CEnwYWe/9qNkYQjUeWu0DRTUte2M6DVrXClSqMxXss5ePYpochQs5Ka/gR2t1epVaivz0myJPn8qppxcspCd4netupUd1IvxEPkpsrZNmvs4mr20dM1eoS7kiW1uzUg2EtykhMSTTdkJAI5OZUoniVC/AkRbBxts6Wt6xQR1etV7/wBqFON9na33CD/8Ve/9qI8lZ7rvBT5W73m+KgdU2e8h5ynYLk5XNmmNP4NoRw609NmQnUTcoSk/ZG3kqSF3TfeSBxINxpH2ouQeQdBYpErTM25Ztmi1yvVuXbTOyiU79UllMONWSLBCErugADgL6Q1ZvVTK2vVvAj+EcEvplqbXUzNU5PDrzY5tyah3w5MbwvbSLIGNNndCU72Bk3t+Sr3/ALUXokhDbDa8Ys65ZZUVhk/EdEcw4QBTPPNVXSNlHZ5ojaJSSzfprss7S5OmziJxNNmVvGWlRLNuocWgqaVuJSTuW1Fxa5hyqWzhkbPUml05jO7m71Gw/RaDJzKZ2TUUimTKJhh4pI3VKUtA3haxHC0WKnG2zrYE4FGvXhV7/wBqD177Ot7jA4//ABV7/wBqLPkrPdd4K+Jpx+83xUJfwHgDClSxnmP3bWqxVKxQJySXIodkpViYWtJIccbYSkOui26latQDbWNhMtSk5fYb3RwpUr9UmKwVjfZ1HfHBATbX7lnv/ai3cKViiV7D8jWcOrSumzTKVyyktlALfRZJAIHwRbjt4uFhAIFa5quC4uiYi4HLmVbYyxNSsD50yOIsSKmZamPUByVTNJlnHG0u8sk7qihJ3dNdYltPznytqQvKY8ohJ/BXOIbV8SiCPiiYqbQsFKwCD1wz1HBOEKsSaphelTZPEvSjaz8ZEY5c1wGLmWfUFYVXqmXGLKW5S61U8P1WQdKVLYmH2nWlFKgpN0kkGxAPwRFcQYc2cp1x+bxJTsDOuvTBnHnJlMsVLeKAgrJOpVupSL9IA6oe3sksoX1FbuXOH1KPSZFHmj7yWUWV1NWHZHANBZWngpMi3p80P2Y1qMlXOIMbbNC36k+5R6NXJiqJYlp8SNI50qaQyQWG3FJRuqCVBO6CdCB1R82m/VquTOJMJ7NUu1UaghxExU6wmXk1PBwBK98AKcO8AAbi5HXCbXUpKUzJJ9qnSzUqn1WpujKQgf8Aem+rwRecuhPJJAt7UfBGQ+GyHAbHGeIkdlN6xYUzimHwKeyAe2u5Uth/KbH1MnWalQpTL3BjzUmmnoXSaIXnm5UK3gyFqKRuhRJAAtcxJE5WY8mu+q2d2IVX4pk5SWYT9AmLLCAPDHvTsixxx5qBZeMqr3MkZiYChN5s45eChYjn6E/qQIm+EML03BeHKfhekF0ydNZDDRdVvLIHST0mHm4hL66RQ57n5FUkkqB53TLUvlnXXXjutolwtR6gFAn9UfCg5y5cTUjKNnE0tLr5NAAmEqa6OtQEZmcVFqOIcu6/RqRKqmJybkltNNggbyiNBrGfQMPSKsNUySrNMYddYlGm3EOthVlBIuNYzG8SJQF5zxHsoFpXmZNoOEIDDhGZB01OSzGccYOmwDLYnpboPuJpB/phF4nws2krcrsgkW1UqYSP6YwZnLbLubUVzOCqS4o8byaNfmj4s5T5aNr3mcC0ZB435omMesDmr4LMBnP4fFeJ/NLLil/94xXTlK6UMucqu/YEXMNKs2BUlWwngbENYBJAc5rzdk9u87a/xRM5DCmG6ULUyhSEqRwLMulJ+MCHNDaUiyUQxwhoaT1oIc08+s8DqG9V4mdzfrCRzehYfoiDcDnLy5pwfAgJT8F4VOCczJ9P7YZnqltTdEjTW0AdgKyoxYaUWJI6Y9gngYq8oI9loHw3qPIQ7OI4n40+SrsZV1dz/veaGKXFdO480j9SIz8N5ZSOHa964l16r1OcDBlkKnpgOBCCQTYADiQIm1rR4cFxppFJjvdkSq2SUBhBDcx1rCqSiJCaCtAWVm56NDFUbP2YuBhlhQ6V67aRzuXaW26yZtAWhQcVcFJN4terJLkhMtgE77S02AufaxRGzNlVRH8ladTcwcBSvqgmdqCltVCRTyqQqbdKT3wuLpII7LRgRXPEYBo5l6CVZAMhEdFJqHNoB1OzVzVSUwhi2SEjWZSj1aUKgsNTSGn294cDuquL68Yx5vAmXc5zPn2EKBMGQSluULsiyrm6U8A3dPeAdAFojzmQOUXKks4NYlVL6ZZxbP0FCFGz7lgB9qJ0g9BqUyR8W/FwmMNICxmtlHffd2DenubkstqUylFQp2HZSXZaeaHKssIQht791SLjQL/CHBXTEPm8yMhqO6iSpUtTKk+1Mc5alqPSxMqS/u7nKDk0FIXu2F7g2h6k8iMo5GYDqcDU59wahUwgvG/hWTEzkKLR6SyJel0uVlGwLBLDKUD4gIkcYdSAyjfed2DeqZXOMVuYlnsNbNDDypLvZObq0pKyYZTckboKVLSLkmwA1JMYeJ8pcx8wXMMJq9GwXRpTCFSRV6VKM8u801MpQpKFFCQhKgnlFEDQXN4v9CQBoLQAa3gYJd7TinlbG/u4YHXn81WaMFZ0zSd6bzdlJYniJWhN2HgK1kx8kZQ4rnqzSKpirNGeqzNHnETzcsaeyyhTiQQLlIv0mLUHbCkaaRTxDP7KnzhGGTaD/aNy+ZO6kExX0hiKhUnMHETdQqstLuutSxSh1wJJsk66xYLx3U36jwipqFh9FQzlxjM1SkB6Uck5INLdZuhRAVcAnQmNfabooiQRBzOL6FXJAQy2Lxpyw83WFYM4ML4op6qfU2adU5J8DfYmEoebX06pNwYxkYMwKaOcOJwrQ/Ukr3+YCSZ5vvdfJ7u7fttHyey2wTMHfOHpVsnpbBR9G0fFWV+ETomTmEjqTOOi3/FF7jJ0D2Afj/RWcMqfvEfAb195rCeX7a5GbmsP0NK6UgIknFyjN5VI4Bskd4P4toj6pfJDDk0ahK0fC8tOcql4Kk5Bgvcqk3Sr7Gne3gTcHiIeW8r8Et6vUVD9v35xTn0jDvI4foNOIFNo0pL7o0LbCU/qiMU87Iho7TuQ+Ss53HsG9Qh2oYXnAUULKpVQSsOgLVTGmWyHTdzVY4KPttNem8fGSwjUUMhqi5a4OojO642EmXQopS4AHBZCALKAAI6em8WfZSU7qE2HxR7CBYCI8ljxDWJFPwACGZhtyZDHxJKrmm5dVyUnRUpGaw5TZtLCJYPyNGQl0MpACWwsm+4AAAnhaHKbwXjCdl3ZWYzAe5N5BQpKJFoCxFj2xNUJAj3YdUVGzYJFHFx/3HepE9FGgNH+0bk30SlJo9JlKWl0uCVZSyFkWKt0WvDgBbphLawsZrGNhtDW6AsVzi8lx50XHXBcQWHVBYdUVqlLBBBBEQQQQREEEEERBBBBE3yP2yqX5xv6sRXGYgBxq0OP7Db0/lLixpL7ZVH8439WIrnMQD16Nkiw5m1r/KXEqU6UexQm4B0424w9o0AG58HVDLSSNxIAGg4Q9NkWGp7O2CL0B1pOvZ7aFt/B+G3DshDbW/Rx4aQXF7W1PDhrBQl7Nz4LcO2E8I49NuPZBYW0Nx19vVARxJGo4jSwgpWO902Ta3/DDfMp0vu/B7rthwe8F+rhrDfMEbpF7X4nTQ9kFCZKhrc2/lW4dkWdSvtXJ/mG/oiKxn+mwGvR2dcWdSvtXJ/mG/oiBUrLgggiFCIqJkgvua6b5v8AH0RbsVEwFcusXsd426uPTEhE9yxNhqL2+aHKXtpYm3RwvDbLgbo428J4w5MXBsONtTrrBSsoEW7emF0NuF+i/T4YQcBY+DjpC66gk9v/AEgiDa1tAOnrhD4Bw6OEKb30OoGlzCG1ukC/DpvBFgzpsm3wD/rEKqdvVFgA/wB0Iv8AzhE0nr7qu3j2xC6p9sZY9T7duzvhBQrPxl9x9c/Rsz9UqI3kZ97OkfxXPpmJJjL7j65+jZn6pURvI0WyzpHgc+mYcylT0gdUG6IWCIULxyTd77gv12hQhINwIW0LFIaBoCJLCFggiURBBBEoiEPCFhDwgUCq+mJB2ha7p/gvI/8AMvRZm4ALhMVpSv8A4g65/wDS8j/zL0WeOEXo9QW9QVmE0UPWqexDtG4cwxmYrK6sYTxGxUE09dYM4tqXRJpp6HUtOTSnVvCzaVrSDcX42BiZu5r5aM0uVrKsf4dEnPuKZlHzUmdx91I1QhW9ZSh0gdYiotoXZXns8MYT+IG8WNUuXm8Fu4YDXIKUrljPszSXFKSpJ5M8juFIINlXvpENo2xLU8O4gl8YUacwqJ9+WnZKpSFUlZuqSTgmAyOdJEw8TyyQykW0SQei1zazV6gVw5V7SuWeZWEHcWKxDSqIZVx5M3Jz1SZD0qht9TIcc77vUqUBa9uI64kQzjwFN1ek02kVuUqjNXE4UT8lNMuyrJlkBTocWF96QFDgD22jVvEX9Twn6xgrD2FZPGlIlHaY1VGqg+mlkJn+dVCXmklaQsX3QwU2UTfeHAXESXEuwzN13G+I6/T8bSVIplcTW0S8nLU8gSYn6c3KXQkKCbpLe+bAX0GkClKrYZrOHKd9mWdRmThdSZtwssFNVYPKOAgFKe+1NyNO0dcYeU2a1NzZlMQztOpj0kMO4in8OupeWlRdclVhCnU7vBKjqAdY1wzK2Ksz8wcKNYdRjfB9GbFKXS1s0qjvSaOUCWkNza1tuhbzgS1bcWdwb3A2i9tnjJqo5K4br9EqVebqztZxJP10PIaUjdTMKSoINySVCxub63gUoFZlTSn1PmdB+4r/AFRCMgbHJ7DBJ4ydv+JUTep/a6a/Mr+iYg2z/wDeewx/qn/qMXNME11hWXfvm01FM+NJXEGKM2pPB8pjat0KQRRFzyk011LanHeVCRvFSTpa8ZqsnKuE/flx35c1/wC3Ht+x2hZYf/LDn/MJiy1DoEHEtApqWTWi1ZxtjnA+XuLKng/E2deaiJmiSsrO1WaYYU9KSEvMKUlpx51DJShJKFanQW1ia1Wg4aoUjN1OsbSuJZVinyRqEypytywLcsE7xeKdy+7Y3va2oiJZt7PObOMcwsw5zCtRw1L4fzMw7TcOz81OOPGbp7TBe5VxplKNx1RS8d2602IB1iBVHYMxDNVrEsm7UaZUaXUueu0ypzNRfRMyynaeZVtp2XS2UuoSQni5u2AIQCAYp4xyYlaNQy6y4zQw5JS8ztC12u0yrIanZRlNallmZCSFoUhO5dRBA4C4IhowhiTDmL8az+DJHODMqSXTqAziF6cqEyzLMpl3Jh1gJO8gFKgplRNwBYjWK2xLsa581yn4NpkjPYDpLGHpahsLMktbTjLsg8FOvJcTLBbxeSB3qlICDcd9e8e1bCOZaqRUZJeLqLyrtEpsi2hLrwTMOytXfnS06rculpaHUovY2IvukCLhjxC0NrkFbaxrXF4GZVt5oTeHMqcuKrmfWs/cZTlNpci7UENylYlFOTiG9VJZBSA4ejQxN6ZlVUqpTZWpsZyY9S3NsIfSlU6ySErSFC/2PqMas4z2Ccy6vQK3I0KWwapWKKLP0uYk6xVJqdZo8w/Nh0TcmssiyilIulKGwlXC4je3D9PcpVDp1MeUhTknKMy6ykd6VIQEkjs0ijjXq5iVdzmUFaYlXn0ZzY7JbbUsDnrXQL/vcPmStXqtdyvw5Va1POzk7MSSVPTDpBW4q5G8qwAvpEvqQHqfM/mV/RMQbID7zmFb9Egn6SoElzCSlahPOYmJxgzCNVxIqUM0JCXU8GgvdK7dF+iHWgzwqdKk6kGi2JthDwQTfd3kg2+eGrMXCoxthOo4XVNmVFQYLRdCd4o7bdMPFBkPUulSVL39/mjCGd61t7dSBeK3cSJdp+/Xwotc3yjyx1T+zwin5q5+CcR4IIWCLCzkQlrQsEERCEAwsEESbojy4neRaPcIo2F4IsSbdRLMOTDgJS02VG3GwERfKfMamZq4Lk8aUiTflpWbdfbS2+AFgtOqbN7EjignwRJaiyqZlHpdKt0utqSCeAuLRBcgcuarlXlnIYLrM5LzU1KTE28p2XJ3CHX1uAC4B0CxFol/GgU9WnisyG2X8ke5x/aYhQdGdforHsLgwsA0ELF1YaSwgIFtBCwQRIOEELBBElhCwQQRfN2+7EapeKKXU8VVfDEul3nlJQ0t4lFkWcFxY9JiTO+0JiCYcwnU6XmPifFUytgydXalkS6UrJcBbTZW8LadmpjAmnRmRYXFCoJoeqhWVAbBcyIYpoQMuk1H0qpy3cpFxH0EImPUZwKxUluwQWA4CFhCL9MERaCwhYIlEloBqIWEGkERBYQsEESWEFhCwQREEEEERBBBBEQQQQREEEEETdJfbOo/nG/qxFc5h/dq318zb48PbLix5HWpVL8439WIrfMTe9ejd+HM2vpLiVKdaOocmm5064e0WKdSP/71QyUkndSem3zQ+IvuDjbo1MEXrXTh2cNfDBfTiLfPBqbgk9vbB3wPH9cERre+l+nqhABu8dOj/rB1Xva/CFNwePh46wRY7x43NgeOv6owJgWAvbhpqIz3jcX+EcdIb5gjcN79vHWJRMlQ4K10+e8WdS9KZJ3/AHhv6IisJ6+o6bdvCLPpf2slPzDf0REFQsm8ELBEIkMVHL2Dzmmm+bjr1i3IqNn92WdPbnW3DWJCJ7lrnUHXrF4c2BwsDboFuBhrlLWHedHtbfPDmwPi6yOMEWSAeom/HthbHS2nVp7WBPC1rW6/wYAB0C9+j3UEQUq9ybdXX2wKBHSL9Jtx7IVQ0v8A8VuHZHk6/gAdnV2wRYM8Du6C1hppwiF1QH1Ql+j7O3fTj3wiaT9t06XuP50Qup25/L2HB9Hwd8IKVaGM/uPrlvxbM/VKiN5HADLOj/xXPpmJHjM2wfXP0bM/VKiOZHG+WdI/iufTMOZOZT2CCCIUIggggiIIIIIiCCCCIhDwhY8rNgfBEE0QKi8cYlnMG5gZhYtpzTTk1RcAIn2EOglCltLmFpCrWNrjWKmy228X0UJdVzOprE03NP0uTprlMllSbjk5NSfOXmnG5hzvENptZ0qCVgiwMWjjyq4Tp2amIpLHbE36i4hwmzTHC3KvOB1JdeDiLtpO6d1Y6uMQ6bwpsjzE9LVNuRrcrPSUvIMS81KtVFl5oSbam2FJUlIIWG1qQVcVJNjeM58CJEwuY0kUCxYcZjKhx505sbeWWdRYlqhQ8J4sqNOVMUySn5xEkhtFOmZ50tsNvBawq+8NSkEC411jziXbbwUMJYZruH5Woyb2LZJVTkFzkiHkpYbqCJNxK0JdSQsqXcWURbXsiFZj5a7OWMEyE9hvE2IaNWZSpUeeem3JWpzCJxMg+laA+2obrqygLSFquRcHoEOXc02MlVA1BdOryyG1NMMLRUyxLtqmRMqQy0U7raS8AqwHGLfkkf3D2K55VBH3gpZObcWBadTXaxO4MxKxJqxBN4Zp7zyZdtNQm5UrExyZLlkoTyau+Xu3NgNYbU/1QTLKcD79HwPjOoyso5SpaYfZkm0pZmain9jMKStwK3isFBIFgRe9tYKi5sltUyn4TcmKpI2rc3XqaphmoMzTc/MKWuYcZcCAsb2+u4BtYwKo2yo6meE03XZhypTVJnZp15mouOPO00fsRalKSSSm2p/C6bxJk44FcB7FSJyXJIxjLpX2nP6oDk/IMypmKFiNEypE2uelFS7fLSAlpnm7iVp3/si98GyW98kAkRgVvb+wexhapV/D2X2JJpSZOsP0Zc4lpiXqjtNsZhCVBZUgAHeupIuAba6R7Zw1smyVRTV6WziGnzofmn3ZiRTU2Fv84f5d1CylI30Fzvgk6DUC0E3hrZFnqbLUiZo1SclpP1X5JsydRNvVIETd+813wTa/DoiPJI/uFT5VB95TPCG09TsaV6nYCqWB61Ra3VqI1VVJmls8iht1pSwW1b+88LJ1KEq3d5IVYmJrs/65P4YPRzT/ANRimpKlbMdKqlFrzU7imensMpK6MmoKqcw3KuciWQpCHAUhW4SnURc+QbTrGUOGJeYZcacEkCpDiSlSSVHiDwg+E+HBOMUzVLYjYkUYTXJYrn/xBy//ANMOf8wmLM6YrN3/AOIOX/8Aphz69MWWVJ4xRF0M6gsoqqtpbN2qZJZZqxvR5SmPvmq06nE1JS0y7SJmZbZU6vcIVZAWVadUV1lzto0usst0zHeEalJVRMvU6o9N0yVcdp/qRJzC2fVEuOWUhpe5vJBBNiLXi7sycucM5o0BjDmKkPrkmKhJ1NCWXS2rl5Z5LzWo6N5AuOkXhqxJkzgPFGK6hjCuybzs5VMMvYRmUcuUsrpzrnKLRujgoqJ1HRFoIqtxLtqYJlZOmOUuWmqZNzc9RlKlq7IPNLdpdQeLbc0yEE3BsRc+1I74R9KRt6ZD11CUUuZrE3NTS5dFLlGZLffqZfcLbYYSFHUqTwXukAgkWhuxRsS4TqT2HG6JU5l2Xp1RpLs/M1mcdm5sU2mrLktISx9qhorJ3r6kHr4SiW2P8qpShS+HZebxEzIU6ZlpykNoqi0qpTsusrZVLqAuN3eI1Ku904QROGV20g1mfmbiLLyWy3xNSEUCVlZpc9UpYM/uyVEIcaJ3mzdJA43tfhaLpFrXEVrgfIrCmAMXTeNqLV6+9UqjIMSM+qdqS30TYZvuOOBVypwbx1vFkggAWiCFCx6p9rpq37yv6JiDZAfebwp/qA+kYnFTP7XTNv3lf0TEHyA+83hT/UB9IxWMoZ6wqgsnOSt1HDmXNdrVImjLzkpKqcacABKVddjEgwlNvT+HqZOzS995+UacWo9KikEmExTTqLVKLNyOIW2XKc82UTCXjZBT2xiyWJcISTDUpK12lttMpCG0iaRZKQLAcYuhzXywhtYcWImvRQLWYXMnjFe8BpaBSvPU5qSwQy+u7DHTiOmD/ekeeD13YY/KOmeVN+eLQhO1LN46HrHaE9QQyeu7DH5R0zylHnhfXdhjoxHTPKkeeHFv1Jx0P3h2p6ghk9d2GfyjpnlTfng9d+GPyjpnlTfnhxbtScdD94dqe48qtbWGb13YYPDElL8qR548qxfhfdI9clMv2TSPPDi3DmKjj4Y0uHasyoOrYlH5hv2zbS1pvwuBpFf7N2Pa/mVlPTcXYmcZXUJqZnWnCy3uJ3W5lxtOn8VIiWzGJcLPtlleIqcpLiSlX7LQOIt19sMWX0nlrllhaWwhhiuyLVPlXHnG0u1BLit5xxTirkm/tlmLL2vbEDjk2iz4ESDElXw2tq+oIIzyzro+CsGCGIYzwtxOJqV5W354DjPCv5UUrytHnicTdas8TE909ifYIYvXnhX8qKV5W354PXnhX8qKV5W354Ym61PExPdPYn2CGL154V/KilH/AHtvzwevLCn5T0rytHpQxt1pxMT3T2J9jyb30hk9eWFPynpXlbfng9eWFujFFJ8rb88MTdajiYnunsT07YpsYguHMZVCp5g4nwxMy7KZWj825BaQd88o3vKv0cYf14ywsBpielH/AHtvzwxUqTwPTcRVbFMpiKWXM1kNc4Bm0FA5NO6nd+CMGbL+MhuY8AA5581FkwGNayIIjDUjLLnqPpVTkEGxEeoZ28TUCw/b2ngdH7IR54PXNQeitU/yhHnjK8ohczh2hYwhRD909hTxCQ0+uag/jun+UI88AxNQDxrdP8pT54eUQveHanExPdPYU7QQ0+ubD/47kPKE+eD1zYf/AB7IeUI88PKIXvDtU8RE909hTvBDQMTUD8eyHlCPPB65qB+PpDyhHnh5RC94dqcRE909id4IZ1Yqw8j21epwA1JMykW+eMLukYASSFY4oAI6DUmfSitkRkT2DVUuhub7QopLBEa7pWX35c4f+U2fSg7pWX35c4f+U2fSitUKSwRGu6Vl9+XOH/lNn0oO6Vl9+XOH/lNn0oIpLBEa7pWX35c4f+U2fSg7pWX35c4f+U2fSgiksERrulZfflzh/wCU2fSg7pWX35c4f+U2fSgiksER6WzAwPOPolpPGVDfecIShtqoNKUsngAAq5MSAG4BgiwJH7ZVL8439WmK4zEH/bVojT9ht6/ylxY8j9sql+cb+rTFcZi/do1YXPM29LfwlxKlOlIA5NNkmw6LcIfG9QbjUjU24wxUe24Nfhtx7IfEWIuE2sOHuYIvWumnDhodIW3Wm/WLHXthBwF08f8Aigt03sOuw07IIl1+Hrt0dUJaw9qbdA6jC2tpua8bf0whA6NeogcYIvg/rfQk9P8AChvmEKIB6uzhGe8Brrbtt7WMCYAI1SD2dcETJPDjYG3V0364s6lfayU/MN/REVjP21Pz24dkWdS/tZKW/eG/oiIULKggggiQ8IqNgnnCuF942F+OsW4YqOXADznVvn9cSET1LHvRYm1+PTDkySSb27RppDbLE6WIv4dLQ5y5BA6ugX1+GClZICSBwN+HDXwwpGnHhx4aeCAHQ6fxu3wQvVY8OGvDwwUJLa9vVpYwit0jjp16Xj0bW1OnSL6mPKvgv81oKVgzx0V0aa8NPBELqlhUZYX/ALe3bt74RNJ6+6bcLadnhiF1Mk1CXH+fbv8AzhBQrPxkL4Qrn6NmfqlRHMjvvZ0f+K59YqJHjL7j65+jZn6pURzI772lI/iufTMEU9gggiERBBBBEQQQQREEEEERCKFxCwihcEQRQvFWauXmCakij4kxAzKTi2g8GuTWtW4SQFHcBsLg/FDN7ILJ/e+6tHkj3oQy1uvUnCmbuMMV1tpS5CjYLl5+Y3Eb6+SadfWrdT0mwOnTHzy/2msnceydRnXHl4aTTGZKafGIGm5MchNtlyXcCyooIWkEgBV9DcCMukGGAHAnIaDT6LFpFiE4SOxP3sgcnz/hanyV70IX2QmT/Ri1vyN70Idp3MfKinTUjIz+NsMy8xU0IdkmnKgwlUylZshTYKrrCjwtx6Iw8TZq5Z4bosvW/VWn1JqcCVSrcg+w44+guhouIBUApKVqAUQdOHHSIL5fna7tG5MEYc47P6qnsz81sCVzNfLGv0qrqmKfQ52een30yru6wlcspCCe9vqrTSLUTtBZRADexUgaWuZR/wBCHR7NHJ+XbnlzOO8LNIpjol51TlRYSJZ0nd3F3V3qr3FjroYSbzVyckJhEnO5g4Tl3lsomENu1SXQpTS0b6FgFWqSnvgekaxeiTUCIxrSw+rlpGuupWYUpFhvc8OHrZ6OiibfZBZQHT12o8kf9CF9kDlAP8LU+SPehDyrMbKhuVpk8vG2GUy9aJFOdNQY3JshW6eSO9ZffaaX10hrrmdWSOHqbV6pUsfYaDVBl3JqoIanWnXGGkGy1KQklWitDpxNotCJLn7p7RuV7iow5x2HevkdoPJ8C4xakf7o96ETug1uk4jpMtW6HOtzcjOIDjDzftVpPTEOpuaGVOK5OWaw9jPDs6/V5JU1IsMTjSnX2t0neSi+8bWN9NLHqjzkAEjKHDNhb9h/+tUUxBDLMTK6ecqYeMRMDqKC54VGoUjEmLapSZt6VnZPLmpPy7zKilbbiSSlSSOBBAIjW6nbQePMrafI13L/ABHUsfSUxl7TqliBmp1Fc7L0utPzcsyhwurN295t19am98CzQ9oNY2vxRXsOUDPWUcxPVZGRlpvDjsugzjiUIcVyybp77Q6RYFJp2EXZFbVClaOqTmNXEyjTXJODtCBY/DeKYoJaw0+6FmFpAC08mtsrPaiqkaPWMBYemJ3Fbr1GwrM094TLExVUTDSbTAZecS0jkXt4pCyQWla6iIRmftO5z5kYUqNHncM0ul0r1eRLqXI1BLM9Iqlaqy0nfb5YuuJWAd67TYTvJ4g3joKxh+gyrbLctSJBlMuvlGUol0JS0v3SQBZJ7RHzVhvDqpp2edolMMw7q86ZZvfctY98q1zqAdeoRZqqaFaX4724cy8JSFVq9LpOGJ1CahiCms0bce59TE04qCJybIUAWnNwcAm3KIsVQSO2HndWsfUfLTDnrCqrtWUh31xS7EyunISumuTipbcDm8Xmy1uk71iFpuEnSNk80V5F1Gg1fDuO5+jobrcuZaeaYWkTkwg2737H9kOoGkNlIxROTMjLyGVGTDy5SVTZicqrSKcwnvd0rAUC4olI1O6CYkMc7moqqUWuUntxZ4S+HGKhWsIYZfm63SqfUpBUo2821Tw9UTJuc4LrgCrWCgd5A1sSOMZM5tjbQsjJYkqU1hPB0uxg/Di8QzQQ4qaNUbRPFgJYUw8tDRKQbgqXuqHTGxistMzcSMqRiDFtAo0u42WVSlHoza/sV77hcevcX/ggX1tH1a2b8Guy3Nq1XcRVNtTfJLacny00pF7lPJtBKd25Jta0VBrG+07sUUUK2bMyswMbzOaErmBjGlVBFFr81IyEk3K8hMSrG4lSN47x3kWVYEi9wdT0Wfs/qC8nMKW/yBP0jDbL7NGTbEw7NowoozL9uWeVOv8AKO292rfur4YsWg0Gl4apMrQ6JJolJGSbDTDCL7raBwAvEPczBhaprTJQPaIUlOT+Jy4bI5mbn4RGgacPUVaUrVS5Qki9y0LmN99pNtbuSuKmkWJVJEC/8YRoy0QW27AWCUj5o9rdkY5JwcMsX0C5Nfg4bQYWuzw6PiVgjD1CNwKPKeKEHreoB40eU8UIs3KnKmazNqTjLdZlJGWlyOV3lgvEdO6jp8J0iW44ySSmqIkMKPUWQZkmy245O1lIemF3PflHBPgjYxJ6VhReJOnqWjg2dPR5fyhhyrl0/wDpUL63KDf7TynihB636D+KJTxYixa9lLiGgUuYq81WKA81LJ3lpl6khxwi4GiRx4w14SwRVcYLmEU6epkvzYJKzOTSWQd7ha/HhGQIsuWGJlQLEdBm2xBDNalQ71u0D8UynixAcO0H8TynixFqdwzE/wCPcL/KzcRvFuCang1cu3UZymTKpkEo5lNpetbrtwhDjykZ2FhqepVxZadgNxxBQdahxw7QB/eeU8WIPW9QfxRK+KEWPQspcQ1+ly9Vk6vQGmZhO8hD9SQ24Be2qTwjP7huKRqa7hkW6qsjzRQ6ZlGuoSK9SqbKTzxUAqoajh+hJkJlxNJlUlDKzcNgW0PzxAMFUelzGHJZ+ZprDjq1OFSloBJ79Vvmi461h+cbnprDQmZMzO9zcvB8FkLPTv8AudeNoxcBZK12v4UkalS8T4Tcl18ohKl1VLRJQtSVd6pIPEGOecIELjHwDC1HQu/8Bs4yXhTomtbPWOuhy51ATh6hfiiUv+ZTAcPUP8UyfiRFq1TIvFVJp0zU5iv4WcblW1OqQzV0LWoDoAHExGMG4MqmOp12nUeZkWHWWuWUZ2aSwki9rAnieyOcGDGBwkGvWu/tm5GJDdFBFBz0UR9b1C/FMp4oQnreof4qk/FCLg9jzjpQ0q+FflpqI5jXLKv4ElpebrM7SH0TLhbQJKeQ+QQL6hPAdsQ6XjNzIParcOes6M4MhuaSfgoH63aH+KZPxIj03hmjPLS03RZZa1GyUpYBJPYIzrW6I+8lOTVOmW56QmXJaZZIW260rdWg9YPXFmpppKzzAh4SQ0JvXg+SaTyjmG0pRcC5lCBcmwHDrMfN/C9Kl1BMxQmGiRcByW3bj4RF31LFOI6jiPLKTqFdn5mXnGKXMTDa3ypDjvOjdSgeJsOMZuZSZjElLFNpdXnMQOTWLn5NT04jddpyySlDCBcnk1XJ3r27zQCM7yaoNHFefbajWPhtiwxR2ZOodioJWGqKhKVLosslKxcEsgAjs64t7LnDdHdw3+y6HLlTThSd9j2gsLA9USXMqjNT2FVIkZmlPJwdPy8tKCSm23XTIKSlta1hJun7KkK14coeqJ9Sp6Wps9jETiE80m68zLzNgCQ2qXJJHURZJ8KY01t2c+JDDeMIGv4K0bbhFrXMggmtCOynNzg18FBfWnh8WAoEmSoXH2Aajr8ECsK4cQUJVh+UBctu/scd9fq64sx6nPUqpyEi5ulTNFmxcDRSbubqh1gjdIj3LJ9Wpih0nkkc8kGZOallJABcbKhyqT123QoeAx5htgxw4sMU1FPp0ql1vwQA4QhT/wB9HQqwThTDq1EIw/KKIGu6wDaEOF8OAlJoEmCOILAET6YfmpCjsPyE27IsTc9NCbmpZO8sKS4dxKrEEDdsQLi9zDNXpV6Uq0xLvzS5lwbii8tO6pe8kKBI69YwbQkIsjDxYySNOrPUs+z7QhzsXCGAAj45a1GhhfDZP2hkvEiA4Xw300KR8SIdDcG94z6PQ5muvrlpZ6VaUlO+TMOhCSL24xqYb5iM8MY4knpW2jCBAYYkQAAKOetfDX4jkfgaEHrYw10UOS8UInyMsq0nVFSoevVPphsruGKjQGkOzcxIupcVup5vMJctpfW3CMuLJ2hBbiiAgLDgz9nx3iGwgkqA4owvh4YaqxTRJMESL5BS0Lg8mdY4vTu8l9wXOizHdSYwTVMQ4YnTK1ClMCalXm0CZnA0QSkjvrjQfDHMqa/qf2aTrqj3TMpAVKJ1xpKjifDHTeD6DGhy8Uxecghc6v3GgRIsNsHSKgrVjeV1wbyuuJhmHlhWMtccPYBrNWok7PMKaSuZpk+ialDygBBDyO9IG8L9VjF4I/qfOabiErGZ2UYCgCArGkqCPCL6R0FeBWr+8rrg3ldcbNT+wHmfTpGYn3sy8pnESzS3VJaxnKqWoJFyEgHU6aCKbyrynrebmLhg2g1mg02bLDkxy9ZqKJKWCUWuOVXpfUWHTEooTvK64N5XXG0X9b2zTvY5nZRAjiDjWViE5vbKGNcmcLpxXiDGeAqpLLmUSvI0TEbE9MbygSDyaNd3vTcxCKk95XXBvK64ufJvZTzBzww2/ijCmIMFyEpLza5NTdaxDLyDxWlKVEhDhBKbKGvh6oyM3tkbMbJXCgxhirEWCZ6SMyiV5Kj4jl51/fVex5Nsk7umpgiimzutSc98vrKN/XHT/r0x+mFH7mPBH5ndnoWz5y+F/wDCOn/Xpj9MSPaDwQRYEh9sql+cb+rTFc5jH/to1c2HM2tR/GXFjyH2yqX5xv6tMVxmICcat2H9xt/SXEqU50gd6kEXNuGkPjYG6Newa8ewwx0g/YkaGwEPiBfw21gi9adJt12I08EKAOjU9AJGsGumvDhrw8MHX09fXBEne9BsOvS8J1iwB6eFh4I9XUTfp6+iE0I7OgX4eGCL4Pdh48O3ww3zNrE34cT1eCHB3W9+njY8fBGBMg2uLE9H/WCJinxdR4Xtw0taLOpWlLk9f7Q39ERWVQ4EahPV03izaV9q5O/7w39EQKhZcEEEQiQ8IqRg2fWSdQo2PVrFuRUTV+WWLfhHS3HWJCJ6ltQAEm3VrxhzYvfpv1669kNsroBc/wAr+iHNjqtbstwgpWSAbA3OnDjpC2vwv8+sINBa3/8AKAJvbo7eqCJSNbkkHoOukeTa3tT4Nfjj0f4vwdfbHlQ04/D/AEQOlFgz3tVDU3GvHWIVVD+2Etx/d2/g74RNZ4d6Tbo+KIXU9KhL/n2/h74QRWfjLTB9c/Rsz9UqI5kd97Kjn+C59NUSPGf3HVz9GzP1SojmRv3s6OB7lz6xUFCnsEEEQiIIIIIiCCCCIggggiIQ8IWEPCCBUhjDDTuNMycf4PYmkSrlawGinofUjeDSnXJhAUR02KgbdkUx7AGpyEnTpGjY1kk06lu0upppq2phtL9QYlFSz6lPtuB1KFjcWkC+6oK6DGw1KIG0JXbi/wD2XkR/+oeizFJ4dvRF6Npb1BW4PP1rQ7HOxVjDBFJlU5eyVKrMhPYgwxNTlP5B52apqJOa3nuaTD7q1JastSyFG4G8BobQ7r2CscPMUHD8zmJR00TCUg9TaSG6e5zhxlyqInt54lzd3gEbnei3T2Rnr21cT0LO3EmE8RydJOGMOVWsS88GpJ5uYYp8jKtvKmUvFW4+5vLCSylO9rfheJXS/wCqA5PTjwaqNLrtJbDDr6pmabbVLDdlVTLbXKoWUlxxDbgCAd4KQQq2l7SuJrqmxK5MYQkKXL4hp5qdPxrV8VrKWXpduebnVPAMuuMLS6C2h4WUCdU2tYw0y2wHJystWm5SpUOWTVKlhaeYack3JnmiKZczDKXHlrWUOkmwJIANiDD5Stu7B7NMm6riCl1TlJyvP02mU7maJV9lpqSZmlh5TjpQVBLwFwRvFQSE31jJH9USyDZmaTJVc1mku1ibDDbc7LBpbLKpZEw1MOJJuhtYWEpvrvA6QUqIK2AHFVRU5OYkp1VkJh+qNO05/ncowxKzU8ZlIa5u6k3TfdKT3pIBBEZMzsCOHDEhh6QxjTpUsIxW1MTCZBRXMpqyN1nfO/dRaskneJJtcWMTLaK2j6phfZ9w1mrgVuoSUxiqckXJeSRKIfqi5FwFx7m7B3kF4MpKu+71KQonUCJhsn5vTmbWWjExXsQyVbxFR1JlqzOSDQTKqecSHmktqT3iyGXGgvd0CwoaQSqhWF9mzHOHMeUDHfq5hmlJo9KZp1XFMknlLqzDEspptCkurKG1Aq3+VQAvinUGLeyBN8n8MkC15Pqt+EYnFRATTpqw/tK/omINs/8A3nsMf6l/6lRcrWEesKyT+1b1KEY5o0pWtqbCErVKUzPyPrbqIcRMMB1oK327XCgReJvP5AZWT7pmGcPOU10679MnHpPXwNKSPmh7msbYblMdyGApl9Yrk9Juz0u3yJ3Sw2oBZ3+A1I0iUiKnxnuawUpQdqynuNAFWgyGw60NyVxjjZhA0CE4hmCPnJjwdnnA80oKq1WxXVADqicxBNLQf5IWBFoQRRxr9aoxFRnD+WmAsLJAoOE6bKLT/bUy6VOnwrVdR+ExI+STwj3BFBJdpUVK8hAHCF3RCwRFFCSwGsBHTcwsJBFWG0e8ljJvFLy0kpbkySANbXA/pjRdmwZTa/tR2RvTtHMc5ybxOx0LkiD8YMa8UrZJzQqVNlZ+WxVhpLUy0l1CVsvXCVC4v2x7Cwp9kjJnjnUaXH5Bc3vVZcW0rSaJVtXtZn1VNFU8hUZ+lzSJ6mTb8tMNqCkutKKVJPhEO2K8bVvGb8tN1wyy5iWaDXLttJQt0dayPbHtizPYdZs/lXhfxL8A2Os2Qfurwv8AAy9GxNrWc5/GFwrrotG271sthmEGHCeauSpQkGwJvbz3/ogSoJ6ouz2HebH5V4Y8U9B7DvNn8q8L+Kfis21InLGrYuxagNeKz61Sm9bphCodBtF2ew7zY/KzDHinoPYd5sflXhfxT0PPMgNDlJuzapyMPxVKAkkkKPxwpUU/hRdXsO82Pyrwv4l+AbHea9tcWYY8S/E+epE6XoLsWtzQ/FUZVSU06cVqLy60/Gm0V9geXel8NyjTqAk/ZFWA61kxtXUdkHM9FPmRNYtwzyZaXvgMvXKba204xXGTWyzmTmPl7TsVUfEuHpOVfW+yhp9t5SxyTy2ySRpqUkxz6+0aHakSCJU1IBXduB/jbtSs260fVY4sz6aFVybnT5wIAdSeNzfQRfvsHM3fyzwp4h+D2Dmbv5Z4T8Q/Hh/Nc2cy1di9LLIOXGeCoHvhpuwibpBARx894v8A9g5m6P8ADTCfiH4PYO5u/lphTxD8PNc2fu+KC9djjRE8P6KgDc9BgIvoUmL/APYOZu/lnhPxD8HsHM3fyzwn4h+Hmua91Sb22SdMXwVGqrNWU/JTJnn+VpqUJlF72rISbpCfAY+8pifEUi4+9J1ebZcmnkzL6kL/AHR1JJCz0bwKlG/aYuv2Dmbv5Z4T8Q/B7BzN38s8J+IfioWbODQ3xVt157FcKOeCOr+iomUqdRp5muYzjzHPWyzMbqrcqgkHdV1i4Bi4Mv6nUalQHZifnXphyZmi68pxV+UWEgBR7bQ6q2HM3Tp69MKfAw/E3w1ss5oYepaKenEuHHCCVLUWnrXPVpGjtyxbTmoQbBaa9apN5rFDqh47EweqM/vIUqdeJaa5BBKid1u1t0dmvCPCJybbmWZxuccQ9LhKWlpVYpAFgB2WJib+x2zT/H+GvFPQex2zT/KDDfi3o8v6L297h7VPpNYfvDsULlanUZFS1SdRmGS4d5e44QFHrIj4vvvTLy5iZfW664brWtV1KPaTE69jtmn+UGG/FvQex2zT/KDDfi3opN1rdc3AYZpqqpbeixGuxh4B10UCNj0wXsLAi0T32O2af5QYb8W9B7HbNP8AKDDfi3ooF0LZGiErnpdZByMXwUB043gKUkWJifex3zS/H2GvFvQex3zTv9v8NeKeiDdG2SKGF4p6WWQM+M8FVuJhuYaq+6eEhMEeLMcTp11aH3EhWgWf6Y771bZrzUqNMnKcMRYbQZthxnf5F7vd5JF/njR93+opZxvOKUM28Id8SblmZ9COh3IsubsqDFZNNwkkUXgr42pKWnEhulTWgzXN8vLJ3r69cIXFk3Kj8cdHv6ybnKOGbmDfEzPoQn9ZNzl6c3MHeJmfQj3K8UucSXVp/CPxwoeWDcG0dHP6yZnL77eDvEzPoQf1kzOX328HeJmfQiUXOIuuH8M/HC8u5axNxHRz+smZy++3g7xMz6EH9ZMzl99vB3iZn0IhFzkEw6kWStQ6dDaFVMvKBCnCQeuOjf8AWTc5ffbwd4mZ9CD+sm5y++3g7xMz6ESi0k2ebqz3y+P/AMx0/wCvTH6YUe1HgjlBlf8A1HnNfAmYuGsZ1DNPCkxLUSqy0+60yzMb60tuBRSm6QLkDpjq8D3o+KIRYUh9s6l+cb+rTFcZifdq1pcczb0/lLixpD7ZVL8439WmK5zE+7Zro/Ybev8AKXEqU60je3Eg8bXJ1+KHtIFhoQerXSGKj/uae96OFuEPiAbW6fBx7IKF649Z6+PfQtj1kHr107IQ6cf/APmDo4fB19sES26gbdVzp2wcLi5J6TrrBbpBHh/ohLH3OvG1uEEXweGg4i3DjpDfM8DoSOrXWHF63AAnw/hQ3TI49Hb1QUpknt69wdevot1RZ1K+1kp+Yb+iIrGeBtYpv2f0xZ1L+1kp+Yb+iIKFlQQQRCIiomCOWcsdN43OmmvCLdiomNH19e8bdXHpgiepW9hcJv1aWhzYtx49R01htlTcA3Nuu/TDmze9tL269IlFkC274OPDSFHED4uGsIOA6fc/9YXXXXTpPmgiDx1+E6XEIoG1ra2vbSPWugB16PBCKItoTbo67xKlYE7qD0i3xxCqppUZfsmEX4ad8Ims9ok3OvA2iF1O3qhL6n93Rb+cIhQrPxlrg6ufo2Z+qVEcyO+9nSNfwXPrFRI8ZfcfXP0dM/VKiOZH/ezo/wDFc+sVBFPYIIIhEQQQQREEEEERBBBBEQh4QsIeBgiq+mW9kJXR/wDLEl/zD0WdYkRWNLsdoau//S8l/wAy9Fn3IEXoxzb1BWYByPWqkrmzBkxiN+cermEETTlRrD9cmCqZcG/NvMcg6TZXtFtndKPamw0jGq2ypk1iDB6cCYlotTrVGRNSs4yxUatMzBZcl07rQbUpZUhIFwUg2Nze8URtJZiZpHPBzGWBpbEy8LZLmnv1lunrSmVnFzCwucQ82VBb25KqQUhtKtVHhrEKre3HnLLUXEOJcN1bCtaMjXcQ01ujN0l5D9PkJNDi5efedLllp71CVJAFysAEEERapVXqrbiobM+U09OzFWFHnJKozFYfrhnpGoPy8wiceYQw6tC0KBQlTTaElI73vRpDNjTY52fMwJ2ZqWMsECqzs7SZSivzL848p1yVlnEraBVvXKgUgFftiBYkxQWFtp7aFxjmJhPL3DmIcMVGmV+dkBMYnl8PPhiX5WnvTD8olpT1i4hTIG/vacoARePdR2qdoedLreEZehT1XE3iETlAXRXxMUiUpq1KZccWXBvc4Q2UpuB3zqCneCTDPRRFthi/J3AuOKJRKDXKY6ljDbrT9IdlJlcs9JLbb5NKm3GyFJ7wkHoIMY2UWTGWmTUlUKbllTFU6SqExy8zLpnHHm+cAWWuy1HdWr8IjUmxOsagYo24s5pTBiMyKdRJWnSdYFRqtApM7SFhx+ny7rTLbbrinkq5ZxRcIQhBUU2UBYReuxROTk/hLH1Rnpd9lyczDrsyhDwIIQt1CgBfXd148Ig1QELYOpk+p8yP8yv6JiD5AC2T+GNP7j/9Rib1Q2p00VD+0r+iYhOQR/sPYX7ZP/1GLgP7E9YVo044Aaim6sYDxDO7QeH8xGGmTR6fQpynvrLtlh5xaCkBPSLJOsWoLdEVvUcyKjI530fK1FPYXJ1KjTNUXNFZ5RC21pSEgcLHe+aLHB8ES8xC1mPUKdSyX1oF6ghLnshN4xboqKL1BCXPWIS57IhQvUEebnsgueyFUovUEed4wXMFNEw40w3T8X4ensN1ZbqJSeaLbqm1BKgOwnhDjS5NqnSEtIsXLUu2lpBPEhIsL/FEIz4n5uRytxHM0+ZdYfbk1FDrSilSTpwIiU4Sdfdw1SnXlqUtUm0pRUbkkoGpjKdDcJVry71cRy+AzWtbGh+cHQgz1sAOLWKnL6p7HghYQKB4kQm94IxKLY6V7gjzveCDe8ETRF6gjxvW6oXe8EKURKbdMIsC0JveCEcN0EA6xAFChyWJUJRE5KvS5NuVQUXtwuLXiLZP5byuU2ApHA8lU3qg1JuTDomHUBClF15bhFhpoV2+CJJVHHWaZNvNrKVoYWpJHEEJOsVjsqYnr2L8lKPXsS1V6pVB+ZnkuTDxutaUzTqUgm3QkAfBFpzmCM0UzoVnwmRjJPeDRmJtRrNDQ/DNXBp1wboMIF6cDBv9kXqLX1CXdHRBu9sBUOgwb3ggpqjd7YN3tg3vBC7yeuCVCTd7YN0Qbw6xBvDrEEql3RCW6YCodBg3tOIgBRRVFj2QWPZBvX6RCb46xE0SqWx7ILHshN8dYjyt0JIF+MRRKhe7HsgseyEC78I9EXgpSWPZC7vbCwQSqS0AA6oWCCJLCFgggiIIIIIiCCCCIggggiSwgPCFhDwgiwJD7Z1L8439WmK4zEv69WrG/wCw29P5S4seQ+2dS/ON/VpiuMxDbGjRv/cbf0lxKlOlHA5JJvp16ceqHtHDhwGo007YZKPfk0dcPbfzdHaYIvXV28OGsLpxHDpOlxBcDj/K1/VCX17egX6IKEEG/DXq0+OA8NDfqOmsGg6dOjwwuoOvHp1/VBSsd4Dvr9HHh3vghvmNRrxtoNNYcXrADd6R3t/6YbpngTra2usFCY58CxPAX46X8EWfSvtZKfmG/oiKxn+mwG91dFos6lfauT/MN/REQiyoIIIIkMVHL3D7gHArNxrc69EW4eEVGwkl9ZGvfK763DWJCkJ7l97TX4ei3VDiyLgXJtfQXNwYbpUGw706dH9MOTGpuCdenr7IIslPTe/bx1j0Dr03+Gwjym+7YX+L2serdFjqP50FCDw0Bt1a3vHlW8Rx169fij0den+V1dkIoG1t09drcO2ClYM8O84W007IhVTv6oS/59F+3vhE1nx3p0vp1e2iFVQfthLdj6Ojh3wgis/GX3HVz9GzP1SojeRv3s6P/Fc+mYkmMvuOrnT+1sz9UqI5kd97Oj/xXPpmCKewQQRChEEEEERBBBBEQQQQREIo2BhYRWoI7IIqixDTsxKHmpOYzwvhCXrkpP0aXkCFVFEqptbbriye+BuCFjh1RmjGWdnvNyZ8OImfRh1xVmzhvCVfGG5uRrE7P82TNKap9OcmSlpSikKVuA2BKTDZ3dsOA2OFcZfIEx6MZYD3AVYCsH1G1o+ma+JxXnGeUByTkbO+3/7QM9/pbXvdYhcvgmvS+Eq3gdvZvpaaLiN+bmanLJxGgc4cmVlb5Krbw3lakAgdUTru74aBscK4zuP/AJfmPRg7u2G1aDC2M/8A8fmPRiQ12zH9/FTjaf8AMP8AfwUMezWxjgyu4ey7TknKS05U2XfUxhustFG5LoSF3UE6EJKRc6m0SprFGcCFLdayPp6Vu+3UMQMAqv195Fa43x0msZ0YExnI4Mxaql0OXqTc6tVEfC0KeQ2EWSU3OoMWinPPDg0OFMZ6f6AmPRjJjQcDWFkMVIz/ALqsSXjue97XxDQHL+6LGXiDNx1CW3ci6YtCNUpVXZcgeDvI+zeLM5Wr8jkpIouSTu4hZFz1nvY+oz2w7a/rVxn/APj8x6MBz5w3b7lcZ/8A4/MejGNhfsh/fxWXiZtD/fwXwm8XZ1vS7jBydk0BxCk39cLJtcW9zEiygoFWwrlxQsPV1hDM/JSobfbQsLSlVySAoceMMS898NBJWrC2MkgAm5w/MAW+FMTfCmJKZi/D8liSiuLXIz7YdYUtBQop7QdQYtxcbWULKBVQcBfUPqVp1tXY/wAZ4L2iKdU8H1dqnTkjhtKW3VSyHrpeeXvAhWn9qEQI7Ue0WALZhyvySx5of9tH7/bVz/g3K/XvRSd+iPSyMrCiy7HRBXJbmG0ObmrN9lHtF8e6LLD/AO0M+aD2Um0V740t8kMxWcCQVrS2hJUpRsABckxlmRlm54Aq+KbqVmHaj2igbd0SV+SGfNB7KTaKH+MSV+SGfNDbMZN4tpWD3MY4lLFFllp/YcrOK3ZqcVpcNt+2tY3ubRBwxMmxMq8kHrQdL9EWmy8k+tAMlSGsKsr2Um0V74cr8kM+aEO1LtFdOYkr8kM+aK03FFzkt1W/e27bW/VaPfNZj/Jnv5hivyOVH3QgY1WQNqTaKPDMWV+SGfNHobUW0Vb74st8kM+aK0Mu8gFSpd1IAuSUHSPKApwlLaFKIFyEpvYQ8jlNJaFPFt51PK1tQ7QKKXMOTWOZGaaCe+ZcpDBSsX4HSJVI7Q2ezsnLujHrDaVtIUlCaWzZII4RRWIZaaNHmgJZ25b0HJnric01t1qlyZeaWj7AgDeSRfvR1xkSspKPdhLRRc9vzMxZIQnypLa1BIVh+yFz21/sgM/JTUJ7IbPf3wWPkpmIQll5xIWhhaknQEIJHxwvN3+mWd+Bsxm+QSOjC1eAFs2pSoiOopt7IXPf3wGfkpmD2Q2e/vgM/JbMQVaSgkLBSRxChYx7DD3DkHD/ACDE+bpEfcCgW1ajjQRHKb+yFz5v937Nv0UzC+yFz398Bn5Ka80Qgy0ykbxl1gdqDHlnv3EpPAqA7ePREeQSNCQwZKoWzaeINdFcCVOvZC58Wv3QGPkpqE9kLnwrjj9jj+K2Yc6thXB05iqq4JpVJmJKblGFuys3zsrDq22i4pK0K0FwCAQdDDY9TMGUOoUvD09R3592cl5Z6YnEzam1NKeSFWbQARZAUOPEgxhYLPIoIWepbDyi1QamPlorXn1L5zG0NnqGHivHkutKW1KKTSWbKAB0PYYhODdoXOmi4dlJDDmKabSqeN9bcrK0dlLaCpRUqw7VEk9pMTmuYXoGCKZNTdekXa067UJyTZZS+ZdCWmDZS1KSL3UTYDQDtirvU2gpy5pOJaHIzErz2oz0uhp+Y5RSGW0oLaCbAEjeN1W1jw98OLhiFEkhh0569C7PwSh0zEmIFq+ufVoDzHPSpn7JzaGHHMKX+SmfNB7JzaFOozFl/klmH2RyuwZOVbElFeRMsusSlMRS3OWNm5uZY3hvjpSV7ot0XiNYZwFSH8C16v18PpqDcu+qmtJXu7nNykOrWOkby0pA6wY8ZinsvXXW8NhFpPEjIt5te5ZPsm9ob3xJf5JZgO05tDa/2RJfT/RLPmhcfYOouGKRJKkMHKSiZkZF/wBVHKoVK5R1tK1jkb9ZUBcaQ91rKbCrWLJRui85doxZmpaaZW6d+XnWZZboBX7lVgoX6iOiGKdNQH6EEOxAwOdAABrTLV/eWtMPsndob3xJf5JZj17JvaGtcZhy/wAks+aManJwGcATeJpvAanpySn5eRNqs8kO77a1FZFtCCjhw1jKqWBsNUnBctVRKuzdapqJeo1qTXMFDZlJkq5JCTxSUgNknj38QHzhFRE5lc8nsdhwPl6GtNA/vnC8+yb2h/fDlx/9pag9k3tD2v3RZb5JZj6T9HwOuqYNpEjhFcqcRIkZh901JxwtJdfKFoSCNe9HE66x8K3h7COB5EVCoUF2srqNUqEvLSy51bDctLS7pbCipI3lrUeuwFu2HGzYr+0yCgStlEN/8bN2gUGedPovfsnNocccxJY//amYsPB2dWdFfoyJyax20l1KihZ9TGu+IAN7fDEUpmWOBJuo1YTk3NStOnaTIT9Kdcd1lHZo7iA5a28lKtD0W1h5wnh5zD2FJBicl1MT6nptubbUT3rjbgRax4aCNDeCYtKBK8fCiEAFJeDYcxGEFsEYj0KX91HOHox638ltQndSzh/L5r5MahkCSoncBNuNhe0euRd6W1fzY8P5+tZ2YiuW2NhWSMuKbVPBzSzi/L5r5NbhRmlnFx9frfyY0YZHEqbIS4kpJ11Fo9FtwpCg2rdPA7uhikW9aziQ2K7JVGwrJABMJtFb2QmPcbYkxNWqJiuuN1JuVlWJhlSZZLJSVqUCO94+1i9o1t2cxyeP8QbwUCaZK2v+cc4RsiLdEdkutHizNmQ4kY1cda5BeWBClrSiQ4Io0aKJYITpMLHoloUQQQQREEEEERBBBBEQQQQREEEEERCHhCwh4QRYEh9s6l+cb+rTFcZh6Y1bAGvM29f5S4seQ+2dS/ON/VpiuMxCfXq2LX/Ybf0lxKJ0pB+xo6rcIe0E2tfXpPX4IZKPqhJCjw4/0Q9oFgO94cB7mCL1x0+K99PDBYW6fgvCnXikm/8AxQW+Dt6uyCJBe9ydevW0Fuu5HQNdIW1x7X4P6YLHj89vbdkEWO/fXiesdcN8ze3ttbacdPDDg+ejhrxt7WG+aGlik69HuoImSf1Fhw6RrFnUr7WSn5hv6IisZ8E67x0Nt7+iLOpf2slPzDf0RBFlQQQRCIioWB9mWLC++rTr1i3TFRMkB5zq3yCenjEhE9ypTYXN+tWnxQ5s+2sLeAAaQ2SpOgIA7NLQ5MlNgBw8IuYIsoagC3HsGsLa17/0aQgNhcfCbiF3r2HxcNfDBSixvw+CEPDQ9l7D4oW9xqdOnXhAT18eq/RBFgT1yFAm3X2RC6mf2wlx/wCIR8PfCJpPEBFgPB2xC6oLVKX/AD7d/wCcIIrPxl9x9c6P2tmfqlRHMjvvZUf+K59MxI8ZfcfXP0bM/VKiOZG/eypHgc+mYcyhT2CCCIREEEEERBBBBEQQQQREIeBhYQ8IIFVcik+yBrhHH1ryP/MPRrvXtq3OXK9qvt4+psk9i9mqMNSeE3ZESsuqmv1FMs1OS07vq5wnccbCgbFK1gkARsVINIe2gK804LpVheSB7Rzh6PnN7L2SFSan0VTBSJ41FCG3XJqbfecbQh4PpS0tayptIdSlYCSBdI6ovR9LeoKxBA9brVY4921pDB1aquC1YHcOIZWQnlMITUmXmRPS0mZlUu6pu+5dII69NQLiMGV255an0rC4xPlfW1Ver4dkMRVBikkTSZeXmiA2W0pG84SN5e7YEAW46RbDmyrkS9WziJ7ArLs6rllLU5MvLQtbrXIuuKQVlJWtvvVKIuRH0lNmzJimqpZkMMKlXKJLIk5RbNQmG1JlkL30MKKXAVNpPtUKuBqBpFoK/QFU8nb2k3ZGWqzGSWKFyE9T6xVpSYVOyaeUk6Wu046U7907qbKCeKr8AY9zn9UHy/bNZqFLwHiqpUWjtTXKVGXl7p5ZiV5wpKhwbQQQjfUQN7jprFzo2eMl1yctTfWTIliUkKlTmGytXeSs+bzaBrwc6Tx8EN89s4ZE0+UnucYUlpGmzsmqTnpfnrrMo60pgS6i41vhsqLVklRFzYa3AgowhVPWNtTERq2HcP0LJ6carFTxBRqZNSVQqLAIlqlLuPsONrQSnfKWzcHRNteiJvjfMHM7EGdYybwHXaXhdFPwscRT89NyHPXnXFvFptltBUlIQkglatTwAtxiZVPZ4ydr7yZ6ewfLrmN+nvofbecQtC5JtTcqtC0qBSUIWoAjoJjNxtkTlfmFPyVXxXhlM1UJCUXIMzjcw6y9zVZutlS21JKmydSkkiIUgALWPZ02h818/wDMyTmK1KP0ihS2CRUn5OUdaTLTE2Zh5hT6goFwoUWu8SFC3TfjGy+QN+49hgkf3Hp/OVGbT8rMA4RmZivYXwzJ0ydTRk0cKlkbiRJtFSm2gkaABSieF9Ywtn/7zuF+yT/9Sou/5BprVk5Rh1LUfbS+/wBtH/5clfrnopO2sX3tmYcxTOZ1sVamYWrNQk3KDLsB6TkXHkBaXXSQSkHWyhFI+t3GZ4YBxT8jv+jHq7Pjw2yzWuctpCe0NzKwozqJWqlh2rS1bpMxyM5KL5RlzcCt1XgOhg9bmMvyBxT8jv8AowetvGf5AYp+R3/RjMdMQXCmIK7jbrV9zm1lWMQYOXKT65ikYlk7c3m5NltyWmtQCHEOA7htc6f9IgI2j84ynvsSMgWsbSTHH+bECGHMZgW9YGKfkd/0YT1tYyvf1gYp+R3/AEYxWQZNnskKj1Rzr7v4mrUziQ4semQamZrnhd3E25Xevfdtb4InQ2kc4kiycTsgf6gx6MV/63MZjTuf4p+R3/Rg9buM/e/xT8jv+jF975WJ7VFPqa1NKxn5mnXqZM0eq4iaelJxstPIEkyneSeIuE3ERzBuO8TYAm357Cs+mVemWg04pTKHLpBB4KBtwEN3rcxn73+Kfkd/0YPW5jP3v8U/I7/oxS10q0YRSiglmtTGubS+ccvSpl9vEzIW2i4/YDJ10/gxm1jMPFmN6TIpxJUG5kNoS8ndYQ3Zaki570CK1rGEcbztNmJZjAWJy64myUmkPjW/8WJlIUXFTMhLsuYKxKFNtIQoepL3ED+LGTJulGPqCFz2/rI8RkJsAE6dClmHc1sb4VprdJolUbYlmySEGWbVqdTqReHTu+Zo2sa21b/U2vRiDepOJvyKxL8kvejB6k4l/IvEvyS/6MZbmyLzUlq58zzpDaGsxgLKrGIqtX6wuv1R9Ls64pKlL5NKQd0aaAW0iYDPrMsAAVaWsP8AwLPoxBfUnE35F4l+SX/Rg9ScS/kViX5Jf9GK3+RvADi00VtkO0oRJaHAlTWYzxzFm2Vy8xUpZTbiChQEm0Lgix4CIKhzcXynE3v8PGPr6k4l/IvEvyQ/6MApOJPyKxN8kP8AoxLHykIEMcACkSFaEUgva406FMqtmRJTM/UK3RsNCTqtSZUw7NLmlOBtCkBCuTRYBJIuLm9r6R8E48pMyqQqNawkJ6rU5ltlp8zakNOBsANlxux3iLDgRe2sRQ0nEvRgrEvyS96MKKViUf4GYm+SH/RizgkfeHar+K0jpaaaqZdfWpC7jeUqFLmqfi+iqqjSph6ebW1MlhxtxzVwA2VdCrcOgxCcK41w0/hZFCq+CQ5SBOuT8jLSs+tpcqVjdU1vlKitJCU6mxuIcHqNiZxpxAwZiUqWlSU3pLw1IP8ABiG0bCWOJOmS8s/gHE6Vtp3TakP9f8WPAX5LWiEZXPToXceBpvGGa84jD7NCcj2qZVDMipT6q2+JJEu/WJmRfaLLhSJQSp+xpTp33ehIueq8ZeIs1pvEVUqNQfokuw3PUldMSwyvdQ0VrDi3BpqVL3iR2xEPW3jLX/sJif5If9GF9beM/wAhMUfJD/oxz4PmdRXd/J7JrWo1aQpFijGOHcTsMTLuFphmrMSctKCaFRJbKWUpSDyW5a5A64c6VnHVKXiOv1pFKZdl68wW3JRbhIac5Pk0upNvbAFXRqFWiFetrGPTgTFHyQ/6MHrbxl+QmJ/kh/0YY5itaHsTyeyyzA5wI/MFnU3EDUnht7DT1P5diYqcvUHFcoUkhpKklA06Qs6xJZvOjFFRn6t6qFMzSKrLvSq6aQlKG21CzaUrCd7vDukE+5iGetvGXH1iYo+R3/Rg9beMvyExR8jv+jAOjtyAKrfCsuIS5xFesJ3XjN1dXwtV1U4b+GmpZtKOUP2fkXS5c6d7ck9cOrmYlJrMm7TMWYTVUJVFRmqjJGXnlMOy5fXvuNlW6QtJIHQDe5iJ+tvGQ4YExP8AI7/owetvGf5CYo+SH/RiA6OK5HsUuh2Y4D1gCNBBFQpDVcw5uqM1yXXTGZdmqykpIsNNLVuyjEuoFtKb8dBqeJOsWjQcYzuMcMUp2oSzaJmQQuWdeSdZlWn2RQ91YAHrIvFGHDmMhqcCYo+SH/Ri18BSFfpeHm5ecwjiFC3Fly3qW8SAevveyNBeLyyJLcXDaTXSKKIcOzIT2xGOALdGY6lPaJimu4dbcZpM8GUvK3lAtpVrw6RDn3TcafjdPk7fmiI79U/JTEPyU96MG/U/yUxD8lPejHjYfnaC0MZjAHWrkSFZMZ2N4YT8E61qvVXEDzb9WmQ8tsFKTuBOnwCHKUzBxXISzUlJ1JKGGkBCE8gg6AdZF4jG/VPyUxD8lPejAV1S1/WriHT/AEU96MUtZarXl7cdT1qp7bLcwQ3YMI6lcOR2Ka3iTHVal6xMtvIlacwW91pKCN5xd9QNfaxfYjXPZtk6p68a9U5qj1CTl1yEu0hU1KrZ3lBayQN4a8RGxgjtN1uO82Q+Priz06Vxy8rYLbSiCBTDlSmjQgcTCwg4mFj0S0KIIIIIiCCCCIggggiIIIIIiCCCCIhDwhYQ8IIsCQ+2dS/ON/VpiuMw/u1bN7Dmjf0lxY0j9sql+cb+rTFc5h2ONGhqTzNvTo9suJUp0pFghPejUcOrth6QNNeHX1wy0gjk0a9HGHts+2SR0a26IKF6AGpBPzd7B8F+zr7YAR3oT0+11Gvhg3hwPDp1EERx8/X2QEEnQfBpp2wpUb9F+nha0ed4WFjp0cNT2wUr4vlPEa9QPTDe/Yg2HhNvaw4PlNlcdOOvDwQ3zBAt19GvGChMdQ3STYC/V/TFn0v7WSf5hv6Iisahu2OunhEWbSvtXJ/mG/oiCLLgggiESRUbG8Xlj8LeNjrYRbhipGbl5wHQFStNddYInmVI3RYm3h6Yc2Qon21z09ohslOhV9euHOX0HtSOzpESpWUOA49nZC37Tbp14+CPI1TY9PHjrHoDUfEOyCIvrpx6D1CPKuA42vwvHrsINurr7Y8qvxv8Nvmgiwp46KuT268fBEKqp/bGX1/t6La8O+ETWd1BFjoNOyIVVb+qEv8An276ce+GsFCs/Gf3H1z9GzP1SojmRv3sqR/Fc+mYkmMvuPrn6NmfqlRGsjRbLOkeBz6ZhzKeZT6CCCIUIggggiIIIIIiCCCCIhDwMLCHhBAqwpf/AMQtc/8ApeS/5h6LPHCKYrWKqLgXPOoVnFTr0jT5/D0rLS82phamlOIfdKklQBAICgdYm9PzgyuqZ3ZLH9BcN+Bn20n4iRGTFhvdhIGVAsaE9ragnnUxjSTbMwtmu7mfJ4Xy29WW6bnNR28L1Kdki4pFKmpeaS6JtRGjZMuXWwRa56eEbhJxhhZwBTeI6YsK4FM22f6YxZ3MDA1ORvzuMKOwkcS5PNpHzmLPFv8AdPYr3Gs1haD5V44z6lRIY9xQ5iDCaJ6dlMBVWozVMcnVU6Xpki4pycSyQQeczZSnlFJPDtvGLirHm1HnPltmVTMby89L02kYWkX6fTWaFyPq447MupS+SoFbRUhtp0tDVJVY6aRu5PZ9ZZNHk6ZW3K09xDdJlXJxWnR9jSR88Yasy8wK82DgrKaplB4P1uYRIJ8O73y/mi42WiHNwp15Kh0xDGg16kz7LeMMb4uy85xmAmYlcQyM47JT1MckDLoppRZKGG1H93RuAKDoJCt6+nCLo31HhFZt0vPqrhSpuvYYw+F67krKOTqh/KWUj5o9DLXMeZTaqZ01Y30IlKfLMj4O9J+eJEBozc8eJ+ip45x0MKn9TUrmEyRaxZX+oxDMgBbJ7C46eZ/+pUYCsmaq6FCazXxi6FCxAmkIHzIib4NwtIYLw3I4Ypjjy5aQa5FtTyt5ZFybk9esTE4pkLCx1STqooYHuiY3CieQlPVC7ohYIxlkpLCDdH/9MLBBEm6OqDdT1QsJ1QRG6OqDdELBBElhBuiFggi8biT0QnJIB0QPij6QQBohAOlfPk0n8AfFByafcD4o+kEKlKDUvnyafcD4oOTT7gfFH0gialRQal8+TT7gfFByafcD4o+kECSpoNS8bielA+KDk09KR8Ue4IjNRQal81MtK4oHxQBtA4IGnZH0gggAGheNxPuB8UKEjoAHwR6giKKaleCkdQPwQBA6Ej4o9wRKmq87vgjzuD3I+KPpBBKrxu9ggKB7kH4I9wQSq8BI9yINxPHdEe4IgtB0pVeNwe4HxQu6PcCPUEMIUVXndHuBBuj3Ij1BDCEqvAbSDcAR7ggiQKaErVJ0mFgggiIIIIIiCCEJEERcdcFx1wadkGnZCqIuOuC464NOyDTsiKoi464Ljrg07IL3hVEsIeELCGJqiwJD7Z1L8439WmK3zEI9ejV7/wDdG+H8ZcWPIfbKo/nG/q0xXOYQ/wC2zQva8m39JcSpTrSL7ibHW3XpDygmw1Njw1hlowG4mw0HR0w9ove/SeJ64IvfDr/ha/qgvwIOvRrCHQC3R/wwcdbfB19sES3Fum3Rr0whJOvDTU3gsSb316/6ILaaDhwGuhgoXxdOgsf4v/WG6Y9qq97dMOD2l+nrHuvBGBMX3bpNz0HXSClMk+SNb99aw10tFmUrWlyZ/wAw39ERWVQAuQQfBrr2xZtKv6lyd/3hv6IiFCy4IIIIiKjYP2Zy3ujrbhrFtnhFRy6bzC9Nd46XGusSET1LJ0AKdOq3zw5sdh+Hr7Ia5XgNSBfjp8UOjPTdIv0jSwgpWSm9rWt/6YXrFvg91CfDx4ajWFv22A42tpBQjTr+HqhDe3D4P6YW/wD/AIuLGAqSR7Y269L36oKVgT1t06Xv88QuqW9UZfT+3t/B3wiaT2qVXIuOIvwiF1W3qhLEH+3t27e+EEVn4y+4+ufo2Z+qVEcyO1yzpBHuXPpmJHjL7j65+jZn6pURzI372VI8Dn0zEKFPYIIIIiCCCCIggggiIIIIIiEOukLHlRISSIFFjuyjExo+0hwX4KQDDPP4CwdUyo1DClHmSriXZFpR+dMQ7MHPfD2XuKmMJ1CUemJyYkxNp3HEJTu7xTbvje+l4ZjtOYe9qKFNX/1hrzxixLSgQHYXRKELcS93LRnoQjQYBc06DRTJ3JbKl1e+5l/RCo9UokfqEfeUyqy1kFb0tgWgtnoJkW1H5wYgqtpnDwI3aHNnrAfa88B2m8OcPUCbP+8NelEG24JydG8Sroufaw0Sp7ArckqVS6ekIp8jLS6BpusspQPmEZm6B7URS/smcNgaUGb16n2vPANprDx/vFOePa88WvOso45xB2qsXTthuiWd2K603tC9ukUp7JzDwsr1Dm7dXLteeE9k7QN4gUCaI6+cNeeHnSTpXjAnorbP4d3Yrsv2wgBveKNndqjDEjKuzkxRZpDTKStauXaNgOy+pi18F4nlcZ4VpeK5FtxuXqsq3NtJcsFBCxcA26YyIE3Bma8U6tFgz1jz1mhrpuGWA6Kp9gjyDBvjqi/Va1eoI87464N8Qqi9QR53xBviJ0IvUEed8Qb4gi9QR53xBvdhgM0XqCPG+OsQu94IDNTReoI879oN7rgoXqCEKgI8794VRe4I8b3bC70EXqCPG9eDeMEXuCPIVBvDsgi9QR53u0Qb0EXqCPO8YAodfzQReoI87w7YN8QReoI8b8G/BF7gjxvHqg3z1QRe4I8b56oN8+5gi9wR43z1Qu8eqCL1CX7ITevEXzMrc7h/AddrNNd5ObkpJx5lVr2UBcG3TFTGGI4MGk5K3FithMMR2gCqlIN4WKrydzik8waY3J1JxDFZZaSp1saJdFh36Ow9I4iLNS9rax8MXZiWiysQwoooQrEpOwJ6CI8B1WlfePKjbSFBuLx5d0STfhrFhZYSbw4XguOuNFZ/aPxnIYlxBS5+q1J1MpVppllTc0UANpcISndGmgFo8+yZr1vthVx/vhjfw7vTERgiBwoVktl3OFVvbvjqHxwbw6o0YlNovFtQeMvIKxDMuJSVKSxMqWoDrsAY8ubSWJ2G2X35mtIbf3+SKpxQ3glRSr4lAj4IqN3YzThL2161V5KVvTvDqg3h0ARokdpuv9FQq4/31UKdpuvp/vlVz/viok3bmR94KPJjrW9m92CDfHZGiXsnK+rhP1kf74qE9k1X7/bCsH/fVRIuzMe+E8mOtb2lzXoj3xEaM4W2icZ1zMvBWH5OqVBuVqNaYZm+VmSsONHeuix0sY3lTqkdojUTsi+RfxbzUq1FhmGaFYEh9sqj+cb+rTFc5ifdq10/sNvT+UuLGkR+2VS/ON/VpiuMxfu0aJ0/Ybev8pcYitp2o+iEkno49fZDyjqA+D3PbDNSBdKbdXDSHlAFgd49huNfDBQvZ8HE9XtoXtF9Om3DshNNfn4aeCDp049A01HXBSlsDpb4IS2nG9+m3Hsg0Ou9p0Hp8EHTbS/SNNO2CL4PDoItb/hhvmNARu//AMu2HB3VOir34cO+8MN0zbdJv4TcaQUJkn7i5J0t7bq7Is6k/auT/MN/REVjP2Olrnqv88WdSvtXKfmG/oiIRZcEEEESHhFRsaPuAE23jfXti3YqNkEvuHj3xsegaxIRPMsogix775rQ5sEWAJNujrvDXKjvQLEDq1h0YBJ4i/XrrBSslJvfUi/H/pHrwE9mv64QCw4eDj3sL8Cu0WPfQUJDbW5NunrvCEnrufmtHo343OnA9UeSLC2turtgpWFPW3bC/Zc/riFVPSoMD/Pt3/nDhE1njobk3trx1iFVS/qhLjj9nQB2d8IKFZ+MvuPrn6NmfqlRHMjRbLKkeBz6aokeM/uPrn6NmfqlRG8jTfLOka9Dn0zBSp9BBBEKEQQQQREEEEERBBBBEQihcQsIemCLRjbTURnBS7Ej9pk2IP8AnVRTNL5KaqklLT84tmWfmWm3nAr2qFKAUfgB4xb+2wvczhpdz/eVP1qookzGpsLg9BjnlrENnnEhfSdzgX3ehMBoSCK/FT0pmkYlMvXMPqp0jLNz6UlhjcWUJl3ClIUdHCBYhRvrrH2pOC5GqJnphNQqLUjzZL0k6VBS0OKly9ya0pSb2sRclI043iBO1ScdCOUnZhfJIKGt9wq5NPuRc6DiLDSxjJKcQSVNaqCm5+WkJspQl260MvW3rJvwUB33ZFDZiC7J0OoCyItmTUNxMOYwOdTLPm1VKk9Nw7T6tLU2XlZ6oN1CaRIOzG+UlndmVBO6jpBSTe5uDfhpDyMAUMV6dp81VqlKsyEow5MNqKnHVOuqUCUFLV1ISALnd1JtcRW8jVpynzTE7KvWdlihTYPfAAcAUnQi3RGXMYpqc68y+06iTMoyWWG5IFpDaCokpABuASST2/FEGPK4a8WqDZ1rccG+Ver06090agy067VC+7V6gzT5lEu2xT0JD60uKWOVIUO9SNzq9soCPriAyVNoMpRpOYm3X2ahO8u+XUFl4tucmlSQBvDvQLakansiIS9UmpZzl5eZebcUmyltuFKlA8RvDXwx8xM7yQCo2SSQOq/G0WDHgthljW0JWxbIx4ky2O+NVrebXlRe6q86uRdC1kgJOl+wx0g2f/vK4MP+hZX6AjmnU3wZJ3vj7VRt8BjpZs+65JYJIHGiyv0BHoLsiheue8Kzy6FL1Ncys7NTMBnLTCruKJmVMw208yyUb1v3RwJvwPC94gLe0fIuoStsU2yhcXfX6Me9r5YRkxUFHom5Q/8AnJjS9E7dKewWGkdhu7ZEraMu6JHGYK+SL629aNlzjIUpEwgiuga+lbo+yKlOk0zylfoweyLk/wDRnlK/RjTHnvbBz0dceg9GLO91eN9Mbc23gNy3O9kXKddM8pX5oPZFyf8Aozylfoxpjz0dcHPR1w9GLO91PTG3Nt4DctzvZFyfXTPKV+jB7IuT66Z5Sv0Y0x56OuDno64ejFne6npjbm28BuW53sipLp9TPhmFejCeyKkuuleUK9GNMueg6Xg52mKTdmzx91R6Y25tvAblub7IuUvb9q/KF+jCHaPkwd39q/KV+jGmPPbg2OsTCTbw5h/ClPr1cpblTmqs86lhozKmWmmWyASd3UqJvFmNYFmwQDgJrksmWvTbsyTSYoAKkkCg8FtAraMkxx9S9P8AxK/RhDtGSQFz6lW6P2Sv0Y11awfR8TUCjTVJnZWlTNTnZtmXamVLU4/Yp5NveAsLXtvG3GGKg4PmK/KzBk6mwmeYbedMsWnDdLQKlXcCdxJsDYE6xjtsuxyCXjCRrWY+2bzMcA2LiBFQQBn4Lab2Rkl1UvylfoweyLkif71+UL9GNYW8v5x6SadRX5AzkzTFVdmRusOrl0pKlEm26mwSrQ8bR6ewDNNUZ+oTFdk0TMtJsT7kkG3FLDbxAa78Ddud5PxxHmuxdap89XozPGHXoC2d9kXJWuPUrq/7wv0YPZFyl7ftX4OcL9GNYa1l1W6JTJqovzKHF03kzPMck4nkQs2HfqG4uxIB3TCql8L4Zw7R6hWaK5VpquMrmgnnSmEMMhZQAN0aqJSTc6aRUbIsh4BhNLqmiefrxscWxo+CgqagaOxbO+yLkugUvyhfowo2ipM9FL8pX6MavyeCXaoZMNVmUkpmrJW9TZB7eLj7YJtdYG6kndIF+JHRBJZezk5Kyzor0g3Nz8m9Oyskvf5VxDe9vAkDdT7RVrnW0HWVYzdOn4qBbd6HGrYhp/tWz/si5K+nqX5Qv0YT2RkkeHqZb/WF+jGtL+AZR6Xws3SMRMvT2I0kcitCgEErKb71rAC1jfW4jFOCZZptybmsWU5qRbmOZiaLbqkrmLXUhIAvZIIuvhrpEMsuxncyqdbN6AacYf07ltCdouSGv7WeUL9GA7RcnfQ0vyhfoxrDXaAmgYSmEVGWQmqSlc5k46kk3b5DeAB6QePwiJNhrBdBn8O0N+eoc0pFTlppycrCX1pRJKaKt0ke0PAaHjFt9l2SyEImA5mirZbN4nxeKEfMCpyG7Wr49kZJC32s1/8AEL9GFG0ZJ/6L8oX6MavyeX87OM0tbFYkuXrKFOyssd4OFlJVvrWbWQlISTc/Bwjy1gKZnnJFVCrshUJWcedYVNJ3mkMrQjfVvhQvuhF1XGhtF1tk2KVbdbV52ivGHw3LaL2Rsle37VjwzC/Rg9kZJ8P2r8oX6Mat07BZrD80qk1+WmpGTZS8/NMy7yijeVuhHJhO+VE6iw4ax9ncvqhJJqbtTqsvLy1PDV3gy6sL5RJWhW6lO8kFI1UoAA6dkPNNjA0ooFt3nIBDz2NWzvsipIi9qX5Qv0YPZFyXQKX5Qv0Y1PqOHHqZQZWuTVSbSqeRysvLpacPKN7xTcOW3AobpO7e9oYeeHhf4oyIN37MjAlg0LFj3pvDLENixSCegblub7IqV/0X49foweyKlP8ARXj1+jGmfPB1mDnnaYvejFne6sf0xtzbeA3Lcz2RUp/orx6/Rg9kVKf6K8ev0Y0z552mDnnaYejFne6p9MrcP+cewbluZ7IqU/0V49fowo2ipT/RflC/RjTLnnaYOeDrMPRizvdT0xtw/wCcewbluadouV/0X5Qr0YY8ZZzyeLMMVTDipmmS5qMs5Lh3llKCN4WvbdF41O56eswhnPDFTbt2ewhwGYVLr3209uF0aoPQFLKPWJ7C08yGZ4tTEisFiZZXwI0unsPUegxt5k9nFI48khTam41L1uXQC42D3r6f3xvs6xxEaLCaTfviTDpRcWzVCm2KgxOLlnpVzlGX0KsptX9I6xwIi5bVkQrTh1GTwMiou3eCPYcxU5w3HMfVdKAoWtCLIUhQv0RVeQecUvm3hx2aDZ55THUys262k8i45u33kE6HtHQdItNy26SOoxyuLDdBiGG/SCu/ysxDm4bYsI5FctsXq3cdYnA6a1O/XKhtvcXOkffGT+7j7FI3v79Tn1qoauXJPto6XKkiCwdC3kOmFS/Dsyl+hT9IlK/L0adcmWJgPzDymkvMoSsFvfCSU2UpKgNL+ECMpdapD+HGKPPLkZl5uVn1mdWypT6HzNqW2UqOoukk2tqFm/ZGaTRXapKzM+/UpWQkpVSG3H5lSgnlFX3UgJSSSQlR4aAEx8l0estycxUm6e+9ISqy25ONtqUxe4F9+1rajXtEY74UKI84nUVFOlTzEU9g2SqVMcpYpU6ZaRnUvKU0ktvOBtPIFSEJCb7xJsd43BBPRDth6RoNQoNTrEnTqc5PTaClmXVK3aLnNEKcCFFKktbjpWQBu3NxfQRXUrg3F87OtU1nDdQ5zMtLeaQpgpK0ITvEi/Rb9Y64+ElIYpMshEhJVXm0+ssoSylzcfWkkFIA0VYhVxrax6osOloYybEqVFBrUqxU9gs4VprWHmmFTFmCpfLJMwk7n2ULAQFarIPfKUNBaIaSgm6Y9v02ck5Wcfnm3JZ+TmWpZ2XeQUrBWhS72Nre0jAMyBwMZssWtYQ11c1cAyUtyrVbObAI/wBPS36zHUBOgEctspnt/OrANz/f6X/WY6kAi0eRvF9qHUsOa9oLAkftlUvzjf1Yiucw7+vZqx15m34PbLixpI/tlUvzjf1Yiuswk3xo3fhzNvTp9suNCsVOlIKeTTqbW+G8PKCR+ELkawzUgHcHaOOtoe0ACwFxbgOkeGClernTvrdX/WDe0Opt09d4TXUm56+PfeCFvqCOI6ddIIi56Va+HohCdBqq19Ov4YNOpVurWFubEk+E9fZBFjukbqgSe3/pDe+R1620/wCsOD+oubjq/g+GG+Y9rwNjxGuvbEomSf6Rra/w3izaV9q5T8w39ERWVQ4k31HA9FuqLOpWtMlPzDf0RFKhZUEEEESGKjlx9mcsCbrOnXrFuHhFRy9i64N7TfVc6aaxKJ7lU96P12+aHNi17btiOjqhsljoBYXtw04dcOUva4sdOF+kmClZQGg//u9AewfN7WAWt1W48NIDawv/AEawUJbHpSPABxhCNOI8J6eyAka9HbppCKNuKderT44lSsGdT3psAPg4RDKoP2xl7n+3o6OPfDWJlOjTs6O2IZVB+2EvYf3Qi/Z3wiFCs/Gf3HVz9GzP1SojmRv3sqR4HPpmJHjH7j65+jpn6pURzI4/2NKR/Fc+mYKVPYIIIhQiCCCCIggggiIIIIIiEMLCHSCLQnblc5POOk9tEH1q4oAPX/Ci9tvBzdzjpA/0In61cUNQ5FVbq0pSGnUNLmngyHHL7qL6km0eBtZhfOOaF9EXPmBAsKE95yAPzXrlSQQFEk6ARP5WsUFVOpT2JqjS36g2GmpQtF1xKG0tq3edtEbneLLQ725UAb3iIu4VmnhKOYbnWq63PPOSzRlG1hSXUAFSVpWAU2SQb8CDx0jEOF8Spcn2XaFOoVTUBc6Nz9xSRcE621AJsOgEiMdjI0sSMNVsJmLKWmxrxFoevWp1JYhoqJd8VOpYcW/zh9VXU3TweesFpIQmUs2AhQUHAd3cNzvajSMtU/hek0ugyeJkUmYYMtR5lcvLSoTMpc5NCphby9y5Sq/ulXva2hvW0vRaxNz3qbK0maemlLDXIoaJUVlClhIHSSlKlAdSeyMmp4RxZS2jNVTD1Rlm0uIZ3nWzbeUO9SOlQPQRodADfSMhszGw/u1rnWbKcYP/ACf1BPmYNZp9UrbL9Ol6WylMuEOGnubzbigo2UfsTQ3rG1gnwkxGS7bp+eM31lYvXUBSUYcqAmi2JhLQbuQ3vBO+bGwG8bHqOnHSPnPYVxFS6GzX6hS3GJF+YclErWQFJdb0UlSb3BvcajojDjQ4kVxeWLfSszLy8NsBkUHVmmyoPHmbouPaH9UdPNnz7yOCbfiSV+rEctai8RKO2H4B/VHUrZ4+8fgkj8SSv1Yjf3bABiLnHCc7FDgdZ+Sh22KpKMkqktagAJqU4/nkxoqa9IIATyySbdYjqPifC9ExdSXaLX5FublHrb7biQQbG40MQVWzbk+ofchJeIR5o6ZZFuebIRh4a1XzjeG6ptyO2MH4aCmhc8fXBJj8NP8AOHng9cEn7tP84eeOhvsbMnvyPkfEI80HsbMnvyPkfEI80bb0u/gXn+To7Udi55euCT92n+cPPB64JP3af5w88dDfY2ZPfkfI+IR5oPY2ZPfkfI+IR5oel38CcnR2o7Fzy9cEn7tP84eeD1wSfu0/zh546G+xsye/I+R8QjzQexsye/I+R8QjzQ9Lv4E5OjtR2Lnl64JM6b6f5w88Hq5J/vif5w88dDfY2ZPfkfI+IR5oPY2ZPfkfI+IR5on0u/gTk6O18Fzx9X5KxAeTr/CHniV0vM2gJw+zh3ElDTVpWTeW9KLbnVS7jJX7ZO8kEFJIvY8I3jOzdlB0YNkPEI80A2bsoRqcHSB8LDfmizFvQyMAHw9HSr0vcOJLOJZGGYpoWjsvm5KSb9FVLUtllihz704yyl4q3gtSTuG+um7x6YeKHnxKUeTZlhSd9cuzNMJUifU20sPb11uNjRahvWBJ4dEblexvygP+Bsh4hHmg9jdlD+Rsj4hHmjGdbsu8etC8VmQbozcF1WzHgtH5bNtqXqMjPiQZKpKhLohSHfbBTa0b97afuh07InWJ8xcH1DB7cv64ZMsS9OlkyYlqg5zhybbQkAOSxG6EBQVfW3SNTG03sbsoejB0iP8AYI80Hsbsor3OD5A+FhHmiy+15dxBEOlFeg3VmYTXN44EHoWkmKc3ZLE8u8uYl5tmcmilT6vVVxUuVJ4lLJFhew0vYdEfKSzPoD1FkaJibDaKuillYknUzypdSGlm5bXug76d656DrG742b8ogdMGyPwMIH9EHsb8ovyMkPEI80ZDbwQWtDWw8ga6VjuudMxIhiujipFPZ5lpXI5yUWSFNm14ZZcqdGbW1IzAm1JQ2hRUU77djv7pWba66XjDp+bbEnUaNUhINuOUqQdkCkvWDu/yl1dn7qfiEbwexuyhI+46SFv8wjzQexuyhH+B0j4hHmiltuS7f8rxVRuhMuFDHHdWktLzep8k3ht16jIcncNuKLTwmd1DrZWpe4pNtDc+2jHpeZ1FZpblHrtB9UpPnxqLCEThYU24RZSSQDvJIA0t0RvENnDKL8jZE/7BHmhfY35QXv6zJHxKPNE+foFKCF4qkXOma18o8FoziHNgYlp85KTsuyh2cqhqanEOaJ+xhsNgdQSB8UYdVzJaqVCpFB3iyzS23Ed68bPFayq5Re2l+qN8vY3ZQ3+46S8SjzQextyh4nB0iT18gg/0RcZeSDDAaIWhWn3IjxHFxmMyKHJaPSGbyKfU6BUGpSXvQ5NUluFwbsw2pThUD1XDhF+y8ZkpnLRaM5IS9Bw8iXp8q+8+/LvTZeVMqdb5NSSvTdSEEgAdd43VOzflEeODpLxCPNB7HDKEajCElfhqwjzRbNvwHaYXirrbnTLNEwK/lWk1Mzaw5RFz0tS8PTMtIVFhDTzTdVWHt9CypKw6ALW4WtYgnwwtGzco1Gq79ZRTZ519SklkOVdZG6E25N0kHlE31sR2Ruwdm/KJXHCEh8DCPNCDZwyhH+CUj4ORR5ojz7Az/ZntVbbpTQp+3GX8K0d7qNOawpOYdlqYppU+EB5xydK2UqSveK22iLIUbAXvwiKmvyRJUHkm/wDCEdDfY35P2t60JDxCPNANm7J/pwfJeIR5ovwbyw5cEQ4fisOYuJFm3AxY9adC55+r8j7tPxiD1wSXu0fzhHQz2N+T/wCRsl4hHmg9jfk/+Rsl4hHmi/6X/wACx+To7bwXPL1wSXukfzh54PXBI+7T8Yjob7G/J/8AI2S8QjzQexvyf/I2S8QjzRPpf/AnJ0dt4Lnl6vyP74n4xC+r8j7tPxiOhnsb8n/yNkvEI80Hsb8n/wAjZLxCPND0v/gTk6O28Fzy9X5H98T8YhU12SVpvp8NxHQz2N2T54YNkfEI80QzNvIbK+i5aYlq9OwtJsTUnTn3W1hlA3FJTcHQRUy9he4NwaVbi8HwhMLzF0AnRqWlhqDYbDijup46m0P2VuWWJs8sS+pdGDktQZVy0/PjQEdLaD0qtx6ob8ocp8S55YgRSKZysrQpRQFRqATp2ttngVH5h22jo7l5l3hvLjDcrhzDci2xLS6Ai4TqojpJ6SesxNtW7xbeJg6TpKtXXulx7xNzYo0ZgHn/AKL3l7l7h7LjDkrhzDkomXlZZATZI1Uekk9JPXEmWDuHwWj6JG6LR5cvuHsjwznFxqV1mG1rAGtFAuTmN3QMwMVG/CtTg/8ANVDPzgdKozMduWzCxYB+PJ0f+cqGXlCLx0aWeeJb1LbQx6qlNIxBT2KTNUSs052alnphuabWy+G1tOoSpIOoIIIUQQRfQdUZkzjOQfoJpiKXNofbkJmlsbk39hSw8tat5be737gDihe9id0kd6IhYeNxqLQ60eSlajTa9OTC171LkW5loA96VGZabO92WcPw2izHhwyKv0IWtGZUqTmMpyrKqE1KTK2nKi7OLQJo76W3GeSKEkiwNje/DQCxjApmMRIiSk3ZWYckZaRmaetCZrcd3HXFr30KCbJV3/HgbHrj4SuBJyckGXmKvIifdlWZ5Ugd/lG5Z1xLaHCrd3SbqSd0G9jfsj4Y1wo9gyblJKbqTUw/MsqdU2hlbSmbKKbKSsA62JB6RrFpkOUrhBzKoAYTksqvYqaq0u9KMSLjbW9KJZW69vrCGGltjfNtVHlCSRpoB0QwF0bw1EYPLHr0g5YnQAxmwWNgtwtGlXRloU2ygXvZ2YCt+Ppb9ZjqmOEco8mnd7PHL9N/7/y36zHV0e1jydvmsz8FhTPtLHYYDczMvdLq0m/XZIEVljpQdxuqx1blmkHsOp/pi1ABrrxinZ2ZVVcVVGdsCkvltHTdKO9B+IX+GNEsZSalIAQnvejUf0w7ov0/Hbj2Q309AbQnX4T+qHFOvAC/SOqCL18Q+DRMJa54fB1wAjTt8HfQWF7306Tpp2QRLYgXv8NvmhCOtNrdHV2wadQ8GlvDAQLWv4OFzBF8HxodL/B7aG+ZvY6/9IcHranQW4/wYb5n4D1cNYImSoJsSLEHqt88WbSvtZKfmG/oiKynzcnS/wDC6uyLOpWlMlPzDf0RAqFlQQQRCJDFRsC0wu1r7yrAHjr0xbhipGCS84Nbbyrjr16IkInmWIsCDp13h0YOvRfpHZDXKlWgvr162tDoxew6uga6HtgpX3BFgAdOjthQbgm/hN4UagkeE8dfBCi4sBx/B4/PBF5N72vr0DotAo6aE26CeMejr0m3Tx4wh3jxOttePCHOiwZ72pBPRr2eCITVD+2Etr/dCLdvfCJtOG6eOltOOnhiFVS/qhL9r7ZPb3wgis/GX3HVz9GzP1SojmR33sqOf4Ln01RI8Y/cfXP0bM/VKiOZHfezpH8Vz6xUOZFPYIIIhQiCCCCIggggiIIIIIiPJPG8eoQjjBFz429nCnOSka/3jT9auKBoFYTQq3IVhcuZhMk8l4tBe6XAOIBsbG3TaNz9rnZtxvmri6QxjhGaliZWn8zUw6CLkLKgQR4bRqtWtnbPCgrUHsGzEylPFUu4lYPgBsY8jaMhHdMGKxuS7Hdm3bPh2XDk48QA0IIPSsaTx7Sqcz6lUnDi2aI8iZTOS7k4VzD5eQEFXKhICSlKRu2TYa3vcx5qONaRVKc5R5zDzxk2OSNMDc8UrYUhnkvsqt37Lf23AWIsNCRDI5l1mgx3jmAaykg2tzQm3xXEZ1NyfzoqxCJHL+p3PAvJSyLfyiIxXMnXmgaVs3RrDYA50Rtaaap4RmTKMziZ6Sw6pqZcWHpl3nZUFrEm7LWSN3vE2dKhxOh1htlcynqNMSs2xLtlcpI02SbStwqQOaOhYURb8K3DoueMWVg/YezexSptzEM5J0dhXtwm7rgHw2T+uNhcBbBWVuHQ1N4lS9XZpuxvOK3kA9YQO9EZ8Gz5yKQXGi89O3gsKUaWQWYz0LTitZjz+Nlz8lQKBUZjnkmZRCEL5wWiX0PK3eSbSLEoA116SdIkE9hHNzMCVe5tlRVmph2pP1CXfW6hCUoeCd9CkqIKjdIsrTpFjHR2g5Y4Lw3LIlqRQJJhDYsEpaAHzRI2JCXl0gNMNIA4bqRGzZZYLaRXVXmn3sdDiB8rCDaLl0xsyZ7VNlbXrS5PeFvskykbp+eOjWTNAqeFcrMLYbrKEonqbS5eWmEoO8kLSgA2PSImIZQDvBIBj3ugCwjKlZGFJ14vnWqta35y2g0TRrh0IsDBYQsEZi0iSw6oLDqhYIIksOqCw6oWCCJLDqgsOqFggiSw6oLDqhYIIksOqAgGFggiQJAgsOqFggiSw6oALQsEESWHVBYQsEESWHUILDqhYIIk3R1QWHVCwQRJYdUFhCwQREJYdULBBEloN2FggiTdHVCwQQRJYdUFh1QsEESWHVBYdULBBElh1QWHVCwQRJbqhkxnhiWxhheqYYm3FoYqcsuWdUg2UEqFjaHyCJBpoUEA5FRTLzLrDWWuHpbDWGZBuXlJZISAlIBUelRPSTEqCQOEAFoWBcXaVAaG5BEeHfaHwGPcfN2+6dL3EQqxpXIbH71sx8WpB19XJ0f+cqGTliDxETnN/KzMqg4+xLUpnB1QXJzdVmplp9hAeSpC3VKSe9uRoeqK0mXpmUWUTcq8wsGxDiCm3wHUR7yUmYZgtAcFsmPFE5crfifnhxoWJ6rhl596lLY/ZLQZeQ/LtvtuIC0rspKwRbeSk8OIiKmqtDiv5xGTI+qtWdEvR6TOzryjZKJdhTij8ABi9EjQyPWcEc5p0qaSOZOJJEybS5ptyWlHUKDQaQ2VNpcDgaLiQFcmF98E3sLAAWj545x3I4rm5eZRTubrZSoKedcQt965vZRQhCSkdGl7E3iRYK2XM78euoJoSaRKrIHKzi++3esISb/GRGyeX/8AU+sI09LczjqqTNYe0Km1K3Gr9W4n+kmNVHtGVgOxQxUhW+OazQtH/VRLjgal2luLPBKElRPgA4w8yGF8eVYBdMwZWH0kaESagPjNo6j4WyGywwewhmiYWkpcJAHetJF/iETBjDdDlhZmlyyAepsRhRLfiu9hoCsumTzLmlkhlXmm3nFgitTuB6lLyUjWmJiYfcSgJbbF7qPfXjp6CN2Pk3JSrAAal2024WTwj6xqZqbfOPD3q09+M1KaMWVgUOhTM6D9lKOTZF7XcVoPi4/AYrTDUmUNpJJN+J6bxm41rZxFXEyEosKkpBRSSPw3ekgjoHAfDDlSJNTbSRbW2h1taMYK2nWVb3RrbUcIyrDTvr2OkeGkAJCbG3w8Y+ut7k69PHXwQRJe19bdevCC5NtdejXSF10/4eOnhg6Dxt0jXUwRIDpqo2v1wHtPh1hbqvx77r1taE6OJt0cdDBSvg6T+CePDtjAmDcHvjpx64cHr62F78eOvghumL2049HH54ImSodlrnoizqV9q5P8w39ERWNROhOu6De2t7xZtK1pcp+Yb+iIKFlwQQRCJIqOXSeXcve+8bHq1i3YqJjR9zveKzoOnXjEhE9yvQLEdkObFzw+PrhrlrWBvp7q3zQ5MEHw9I6BBFlAadQHDT2sL8H/AFhBa2moPZxhdLjWwHHThBEvaND124R5ULiwSePD+mFFuFhr0aawEAi9zbrt80FKwJ4WSSRfT+dEKqg/bCWNv7e38HfCJtOjvSDp8HCIbUmyagwf8+3bt74QKKzMZfcfXP0bM/VKiOZHD+xnSB/Bc+mYk2K2HpnC1XlZdtTjr0hMIQhCbqUotkAADibxG8omZmjYCptOqUjOSr7QXvtOyy0qTdZI0t1QRTuCMfnzHuX/ABDnmg58x7l/xC/NEKFkQRj8+Y9y/wCIX5oOfMe5f8QvzQRZEEY/PmPcv+IX5oOfMe5f8QvzQRZEEY/PmPcv+IX5oOfMe5f8QvzQRZEIY+HPmPcv+IX5oOfMe5f8QvzQRfVSdI+Tksy7+6NIV4Uwhnpc/gv+IX5oOey/uX/EL80KKV8PUelk3VTmCestgx7FPkmgOTlGk20FkCPpz2X9y/4hfmhOeS/U/wCTr80TRRQle2k7pIAsAI+oF+MfATsuPwXvEL80AnmNe9f8QvzQTNfcaG0eoxufS/uXvEL80Lz5j3L/AIhfmiEX3seuFjH58x7l/wAQvzQc+Y9y/wCIX5oIsiCMfnzHuX/EL80HPmPcv+IX5oIsiCMfnzHuX/EL80HPmPcv+IX5oIsiCMfnzHuX/EL80HPmPcv+IX5oIsiCMfnzHuX/ABC/NBz5j3L/AIhfmgiyIIx+fMe5f8QvzQc+Y9y/4hfmgiyIIx+fMe5f8QvzQc+Y9y/4hfmgiyIIx+fMe5f8QvzQc+Y9y/4hfmgiyIIx+fMe5f8AEL80HPmPcv8AiF+aCLIgjH58x7l/xC/NBz5j3L/iF+aCLIgjH58x7l/xC/NBz5j3L/iF+aCLIgjH58x7l/xC/NBz5j3L/iF+aCLIgjH58x7l/wAQvzQc+Y9y/wCIX5oIsiCMfnzHuX/EL80HPmPcv+IX5oIsiCMfnzHuX/EL80HPmPcv+IX5oIsiCMfnzHuX/EL80HPmPcv+IX5oIsiCMfnzHuX/ABC/NBz5j3L/AIhfmgiyIIx+fMe5f8QvzQc+Y9y/4hfmgiyIIx+fMe5f8QvzQc+Y9y/4hfmgiyIIx+fMe5f8QvzQc+Y9y/4hfmgiyIIx+fMe5f8AEL80HPmPcv8AiF+aCLIjysA2v0ax8efMe5f8QvzQc+l/cv8AiF+aCL4zVHps8kom5Fl5J1IWgGI5U8pcA1Ynn2HJVy/HeQD+uJTz5j3L/iF+aE58zp3r/iF+aAqNCmp5lXbWzrlQ2/zg4Uk734ckm36oktJy2wXQ7Cm0CVa3TpZAiQc+Y9y/4hfmhOfS/uXvEL80TUqale2pZplAQy2lsDoSmwj6gWjH56yo2CXvhYX5o+qXAoXAV8It+uI0qler3Meo8i/gjw/My8o0t+ZfQ002N5a1qASkdZJgi96jWINjzGBYSugUZZVNOgpfdQf3JPSkH3R+b4ow8S5hOT29TsMFQSq6HJwix8CB/wCr4uuGSj0XdJW7cq4qJ1IPhiVK+lApIZSkhBFtBpfdES2WYASAUG3VaPhJyaUgd74NOMOCEjd14Dpt80M0XoDTj8Nvmgt2HwW4QboHQPB1dsGgF737be2giW3YT1/woNb9Xb1dkJYDUHw6e1g14Wv2dfbBEthb2p/i2+eEPAm5v1249kFhxv8ADb5oLDUbvhHV2wUL4PX6uHD+DDe/YA6G3g4xnvW1A+D+FDfMWCert6oImSf0Kje2lr26OqLOpX2rk/zDf0RFZT4TYjduOrr7Ys6lC1MlB/mG/oiBRZUEEEQiQ8IrFrDleS6pRpj1iom9gemLPhIIoPLUeroF1SDgPVGc1TagnjKLFuu2sSuCJqijYkZ8e2llC/g0j0ZGd48gv5vniRQQqijnMJ43HN12v1CAyM6debKvw4CJHBEIopMU2fWLCTWeq1tfDDFN4aqzs204mnu7odSpRsNACIsiCFUSWBtCAdkeoIIkgsOqFggiSw6oLDqhYIIksOqCw6oWCCJLDqgsOqFggiSw6oLDqhYIIksOqCw6oWCCJLDqgsOqFggiSw6oN0QsEESWHVBYdULBBElh1QWHVCwQRJYdUFh1QsEESWHVBYdULBBElh1QWHVCwQRJYdUFh1QsEESWHVBYdULBBElh1QWHVCwQRJYdUFh1QsEESWHVBYdULBBElh1QWHVCwQRJYdUFh1QsEESWHVBYdULBBElh1QWHVCwQRJYdUFh1QsEESWHVBYdULBBElh1QWHVCwQRJYdUFh1QsEESWHVBYdULBBElh1QWHVCwQRJYdUFh1QsEESWHVBYdULBBElh1QWHVCwQRJYdUFh1QsEESWHVBYdULBBEnCMScqCJZJIlZt9Q/BaYKifhNh88ZkEEUPqeJsWKBRRsHTKTfRyZI+ik/0xFZ+hY6xA8Ha23NLQDcNgBKE+BI/Xxi2oIVRVpI4QqLHGnqB8Ah6l6JOtpCTKKFuHD54mMEEUaTTp1P9zL+bSPXMZ4C4llfNEjgiaoo7zGe4c3Xb4IDIz3HmyrnjwiRQQqijvMZ3/Jl6cIOYznDm67HjoIkUEQijvMZ0C/Nlk9VtIOYzo0Esuw1GkSKCJqii7lPqBuOarN+NraeCMN6k1QpO7JuEjgLDWJnbphYhFWs3h+tuXCaa8r4BFg05C2qfLNuJKVoZQlQPQQkaRkwQREEEEEX/2Q==;fontStyle=1" vertex="1" parent="1">
          <mxGeometry x="78.95000000000002" y="720" width="741.05" height="530" as="geometry" />
        </mxCell>
        <mxCell id="HzsrkBzken3djIKcfrYe-2" value="" style="rounded=0;whiteSpace=wrap;html=1;fontStyle=1" vertex="1" parent="1">
          <mxGeometry x="70" y="20" width="770" height="60" as="geometry" />
        </mxCell>
        <mxCell id="HzsrkBzken3djIKcfrYe-3" value="PHASE 1&lt;br&gt;Formation" style="text;html=1;strokeColor=none;fillColor=none;align=center;verticalAlign=middle;whiteSpace=wrap;rounded=0;fontStyle=1" vertex="1" parent="1">
          <mxGeometry x="70" y="20" width="90" height="60" as="geometry" />
        </mxCell>
        <mxCell id="HzsrkBzken3djIKcfrYe-4" value="PHASE 2&lt;br&gt;Requirement/Planning" style="text;html=1;strokeColor=none;fillColor=none;align=center;verticalAlign=middle;whiteSpace=wrap;rounded=0;fontStyle=1" vertex="1" parent="1">
          <mxGeometry x="180" y="20" width="100" height="60" as="geometry" />
        </mxCell>
        <mxCell id="HzsrkBzken3djIKcfrYe-5" value="PHASE 3&lt;br&gt;Design" style="text;html=1;strokeColor=none;fillColor=none;align=center;verticalAlign=middle;whiteSpace=wrap;rounded=0;fontStyle=1" vertex="1" parent="1">
          <mxGeometry x="285" y="20" width="100" height="60" as="geometry" />
        </mxCell>
        <mxCell id="HzsrkBzken3djIKcfrYe-7" value="PHASE 4&lt;br&gt;Construct" style="text;html=1;strokeColor=none;fillColor=none;align=center;verticalAlign=middle;whiteSpace=wrap;rounded=0;fontStyle=1" vertex="1" parent="1">
          <mxGeometry x="391" y="20" width="100" height="60" as="geometry" />
        </mxCell>
        <mxCell id="HzsrkBzken3djIKcfrYe-8" value="PHASE 5&lt;br&gt;Test" style="text;html=1;strokeColor=none;fillColor=none;align=center;verticalAlign=middle;whiteSpace=wrap;rounded=0;fontStyle=1" vertex="1" parent="1">
          <mxGeometry x="500" y="20" width="100" height="60" as="geometry" />
        </mxCell>
        <mxCell id="HzsrkBzken3djIKcfrYe-9" value="PHASE 6&lt;br&gt;Product release" style="text;html=1;strokeColor=none;fillColor=none;align=center;verticalAlign=middle;whiteSpace=wrap;rounded=0;fontStyle=1" vertex="1" parent="1">
          <mxGeometry x="610" y="20" width="100" height="60" as="geometry" />
        </mxCell>
        <mxCell id="HzsrkBzken3djIKcfrYe-10" value="PHASE 7&lt;br&gt;Post Implementation&amp;nbsp;" style="text;html=1;strokeColor=none;fillColor=none;align=center;verticalAlign=middle;whiteSpace=wrap;rounded=0;fontStyle=1" vertex="1" parent="1">
          <mxGeometry x="720" y="20" width="120" height="60" as="geometry" />
        </mxCell>
        <mxCell id="HzsrkBzken3djIKcfrYe-14" value="" style="edgeStyle=orthogonalEdgeStyle;rounded=0;orthogonalLoop=1;jettySize=auto;html=1;fontStyle=1" edge="1" parent="1" source="HzsrkBzken3djIKcfrYe-12" target="HzsrkBzken3djIKcfrYe-13">
          <mxGeometry relative="1" as="geometry" />
        </mxCell>
        <mxCell id="HzsrkBzken3djIKcfrYe-27" value="" style="edgeStyle=orthogonalEdgeStyle;rounded=0;orthogonalLoop=1;jettySize=auto;html=1;endArrow=classic;endFill=1;fontStyle=1" edge="1" parent="1" source="HzsrkBzken3djIKcfrYe-12" target="HzsrkBzken3djIKcfrYe-26">
          <mxGeometry relative="1" as="geometry" />
        </mxCell>
        <mxCell id="HzsrkBzken3djIKcfrYe-12" value="Project Initiation&amp;nbsp;" style="rounded=0;whiteSpace=wrap;html=1;fontStyle=1" vertex="1" parent="1">
          <mxGeometry x="70" y="120" width="90" height="60" as="geometry" />
        </mxCell>
        <mxCell id="HzsrkBzken3djIKcfrYe-16" value="" style="edgeStyle=orthogonalEdgeStyle;rounded=0;orthogonalLoop=1;jettySize=auto;html=1;fontStyle=1" edge="1" parent="1" source="HzsrkBzken3djIKcfrYe-13" target="HzsrkBzken3djIKcfrYe-15">
          <mxGeometry relative="1" as="geometry" />
        </mxCell>
        <mxCell id="HzsrkBzken3djIKcfrYe-58" value="" style="edgeStyle=orthogonalEdgeStyle;rounded=0;orthogonalLoop=1;jettySize=auto;html=1;entryX=0.5;entryY=0;entryDx=0;entryDy=0;startArrow=none;startFill=0;endArrow=classic;endFill=1;fontStyle=1" edge="1" parent="1" source="HzsrkBzken3djIKcfrYe-13" target="HzsrkBzken3djIKcfrYe-54">
          <mxGeometry relative="1" as="geometry" />
        </mxCell>
        <mxCell id="HzsrkBzken3djIKcfrYe-13" value="Requirements Definition" style="rounded=0;whiteSpace=wrap;html=1;fontStyle=1" vertex="1" parent="1">
          <mxGeometry x="180" y="120" width="90" height="60" as="geometry" />
        </mxCell>
        <mxCell id="HzsrkBzken3djIKcfrYe-18" value="" style="edgeStyle=orthogonalEdgeStyle;rounded=0;orthogonalLoop=1;jettySize=auto;html=1;fontStyle=1" edge="1" parent="1" source="HzsrkBzken3djIKcfrYe-15" target="HzsrkBzken3djIKcfrYe-17">
          <mxGeometry relative="1" as="geometry" />
        </mxCell>
        <mxCell id="HzsrkBzken3djIKcfrYe-48" value="" style="edgeStyle=orthogonalEdgeStyle;rounded=0;orthogonalLoop=1;jettySize=auto;html=1;fontStyle=1" edge="1" parent="1" source="HzsrkBzken3djIKcfrYe-15" target="HzsrkBzken3djIKcfrYe-47">
          <mxGeometry relative="1" as="geometry" />
        </mxCell>
        <mxCell id="HzsrkBzken3djIKcfrYe-15" value="Design" style="rounded=0;whiteSpace=wrap;html=1;fontStyle=1" vertex="1" parent="1">
          <mxGeometry x="290" y="120" width="90" height="60" as="geometry" />
        </mxCell>
        <mxCell id="HzsrkBzken3djIKcfrYe-20" value="" style="edgeStyle=orthogonalEdgeStyle;rounded=0;orthogonalLoop=1;jettySize=auto;html=1;fontStyle=1" edge="1" parent="1" source="HzsrkBzken3djIKcfrYe-17" target="HzsrkBzken3djIKcfrYe-19">
          <mxGeometry relative="1" as="geometry" />
        </mxCell>
        <mxCell id="HzsrkBzken3djIKcfrYe-44" value="" style="edgeStyle=orthogonalEdgeStyle;rounded=0;orthogonalLoop=1;jettySize=auto;html=1;fontStyle=1" edge="1" parent="1" source="HzsrkBzken3djIKcfrYe-17" target="HzsrkBzken3djIKcfrYe-43">
          <mxGeometry relative="1" as="geometry" />
        </mxCell>
        <mxCell id="HzsrkBzken3djIKcfrYe-17" value="Construct" style="rounded=0;whiteSpace=wrap;html=1;fontStyle=1" vertex="1" parent="1">
          <mxGeometry x="400" y="120" width="90" height="60" as="geometry" />
        </mxCell>
        <mxCell id="HzsrkBzken3djIKcfrYe-22" value="" style="edgeStyle=orthogonalEdgeStyle;rounded=0;orthogonalLoop=1;jettySize=auto;html=1;fontStyle=1" edge="1" parent="1" source="HzsrkBzken3djIKcfrYe-19" target="HzsrkBzken3djIKcfrYe-21">
          <mxGeometry relative="1" as="geometry" />
        </mxCell>
        <mxCell id="HzsrkBzken3djIKcfrYe-42" value="" style="edgeStyle=orthogonalEdgeStyle;rounded=0;orthogonalLoop=1;jettySize=auto;html=1;entryX=0.5;entryY=0;entryDx=0;entryDy=0;fontStyle=1" edge="1" parent="1" source="HzsrkBzken3djIKcfrYe-19" target="HzsrkBzken3djIKcfrYe-37">
          <mxGeometry relative="1" as="geometry" />
        </mxCell>
        <mxCell id="HzsrkBzken3djIKcfrYe-19" value="Test" style="rounded=0;whiteSpace=wrap;html=1;fontStyle=1" vertex="1" parent="1">
          <mxGeometry x="510" y="120" width="100" height="60" as="geometry" />
        </mxCell>
        <mxCell id="HzsrkBzken3djIKcfrYe-24" value="" style="edgeStyle=orthogonalEdgeStyle;rounded=0;orthogonalLoop=1;jettySize=auto;html=1;fontStyle=1" edge="1" parent="1" source="HzsrkBzken3djIKcfrYe-21" target="HzsrkBzken3djIKcfrYe-23">
          <mxGeometry relative="1" as="geometry" />
        </mxCell>
        <mxCell id="HzsrkBzken3djIKcfrYe-31" value="" style="edgeStyle=orthogonalEdgeStyle;rounded=0;orthogonalLoop=1;jettySize=auto;html=1;fontStyle=1" edge="1" parent="1" source="HzsrkBzken3djIKcfrYe-21" target="HzsrkBzken3djIKcfrYe-30">
          <mxGeometry relative="1" as="geometry" />
        </mxCell>
        <mxCell id="HzsrkBzken3djIKcfrYe-21" value="Product Release" style="rounded=0;whiteSpace=wrap;html=1;fontStyle=1" vertex="1" parent="1">
          <mxGeometry x="630" y="120" width="90" height="60" as="geometry" />
        </mxCell>
        <mxCell id="HzsrkBzken3djIKcfrYe-29" value="" style="edgeStyle=orthogonalEdgeStyle;rounded=0;orthogonalLoop=1;jettySize=auto;html=1;fontStyle=1" edge="1" parent="1" source="HzsrkBzken3djIKcfrYe-23" target="HzsrkBzken3djIKcfrYe-28">
          <mxGeometry relative="1" as="geometry" />
        </mxCell>
        <mxCell id="HzsrkBzken3djIKcfrYe-23" value="Enhancement Maintenance&amp;nbsp;" style="rounded=0;whiteSpace=wrap;html=1;fontStyle=1" vertex="1" parent="1">
          <mxGeometry x="735" y="120" width="90" height="60" as="geometry" />
        </mxCell>
        <mxCell id="HzsrkBzken3djIKcfrYe-26" value="Buying Plot/Area for project" style="rounded=0;whiteSpace=wrap;html=1;fontStyle=1" vertex="1" parent="1">
          <mxGeometry x="70" y="210" width="90" height="150" as="geometry" />
        </mxCell>
        <mxCell id="HzsrkBzken3djIKcfrYe-93" value="" style="edgeStyle=orthogonalEdgeStyle;rounded=0;orthogonalLoop=1;jettySize=auto;html=1;fontSize=14;startArrow=none;startFill=0;endArrow=classic;endFill=1;strokeWidth=2;" edge="1" parent="1" source="HzsrkBzken3djIKcfrYe-28" target="HzsrkBzken3djIKcfrYe-92">
          <mxGeometry relative="1" as="geometry" />
        </mxCell>
        <mxCell id="HzsrkBzken3djIKcfrYe-28" value="Furniture, accessories etc" style="rounded=0;whiteSpace=wrap;html=1;fontStyle=1" vertex="1" parent="1">
          <mxGeometry x="730" y="210" width="100" height="60" as="geometry" />
        </mxCell>
        <mxCell id="HzsrkBzken3djIKcfrYe-35" value="" style="edgeStyle=orthogonalEdgeStyle;rounded=0;orthogonalLoop=1;jettySize=auto;html=1;endArrow=none;endFill=0;fontStyle=1" edge="1" parent="1" source="HzsrkBzken3djIKcfrYe-30" target="HzsrkBzken3djIKcfrYe-34">
          <mxGeometry relative="1" as="geometry" />
        </mxCell>
        <mxCell id="HzsrkBzken3djIKcfrYe-30" value="Operational Acceptance&lt;br&gt;Can start living in the house&amp;nbsp;" style="rounded=0;whiteSpace=wrap;html=1;fontStyle=1" vertex="1" parent="1">
          <mxGeometry x="630" y="210" width="90" height="60" as="geometry" />
        </mxCell>
        <mxCell id="HzsrkBzken3djIKcfrYe-34" value="Acceptance Document by owner for builder" style="rounded=0;whiteSpace=wrap;html=1;fontStyle=1" vertex="1" parent="1">
          <mxGeometry x="630" y="290" width="90" height="60" as="geometry" />
        </mxCell>
        <mxCell id="HzsrkBzken3djIKcfrYe-36" value="" style="edgeStyle=orthogonalEdgeStyle;rounded=0;orthogonalLoop=1;jettySize=auto;html=1;endArrow=none;endFill=0;fontStyle=1" edge="1" parent="1" source="HzsrkBzken3djIKcfrYe-37" target="HzsrkBzken3djIKcfrYe-38">
          <mxGeometry relative="1" as="geometry" />
        </mxCell>
        <mxCell id="HzsrkBzken3djIKcfrYe-37" value="System Test&lt;br&gt;Tesing material and connection" style="rounded=0;whiteSpace=wrap;html=1;fontStyle=1" vertex="1" parent="1">
          <mxGeometry x="510" y="210" width="100" height="60" as="geometry" />
        </mxCell>
        <mxCell id="HzsrkBzken3djIKcfrYe-38" value="Test Summary by supervisor" style="rounded=0;whiteSpace=wrap;html=1;fontStyle=1" vertex="1" parent="1">
          <mxGeometry x="510" y="290" width="100" height="60" as="geometry" />
        </mxCell>
        <mxCell id="HzsrkBzken3djIKcfrYe-46" value="" style="edgeStyle=orthogonalEdgeStyle;rounded=0;orthogonalLoop=1;jettySize=auto;html=1;endArrow=none;endFill=0;fontStyle=1" edge="1" parent="1" source="HzsrkBzken3djIKcfrYe-43" target="HzsrkBzken3djIKcfrYe-45">
          <mxGeometry relative="1" as="geometry" />
        </mxCell>
        <mxCell id="HzsrkBzken3djIKcfrYe-43" value="3D model/ Prototype&amp;nbsp;" style="rounded=0;whiteSpace=wrap;html=1;fontStyle=1" vertex="1" parent="1">
          <mxGeometry x="400" y="210" width="90" height="60" as="geometry" />
        </mxCell>
        <mxCell id="HzsrkBzken3djIKcfrYe-45" value="Model Review by owner/ supervisor&amp;nbsp;" style="rounded=0;whiteSpace=wrap;html=1;fontStyle=1" vertex="1" parent="1">
          <mxGeometry x="400" y="290" width="90" height="60" as="geometry" />
        </mxCell>
        <mxCell id="HzsrkBzken3djIKcfrYe-50" value="" style="edgeStyle=orthogonalEdgeStyle;rounded=0;orthogonalLoop=1;jettySize=auto;html=1;endArrow=none;endFill=0;fontStyle=1" edge="1" parent="1" source="HzsrkBzken3djIKcfrYe-47" target="HzsrkBzken3djIKcfrYe-49">
          <mxGeometry relative="1" as="geometry" />
        </mxCell>
        <mxCell id="HzsrkBzken3djIKcfrYe-47" value="Architecture&lt;br&gt;Interior Design&amp;nbsp;" style="rounded=0;whiteSpace=wrap;html=1;fontStyle=1" vertex="1" parent="1">
          <mxGeometry x="290" y="210" width="90" height="60" as="geometry" />
        </mxCell>
        <mxCell id="HzsrkBzken3djIKcfrYe-52" value="" style="edgeStyle=orthogonalEdgeStyle;rounded=0;orthogonalLoop=1;jettySize=auto;html=1;endArrow=none;endFill=0;fontStyle=1" edge="1" parent="1" source="HzsrkBzken3djIKcfrYe-49" target="HzsrkBzken3djIKcfrYe-51">
          <mxGeometry relative="1" as="geometry" />
        </mxCell>
        <mxCell id="HzsrkBzken3djIKcfrYe-49" value="Design review by owner/ supervisor&amp;nbsp;" style="rounded=0;whiteSpace=wrap;html=1;fontStyle=1" vertex="1" parent="1">
          <mxGeometry x="290" y="290" width="90" height="60" as="geometry" />
        </mxCell>
        <mxCell id="HzsrkBzken3djIKcfrYe-51" value="Detailed Project Development&lt;br&gt;Floor plan" style="rounded=0;whiteSpace=wrap;html=1;fontStyle=1" vertex="1" parent="1">
          <mxGeometry x="290" y="370" width="90" height="60" as="geometry" />
        </mxCell>
        <mxCell id="HzsrkBzken3djIKcfrYe-53" value="" style="edgeStyle=orthogonalEdgeStyle;rounded=0;orthogonalLoop=1;jettySize=auto;html=1;endArrow=none;endFill=0;fontStyle=1" edge="1" parent="1" source="HzsrkBzken3djIKcfrYe-54" target="HzsrkBzken3djIKcfrYe-56">
          <mxGeometry relative="1" as="geometry" />
        </mxCell>
        <mxCell id="HzsrkBzken3djIKcfrYe-54" value="Project Management Plan (Charter)" style="rounded=0;whiteSpace=wrap;html=1;fontStyle=1" vertex="1" parent="1">
          <mxGeometry x="180" y="210" width="90" height="60" as="geometry" />
        </mxCell>
        <mxCell id="HzsrkBzken3djIKcfrYe-55" value="" style="edgeStyle=orthogonalEdgeStyle;rounded=0;orthogonalLoop=1;jettySize=auto;html=1;endArrow=none;endFill=0;fontStyle=1" edge="1" parent="1" source="HzsrkBzken3djIKcfrYe-56" target="HzsrkBzken3djIKcfrYe-57">
          <mxGeometry relative="1" as="geometry" />
        </mxCell>
        <mxCell id="HzsrkBzken3djIKcfrYe-56" value="Functional Requirements&amp;nbsp;&lt;br&gt;Plumbing, Gas connection, electric connection&amp;nbsp;" style="rounded=0;whiteSpace=wrap;html=1;fontStyle=1" vertex="1" parent="1">
          <mxGeometry x="180" y="290" width="90" height="90" as="geometry" />
        </mxCell>
        <mxCell id="HzsrkBzken3djIKcfrYe-60" value="" style="edgeStyle=orthogonalEdgeStyle;rounded=0;orthogonalLoop=1;jettySize=auto;html=1;endArrow=none;endFill=0;fontStyle=1" edge="1" parent="1" source="HzsrkBzken3djIKcfrYe-57" target="HzsrkBzken3djIKcfrYe-59">
          <mxGeometry relative="1" as="geometry" />
        </mxCell>
        <mxCell id="HzsrkBzken3djIKcfrYe-57" value="Technical Requirements&amp;nbsp;&lt;br&gt;Raw Materials&amp;nbsp;" style="rounded=0;whiteSpace=wrap;html=1;fontStyle=1" vertex="1" parent="1">
          <mxGeometry x="180" y="390" width="90" height="60" as="geometry" />
        </mxCell>
        <mxCell id="HzsrkBzken3djIKcfrYe-59" value="Requirements review and approval" style="rounded=0;whiteSpace=wrap;html=1;fontStyle=1" vertex="1" parent="1">
          <mxGeometry x="180" y="470" width="90" height="60" as="geometry" />
        </mxCell>
        <mxCell id="HzsrkBzken3djIKcfrYe-65" value="Change of Scope Documentation&amp;nbsp;" style="rounded=0;whiteSpace=wrap;html=1;fontStyle=1" vertex="1" parent="1">
          <mxGeometry x="180" y="640" width="100" height="60" as="geometry" />
        </mxCell>
        <mxCell id="HzsrkBzken3djIKcfrYe-66" value="Change Control Log" style="rounded=0;whiteSpace=wrap;html=1;fontStyle=1" vertex="1" parent="1">
          <mxGeometry x="710" y="640" width="90" height="60" as="geometry" />
        </mxCell>
        <mxCell id="HzsrkBzken3djIKcfrYe-89" value="" style="verticalLabelPosition=bottom;verticalAlign=top;html=1;strokeWidth=2;shape=mxgraph.arrows2.arrow;dy=0.6;dx=40;notch=0;fontSize=14;fillColor=default;" vertex="1" parent="1">
          <mxGeometry x="291" y="640" width="389" height="60" as="geometry" />
        </mxCell>
        <mxCell id="HzsrkBzken3djIKcfrYe-90" value="&lt;span style=&quot;font-weight: 700&quot;&gt;CHANGE CONTROL PROCESS&lt;/span&gt;" style="text;html=1;strokeColor=none;fillColor=none;align=center;verticalAlign=middle;whiteSpace=wrap;rounded=0;fontSize=14;" vertex="1" parent="1">
          <mxGeometry x="290" y="655" width="350" height="30" as="geometry" />
        </mxCell>
        <mxCell id="HzsrkBzken3djIKcfrYe-92" value="Pest Control etc" style="rounded=0;whiteSpace=wrap;html=1;fontStyle=1" vertex="1" parent="1">
          <mxGeometry x="730" y="290" width="100" height="60" as="geometry" />
        </mxCell>
      </root>
    </mxGraphModel>
  </diagram>
</mxfile>
